<svg width="106" height="106" viewBox="0 0 106 106" fill="none" xmlns="http://www.w3.org/2000/svg">
<g transform="translate(0, 17.5)">
<path d="M94.3168 9.89045C91.0311 14.7325 94.2947 19.5745 94.3167 19.6069C94.4036 19.5196 94.6635 18.9131 94.6635 18.9131C97.2662 11.6256 100.736 9.89045 100.736 9.89045C96.8324 15.4428 96.3119 21.429 96.3119 21.429C104.033 19.6071 104.64 13.968 104.64 13.968C105.855 9.19641 104.033 3.9043 104.033 3.9043L99.6954 5.89968C95.7046 7.80831 94.3168 9.89045 94.3168 9.89045Z" fill="#ABC442"/>
<path d="M23.2138 49.8025C16.5106 59.2361 23.781 65.9347 23.781 65.9347H24.388C50.0678 63.6788 70.2819 49.6243 70.2819 49.6243C67.2454 46.1541 65.6838 45.2865 65.6838 45.2865C62.5606 43.2044 59.9579 38.346 59.9579 38.346C56.3142 29.931 47.8988 29.931 47.8988 29.931C38.2689 29.3237 34.5384 36.698 34.5384 36.698C32.5431 41.9033 27.5112 45.6338 27.5112 45.6338L24.6747 48.2004C24.1377 48.6863 23.6333 49.2121 23.2138 49.8025Z" fill="#2C794D"/>
<path d="M9.50059 45.1969C9.56173 44.7519 9.27348 44.7683 9.02301 44.8591C8.78687 44.9447 8.5935 45.1133 8.41137 45.2862L6.94971 46.6743C3.87465 49.711 2.35207 52.4002 2.35207 52.4002C-2.94009 60.9893 2.35207 65.5871 2.35207 65.5871C8.09633 71.5845 20.2107 70.6668 20.2107 70.6668C29.5718 70.4832 40.5246 67.5828 40.5246 67.5828C49.0283 65.5273 55.7069 68.5368 55.7069 68.5368C65.5971 72.0938 70.2819 65.9341 70.2819 65.9341C75.1402 60.989 72.7111 53.0075 72.7111 53.0075C87.0234 44.2354 92.0577 35.4249 92.0577 35.4249C96.5681 28.8171 94.7471 24.1177 94.7471 24.1177C93.012 18.5654 85.7245 16.8309 85.7245 16.8309C80.6059 15.529 76.4416 15.963 76.4416 15.963C75.182 16.2368 75.478 16.5452 75.8677 16.7354C76.1787 16.8873 76.529 16.9276 76.8745 16.9479L79.3045 17.0908C90.3225 18.0451 92.0577 23.771 92.0577 23.771C94.6603 29.4102 87.9801 36.6109 87.9801 36.6109C81.2132 45.6335 66.2044 53.9621 66.2044 53.9621C46.9446 65.4139 25.3424 67.5828 25.3424 67.5828C17.7078 68.4503 12.0687 67.4093 12.0687 67.4093C3.39309 66.1079 2.35207 60.9893 2.35207 60.9893C0.70371 55.9575 5.64879 49.711 5.64879 49.711C6.28205 48.7129 8.27069 46.7205 9.0558 45.9491C9.26881 45.7398 9.45995 45.4927 9.50059 45.1969Z" fill="#2C794D"/>
<path d="M23.2138 49.8025C16.5106 59.2361 23.781 65.9347 23.781 65.9347H24.388C50.0678 63.6788 70.2819 49.6243 70.2819 49.6243C67.2454 46.1541 65.6838 45.2865 65.6838 45.2865C62.5606 43.2044 59.9579 38.346 59.9579 38.346C56.3142 29.931 47.8988 29.931 47.8988 29.931C38.2689 29.3237 34.5384 36.698 34.5384 36.698C32.5431 41.9033 27.5112 45.6338 27.5112 45.6338L24.6747 48.2004C24.1377 48.6863 23.6333 49.2121 23.2138 49.8025Z" fill="#2C794D"/>
<path d="M9.50059 45.1969C9.56173 44.7519 9.27348 44.7683 9.02301 44.8591C8.78687 44.9447 8.5935 45.1133 8.41137 45.2862L6.94971 46.6743C3.87465 49.711 2.35207 52.4002 2.35207 52.4002C-2.94009 60.9893 2.35207 65.5871 2.35207 65.5871C8.09633 71.5845 20.2107 70.6668 20.2107 70.6668C29.5718 70.4832 40.5246 67.5828 40.5246 67.5828C49.0283 65.5273 55.7069 68.5368 55.7069 68.5368C65.5971 72.0938 70.2819 65.9341 70.2819 65.9341C75.1402 60.989 72.7111 53.0075 72.7111 53.0075C87.0234 44.2354 92.0577 35.4249 92.0577 35.4249C96.5681 28.8171 94.7471 24.1177 94.7471 24.1177C93.012 18.5654 85.7245 16.8309 85.7245 16.8309C80.6059 15.529 76.4416 15.963 76.4416 15.963C75.182 16.2368 75.478 16.5452 75.8677 16.7354C76.1787 16.8873 76.529 16.9276 76.8745 16.9479L79.3045 17.0908C90.3225 18.0451 92.0577 23.771 92.0577 23.771C94.6603 29.4102 87.9801 36.6109 87.9801 36.6109C81.2132 45.6335 66.2044 53.9621 66.2044 53.9621C46.9446 65.4139 25.3424 67.5828 25.3424 67.5828C17.7078 68.4503 12.0687 67.4093 12.0687 67.4093C3.39309 66.1079 2.35207 60.9893 2.35207 60.9893C0.70371 55.9575 5.64879 49.711 5.64879 49.711C6.28205 48.7129 8.27069 46.7205 9.0558 45.9491C9.26881 45.7398 9.45995 45.4927 9.50059 45.1969Z" fill="#2C794D"/>
<ellipse cx="19.2655" cy="33.0843" rx="8.36348" ry="11.3217" transform="rotate(-25.3549 19.2655 33.0843)" fill="#2C794D"/>
<ellipse cx="19.2655" cy="33.0843" rx="8.36348" ry="11.3217" transform="rotate(-25.3549 19.2655 33.0843)" fill="#2C794D"/>
<ellipse cx="74.5317" cy="33.1378" rx="8.36348" ry="11.3217" transform="rotate(27.3505 74.5317 33.1378)" fill="#2C794D"/>
<ellipse cx="59.1771" cy="14.3978" rx="9.57528" ry="13.1215" transform="rotate(8.5389 59.1771 14.3978)" fill="#2C794D"/>
<ellipse cx="59.1771" cy="14.3978" rx="9.57528" ry="13.1215" transform="rotate(8.5389 59.1771 14.3978)" fill="#2C794D"/>
<ellipse cx="34.7238" cy="14.4853" rx="9.57528" ry="13.1215" transform="rotate(-9.20951 34.7238 14.4853)" fill="#2C794D"/>
<ellipse cx="34.7238" cy="14.4853" rx="9.57528" ry="13.1215" transform="rotate(-9.20951 34.7238 14.4853)" fill="#2C794D"/>
</g>
</svg>
