<svg width="563" height="108" viewBox="0 0 563 108" fill="none" xmlns="http://www.w3.org/2000/svg">
<path d="M4.50094 79.1752C4.69094 72.7152 4.78594 66.4135 4.78594 60.2702C4.84927 54.1269 4.78594 48.1419 4.59594 42.3152C4.40594 36.4885 4.12094 30.8519 3.74094 25.4052C3.36094 19.8952 2.85427 14.5752 2.22094 9.44519L16.6609 7.16519C16.8509 12.8019 17.0093 18.0902 17.1359 23.0302C17.2626 27.9702 17.3259 32.6885 17.3259 37.1852C17.3259 41.6819 17.2943 46.1469 17.2309 50.5802C17.1676 55.0135 17.0093 59.5102 16.7559 64.0702C16.5659 68.6302 16.3443 73.5069 16.0909 78.7002L4.50094 79.1752ZM15.3309 58.6552L12.2909 52.7652C18.4976 50.7385 23.5959 48.6169 27.5859 46.4002C31.6393 44.1835 34.8059 41.9352 37.0859 39.6552C39.3659 37.3119 40.9493 34.9685 41.8359 32.6252C42.7859 30.2185 43.2609 27.9069 43.2609 25.6902C43.2609 24.0435 42.9443 22.4602 42.3109 20.9402C41.6776 19.4202 40.6959 18.2169 39.3659 17.3302C38.0359 16.3802 36.2943 15.9052 34.1409 15.9052C31.9243 15.9052 29.4859 16.5385 26.8259 17.8052C24.2293 19.0085 21.8226 20.9085 19.6059 23.5052C17.3893 26.1019 15.6476 29.4585 14.3809 33.5752L12.4809 26.7352C13.8109 22.7452 15.5209 19.2935 17.6109 16.3802C19.7643 13.4669 22.1076 11.0602 24.6409 9.16019C27.2376 7.26019 29.8026 5.83519 32.3359 4.88519C34.8693 3.93519 37.2443 3.46019 39.4609 3.46019C42.8809 3.46019 45.7943 4.25186 48.2009 5.83519C50.6076 7.41853 52.4443 9.63519 53.7109 12.4852C54.9776 15.2719 55.6109 18.4702 55.6109 22.0802C55.6109 27.0835 54.2493 31.8019 51.5259 36.2352C48.8659 40.6685 44.5909 44.7535 38.7009 48.4902C32.8109 52.2269 25.0209 55.6152 15.3309 58.6552ZM81.9423 78.2252L71.8723 79.1752C72.1889 73.1585 72.4106 66.9519 72.5373 60.5552C72.6639 54.1585 72.6956 47.7302 72.6323 41.2702C72.5689 34.8102 72.4106 28.4769 72.1573 22.2702C71.9039 16.0635 71.5239 10.1102 71.0173 4.41019L84.6023 2.32019C84.9823 14.2269 84.9823 26.5769 84.6023 39.3702C84.2856 52.1002 83.3989 65.0519 81.9423 78.2252ZM113.341 80.0302C110.681 80.0302 108.179 79.4602 105.836 78.3202C103.492 77.1169 101.624 75.4069 100.231 73.1902C98.8372 70.9102 98.1405 68.1552 98.1405 64.9252C98.1405 61.3152 99.1538 57.8002 101.181 54.3802C103.271 50.9602 106.722 47.7619 111.536 44.7852C116.349 41.8085 122.746 39.1485 130.726 36.8052L133.956 43.1702C129.016 44.2469 124.994 45.5769 121.891 47.1602C118.787 48.6802 116.412 50.2952 114.766 52.0052C113.119 53.6519 111.979 55.2985 111.346 56.9452C110.776 58.5919 110.491 60.0485 110.491 61.3152C110.491 63.7852 111.124 65.9385 112.391 67.7752C113.657 69.5485 115.494 70.4352 117.901 70.4352C120.054 70.4352 122.144 69.7702 124.171 68.4402C126.261 67.0469 127.971 65.0519 129.301 62.4552C130.631 59.8585 131.296 56.6919 131.296 52.9552L136.806 48.8702C136.426 54.5069 135.476 59.2885 133.956 63.2152C132.499 67.1419 130.631 70.3402 128.351 72.8102C126.134 75.2802 123.727 77.1169 121.131 78.3202C118.534 79.4602 115.937 80.0302 113.341 80.0302ZM133.481 79.9352C133.037 77.3385 132.626 74.2669 132.246 70.7202C131.866 67.1102 131.581 63.4369 131.391 59.7002C131.201 55.9635 131.042 52.4485 130.916 49.1552C130.789 45.8619 130.694 43.1069 130.631 40.8902C130.631 38.6102 130.662 37.2485 130.726 36.8052L144.121 35.3802C143.171 43.4235 142.632 50.8652 142.506 57.7052C142.442 64.4819 142.601 71.1635 142.981 77.7502L133.481 79.9352ZM208.323 79.5552L195.023 78.5102C195.847 74.8369 196.48 71.2269 196.923 67.6802C197.367 64.1335 197.557 60.8085 197.493 57.7052C197.43 54.5385 197.082 51.7519 196.448 49.3452C195.878 46.8752 194.992 44.9435 193.788 43.5502C192.585 42.1569 191.065 41.4602 189.228 41.4602C187.265 41.4602 185.397 42.4419 183.623 44.4052C181.913 46.3052 180.33 48.9652 178.873 52.3852C177.417 55.7419 176.182 59.6685 175.168 64.1652C174.218 68.6619 173.553 73.5069 173.173 78.7002L168.043 66.4452C168.17 63.8485 168.613 61.0935 169.373 58.1802C170.197 55.2669 171.273 52.4169 172.603 49.6302C173.997 46.7802 175.643 44.2152 177.543 41.9352C179.443 39.6552 181.597 37.8502 184.003 36.5202C186.473 35.1269 189.133 34.4302 191.983 34.4302C195.53 34.4302 198.443 35.4119 200.723 37.3752C203.067 39.2752 204.872 41.8085 206.138 44.9752C207.468 48.1419 208.355 51.6885 208.798 55.6152C209.242 59.5419 209.4 63.5952 209.273 67.7752C209.147 71.8919 208.83 75.8185 208.323 79.5552ZM173.173 78.7002L160.443 79.7452C161.52 72.3985 162.122 65.1469 162.248 57.9902C162.375 50.7702 162.09 43.6769 161.393 36.7102L171.273 34.6202C171.907 38.8635 172.382 42.8219 172.698 46.4952C173.078 50.1685 173.332 53.7152 173.458 57.1352C173.585 60.4919 173.617 63.9435 173.553 67.4902C173.49 70.9735 173.363 74.7102 173.173 78.7002ZM259.499 78.8902C255.953 79.2702 252.374 79.3969 248.764 79.2702C245.218 79.1435 241.861 78.6685 238.694 77.8452C235.528 77.0219 232.709 75.7869 230.239 74.1402C227.833 72.4935 225.933 70.3402 224.539 67.6802C223.146 65.0202 222.449 61.7585 222.449 57.8952C222.449 54.0952 223.146 50.8019 224.539 48.0152C225.933 45.2285 227.801 42.9169 230.144 41.0802C232.551 39.1802 235.179 37.7869 238.029 36.9002C240.943 35.9502 243.856 35.4752 246.769 35.4752C251.203 35.4752 254.908 36.2985 257.884 37.9452C260.861 39.5285 263.109 41.5235 264.629 43.9302C266.149 46.3369 266.878 48.8069 266.814 51.3402C266.814 53.4302 266.308 55.4885 265.294 57.5152C264.344 59.5419 262.729 61.2202 260.449 62.5502C258.233 63.8169 255.161 64.4502 251.234 64.4502C249.841 64.4502 248.194 64.3235 246.294 64.0702C244.458 63.8169 242.558 63.4685 240.594 63.0252C238.694 62.5185 236.889 61.9485 235.179 61.3152C233.469 60.6185 232.044 59.8585 230.904 59.0352L233.374 54.8552C234.578 55.6152 236.161 56.2802 238.124 56.8502C240.151 57.4202 242.621 57.7052 245.534 57.7052C247.371 57.7052 249.049 57.4519 250.569 56.9452C252.153 56.3752 253.419 55.4885 254.369 54.2852C255.319 53.0185 255.794 51.4669 255.794 49.6302C255.794 48.4902 255.541 47.3502 255.034 46.2102C254.528 45.0702 253.673 44.1202 252.469 43.3602C251.329 42.5369 249.714 42.1252 247.624 42.1252C245.534 42.1252 243.508 42.8535 241.544 44.3102C239.644 45.7035 238.061 47.5085 236.794 49.7252C235.528 51.8785 234.894 54.1902 234.894 56.6602C234.894 60.0802 235.528 62.9935 236.794 65.4002C238.124 67.7435 239.961 69.5802 242.304 70.9102C244.648 72.1769 247.371 72.9369 250.474 73.1902C253.578 73.4435 256.966 73.1902 260.639 72.4302L259.499 78.8902ZM310.69 78.7952C305.18 79.1752 300.62 78.7635 297.01 77.5602C293.4 76.2935 290.519 74.3302 288.365 71.6702C286.275 69.0102 284.724 65.7485 283.71 61.8852C282.76 57.9585 282.19 53.5252 282 48.5852C281.81 43.8352 281.684 39.3385 281.62 35.0952C281.557 30.7885 281.525 26.6402 281.525 22.6502C281.525 18.6602 281.557 14.6385 281.62 10.5852L295.395 8.78019C294.762 14.4169 294.16 19.7052 293.59 24.6452C293.084 29.5219 292.64 34.2085 292.26 38.7052C291.88 43.2019 291.659 47.6669 291.595 52.1002C291.532 56.1535 292.292 59.2569 293.875 61.4102C295.459 63.5002 297.739 64.8935 300.715 65.5902C303.692 66.2235 307.207 66.3502 311.26 65.9702L310.69 78.7952ZM308.125 43.5502C303.185 42.4735 297.96 41.9669 292.45 42.0302C286.94 42.0935 281.557 42.5685 276.3 43.4552L275.065 37.2802C280.765 36.0135 286.624 35.2219 292.64 34.9052C298.72 34.5885 304.294 34.7152 309.36 35.2852L308.125 43.5502ZM328.072 79.1752C328.262 72.7152 328.357 66.4135 328.357 60.2702C328.421 54.1269 328.357 48.1419 328.167 42.3152C327.977 36.4885 327.692 30.8519 327.312 25.4052C326.932 19.8952 326.426 14.5752 325.792 9.44519L340.232 7.16519C340.422 12.8019 340.581 18.0902 340.707 23.0302C340.834 27.9702 340.897 32.6885 340.897 37.1852C340.897 41.6819 340.866 46.1469 340.802 50.5802C340.739 55.0135 340.581 59.5102 340.327 64.0702C340.137 68.6302 339.916 73.5069 339.662 78.7002L328.072 79.1752ZM338.902 58.6552L335.862 52.7652C342.069 50.7385 347.167 48.6169 351.157 46.4002C355.211 44.1835 358.377 41.9352 360.657 39.6552C362.937 37.3119 364.521 34.9685 365.407 32.6252C366.357 30.2185 366.832 27.9069 366.832 25.6902C366.832 24.0435 366.516 22.4602 365.882 20.9402C365.249 19.4202 364.267 18.2169 362.937 17.3302C361.607 16.3802 359.866 15.9052 357.712 15.9052C355.496 15.9052 353.057 16.5385 350.397 17.8052C347.801 19.0085 345.394 20.9085 343.177 23.5052C340.961 26.1019 339.219 29.4585 337.952 33.5752L336.052 26.7352C337.382 22.7452 339.092 19.2935 341.182 16.3802C343.336 13.4669 345.679 11.0602 348.212 9.16019C350.809 7.26019 353.374 5.83519 355.907 4.88519C358.441 3.93519 360.816 3.46019 363.032 3.46019C366.452 3.46019 369.366 4.25186 371.772 5.83519C374.179 7.41853 376.016 9.63519 377.282 12.4852C378.549 15.2719 379.182 18.4702 379.182 22.0802C379.182 27.0835 377.821 31.8019 375.097 36.2352C372.437 40.6685 368.162 44.7535 362.272 48.4902C356.382 52.2269 348.592 55.6152 338.902 58.6552ZM418.131 78.8902C414.584 79.2702 411.006 79.3969 407.396 79.2702C403.849 79.1435 400.493 78.6685 397.326 77.8452C394.159 77.0219 391.341 75.7869 388.871 74.1402C386.464 72.4935 384.564 70.3402 383.171 67.6802C381.778 65.0202 381.081 61.7585 381.081 57.8952C381.081 54.0952 381.778 50.8019 383.171 48.0152C384.564 45.2285 386.433 42.9169 388.776 41.0802C391.183 39.1802 393.811 37.7869 396.661 36.9002C399.574 35.9502 402.488 35.4752 405.401 35.4752C409.834 35.4752 413.539 36.2985 416.516 37.9452C419.493 39.5285 421.741 41.5235 423.261 43.9302C424.781 46.3369 425.509 48.8069 425.446 51.3402C425.446 53.4302 424.939 55.4885 423.926 57.5152C422.976 59.5419 421.361 61.2202 419.081 62.5502C416.864 63.8169 413.793 64.4502 409.866 64.4502C408.473 64.4502 406.826 64.3235 404.926 64.0702C403.089 63.8169 401.189 63.4685 399.226 63.0252C397.326 62.5185 395.521 61.9485 393.811 61.3152C392.101 60.6185 390.676 59.8585 389.536 59.0352L392.006 54.8552C393.209 55.6152 394.793 56.2802 396.756 56.8502C398.783 57.4202 401.253 57.7052 404.166 57.7052C406.003 57.7052 407.681 57.4519 409.201 56.9452C410.784 56.3752 412.051 55.4885 413.001 54.2852C413.951 53.0185 414.426 51.4669 414.426 49.6302C414.426 48.4902 414.173 47.3502 413.666 46.2102C413.159 45.0702 412.304 44.1202 411.101 43.3602C409.961 42.5369 408.346 42.1252 406.256 42.1252C404.166 42.1252 402.139 42.8535 400.176 44.3102C398.276 45.7035 396.693 47.5085 395.426 49.7252C394.159 51.8785 393.526 54.1902 393.526 56.6602C393.526 60.0802 394.159 62.9935 395.426 65.4002C396.756 67.7435 398.593 69.5802 400.936 70.9102C403.279 72.1769 406.003 72.9369 409.106 73.1902C412.209 73.4435 415.598 73.1902 419.271 72.4302L418.131 78.8902ZM469.322 78.7952C463.812 79.1752 459.252 78.7635 455.642 77.5602C452.032 76.2935 449.15 74.3302 446.997 71.6702C444.907 69.0102 443.355 65.7485 442.342 61.8852C441.392 57.9585 440.822 53.5252 440.632 48.5852C440.442 43.8352 440.315 39.3385 440.252 35.0952C440.188 30.7885 440.157 26.6402 440.157 22.6502C440.157 18.6602 440.188 14.6385 440.252 10.5852L454.027 8.78019C453.393 14.4169 452.792 19.7052 452.222 24.6452C451.715 29.5219 451.272 34.2085 450.892 38.7052C450.512 43.2019 450.29 47.6669 450.227 52.1002C450.163 56.1535 450.923 59.2569 452.507 61.4102C454.09 63.5002 456.37 64.8935 459.347 65.5902C462.323 66.2235 465.838 66.3502 469.892 65.9702L469.322 78.7952ZM466.757 43.5502C461.817 42.4735 456.592 41.9669 451.082 42.0302C445.572 42.0935 440.188 42.5685 434.932 43.4552L433.697 37.2802C439.397 36.0135 445.255 35.2219 451.272 34.9052C457.352 34.5885 462.925 34.7152 467.992 35.2852L466.757 43.5502ZM493.734 78.2252L483.664 79.1752C483.981 73.1585 484.202 66.9519 484.329 60.5552C484.456 54.1585 484.487 47.7302 484.424 41.2702C484.361 34.8102 484.202 28.4769 483.949 22.2702C483.696 16.0635 483.316 10.1102 482.809 4.41019L496.394 2.32019C496.774 14.2269 496.774 26.5769 496.394 39.3702C496.077 52.1002 495.191 65.0519 493.734 78.2252ZM511.335 100.455L516.275 89.0552C520.265 91.9685 524.033 94.1219 527.58 95.5152C531.19 96.9719 534.42 97.4785 537.27 97.0352C540.183 96.5919 542.59 95.0719 544.49 92.4752C546.39 89.8785 547.688 86.0785 548.385 81.0752C548.765 78.2885 549.018 75.6919 549.145 73.2852C549.335 70.8785 549.398 68.4719 549.335 66.0652C549.335 63.5952 549.272 60.9352 549.145 58.0852C549.018 55.2352 548.86 52.0369 548.67 48.4902C548.48 44.8802 548.29 40.7002 548.1 35.9502L560.545 32.9102C560.735 38.6735 560.798 44.4369 560.735 50.2002C560.672 55.9635 560.45 61.5369 560.07 66.9202C559.69 72.2402 559.088 77.1802 558.265 81.7402C557.188 87.9469 555.257 92.8552 552.47 96.4652C549.747 100.075 546.327 102.545 542.21 103.875C538.157 105.205 533.502 105.522 528.245 104.825C523.052 104.192 517.415 102.735 511.335 100.455ZM529.765 79.7452C526.218 79.7452 523.305 78.8269 521.025 76.9902C518.745 75.0902 516.94 72.5885 515.61 69.4852C514.343 66.3819 513.457 62.8985 512.95 59.0352C512.507 55.1719 512.348 51.2135 512.475 47.1602C512.602 43.0435 512.918 39.1169 513.425 35.3802L526.725 35.0002C525.902 38.6735 525.268 42.3152 524.825 45.9252C524.382 49.4719 524.192 52.8602 524.255 56.0902C524.318 59.3202 524.635 62.2019 525.205 64.7352C525.838 67.2052 526.757 69.1685 527.96 70.6252C529.163 72.0819 530.683 72.8102 532.52 72.8102C534.483 72.8102 536.32 71.8602 538.03 69.9602C539.74 68.0602 541.292 65.4635 542.685 62.1702C544.078 58.8135 545.218 54.9185 546.105 50.4852C547.055 45.9885 547.72 41.1435 548.1 35.9502L553.04 48.2052C552.913 50.8019 552.47 53.5569 551.71 56.4702C550.95 59.3202 549.905 62.1385 548.575 64.9252C547.308 67.7119 545.757 70.2135 543.92 72.4302C542.083 74.6469 539.962 76.4202 537.555 77.7502C535.212 79.0802 532.615 79.7452 529.765 79.7452Z" fill="white"/>
<path d="M4.50094 79.1752L2.5018 79.1164L2.43871 81.2614L4.58284 81.1735L4.50094 79.1752ZM4.78594 60.2702L2.78604 60.2496L2.78594 60.2599V60.2702H4.78594ZM4.59594 42.3152L2.597 42.3804V42.3804L4.59594 42.3152ZM3.74094 25.4052L1.74568 25.5428L1.74579 25.5444L3.74094 25.4052ZM2.22094 9.44519L1.90901 7.46967L-0.000907421 7.77123L0.236007 9.69025L2.22094 9.44519ZM16.6609 7.16519L18.6598 7.09782L18.5836 4.83684L16.349 5.18967L16.6609 7.16519ZM17.2309 50.5802L19.2307 50.6088L17.2309 50.5802ZM16.7559 64.0702L14.759 63.9593L14.7582 63.9731L14.7577 63.9869L16.7559 64.0702ZM16.0909 78.7002L16.1728 80.6985L17.9995 80.6237L18.0886 78.7976L16.0909 78.7002ZM15.3309 58.6552L13.5537 59.5725L14.325 61.0669L15.9296 60.5635L15.3309 58.6552ZM12.2909 52.7652L11.6701 50.864L9.43558 51.5936L10.5137 53.6825L12.2909 52.7652ZM27.5859 46.4002L26.6263 44.6454L26.6147 44.6519L27.5859 46.4002ZM37.0859 39.6552L38.5002 41.0694L38.5098 41.0597L38.5194 41.0499L37.0859 39.6552ZM41.8359 32.6252L39.9756 31.8909L39.9704 31.9041L39.9654 31.9174L41.8359 32.6252ZM42.3109 20.9402L40.4648 21.7094L40.4648 21.7094L42.3109 20.9402ZM39.3659 17.3302L38.2035 18.9577L38.2297 18.9764L38.2565 18.9943L39.3659 17.3302ZM26.8259 17.8052L27.6669 19.6198L27.6764 19.6154L27.6858 19.6109L26.8259 17.8052ZM19.6059 23.5052L18.0848 22.2067V22.2067L19.6059 23.5052ZM14.3809 33.5752L12.4539 34.1105L14.2829 40.6947L16.2925 34.1634L14.3809 33.5752ZM12.4809 26.7352L10.5836 26.1027L10.3905 26.6821L10.5539 27.2705L12.4809 26.7352ZM17.6109 16.3802L16.0026 15.1914L15.9941 15.2028L15.9859 15.2144L17.6109 16.3802ZM24.6409 9.16019L23.4599 7.54613L23.4504 7.5531L23.4409 7.56019L24.6409 9.16019ZM32.3359 4.88519L33.0382 6.75785V6.75785L32.3359 4.88519ZM48.2009 5.83519L47.1017 7.50603V7.50603L48.2009 5.83519ZM53.7109 12.4852L51.8833 13.2975L51.8867 13.3052L51.8902 13.3128L53.7109 12.4852ZM51.5259 36.2352L49.8218 35.1884L49.8163 35.1973L49.811 35.2062L51.5259 36.2352ZM38.7009 48.4902L37.6295 46.8014V46.8014L38.7009 48.4902ZM4.50094 79.1752L6.50007 79.234C6.69062 72.7554 6.78594 66.4341 6.78594 60.2702H4.78594H2.78594C2.78594 66.3929 2.69126 72.675 2.5018 79.1164L4.50094 79.1752ZM4.78594 60.2702L6.78583 60.2908C6.84944 54.1204 6.78586 48.1068 6.59488 42.25L4.59594 42.3152L2.597 42.3804C2.78602 48.177 2.8491 54.1333 2.78604 60.2496L4.78594 60.2702ZM4.59594 42.3152L6.59488 42.25C6.40412 36.4003 6.11792 30.7389 5.73609 25.266L3.74094 25.4052L1.74579 25.5444C2.12396 30.9648 2.40775 36.5768 2.597 42.3804L4.59594 42.3152ZM3.74094 25.4052L5.7362 25.2676C5.35389 19.7241 4.8439 14.3682 4.20587 9.20014L2.22094 9.44519L0.236007 9.69025C0.864644 14.7822 1.36799 20.0663 1.74568 25.5428L3.74094 25.4052ZM2.22094 9.44519L2.53286 11.4207L16.9729 9.14072L16.6609 7.16519L16.349 5.18967L1.90901 7.46967L2.22094 9.44519ZM16.6609 7.16519L14.6621 7.23257C14.8519 12.8646 15.0101 18.1475 15.1366 23.0815L17.1359 23.0302L19.1353 22.9789C19.0085 18.0329 18.85 12.7391 18.6598 7.09782L16.6609 7.16519ZM17.1359 23.0302L15.1366 23.0815C15.2629 28.006 15.3259 32.7072 15.3259 37.1852H17.3259H19.3259C19.3259 32.6699 19.2623 27.9344 19.1353 22.9789L17.1359 23.0302ZM17.3259 37.1852H15.3259C15.3259 41.6725 15.2943 46.1279 15.2311 50.5516L17.2309 50.5802L19.2307 50.6088C19.2942 46.1658 19.3259 41.6913 19.3259 37.1852H17.3259ZM17.2309 50.5802L15.2311 50.5516C15.1682 54.9567 15.0109 59.4259 14.759 63.9593L16.7559 64.0702L18.7529 64.1811C19.0077 59.5945 19.167 55.0704 19.2307 50.6088L17.2309 50.5802ZM16.7559 64.0702L14.7577 63.9869C14.5679 68.5416 14.3464 73.4135 14.0933 78.6028L16.0909 78.7002L18.0886 78.7976C18.3421 73.6002 18.564 68.7188 18.7542 64.1535L16.7559 64.0702ZM16.0909 78.7002L16.009 76.7019L4.41904 77.1769L4.50094 79.1752L4.58284 81.1735L16.1728 80.6985L16.0909 78.7002ZM15.3309 58.6552L17.1082 57.7379L14.0682 51.8479L12.2909 52.7652L10.5137 53.6825L13.5537 59.5725L15.3309 58.6552ZM12.2909 52.7652L12.9117 54.6664C19.1927 52.6155 24.4192 50.4474 28.5572 48.1485L27.5859 46.4002L26.6147 44.6519C22.7726 46.7863 17.8025 48.8616 11.6701 50.864L12.2909 52.7652ZM27.5859 46.4002L28.5456 48.1549C32.7002 45.8829 36.0413 43.5282 38.5002 41.0694L37.0859 39.6552L35.6717 38.241C33.5706 40.3421 30.5784 42.4842 26.6263 44.6455L27.5859 46.4002ZM37.0859 39.6552L38.5194 41.0499C40.935 38.5672 42.698 35.9982 43.7065 33.333L41.8359 32.6252L39.9654 31.9174C39.2005 33.9388 37.7969 36.0565 35.6525 38.2605L37.0859 39.6552ZM41.8359 32.6252L43.6962 33.3595C44.7234 30.7575 45.2609 28.1965 45.2609 25.6902H43.2609H41.2609C41.2609 27.6172 40.8485 29.6795 39.9756 31.8909L41.8359 32.6252ZM43.2609 25.6902H45.2609C45.2609 23.7795 44.892 21.9347 44.1571 20.171L42.3109 20.9402L40.4648 21.7094C40.9966 22.9857 41.2609 24.3076 41.2609 25.6902H43.2609ZM42.3109 20.9402L44.1571 20.171C43.3768 18.2981 42.1442 16.7787 40.4753 15.6661L39.3659 17.3302L38.2565 18.9943C39.2477 19.655 39.9785 20.5422 40.4648 21.7094L42.3109 20.9402ZM39.3659 17.3302L40.5284 15.7027C38.7661 14.4439 36.5799 13.9052 34.1409 13.9052V15.9052V17.9052C36.0086 17.9052 37.3058 18.3164 38.2035 18.9577L39.3659 17.3302ZM34.1409 15.9052V13.9052C31.5457 13.9052 28.8103 14.6451 25.9661 15.9995L26.8259 17.8052L27.6858 19.6109C30.1615 18.432 32.3029 17.9052 34.1409 17.9052V15.9052ZM26.8259 17.8052L25.985 15.9906C23.0816 17.3361 20.4529 19.4327 18.0848 22.2067L19.6059 23.5052L21.1271 24.8037C23.1924 22.3844 25.3769 20.681 27.6669 19.6198L26.8259 17.8052ZM19.6059 23.5052L18.0848 22.2067C15.651 25.0577 13.7961 28.6753 12.4694 32.987L14.3809 33.5752L16.2925 34.1634C17.4991 30.2418 19.1275 27.146 21.1271 24.8037L19.6059 23.5052ZM14.3809 33.5752L16.308 33.0399L14.408 26.1999L12.4809 26.7352L10.5539 27.2705L12.4539 34.1105L14.3809 33.5752ZM12.4809 26.7352L14.3783 27.3676C15.6555 23.536 17.2812 20.2709 19.236 17.546L17.6109 16.3802L15.9859 15.2144C13.7606 18.3162 11.9664 21.9544 10.5836 26.1027L12.4809 26.7352ZM17.6109 16.3802L19.2193 17.569C21.2735 14.7898 23.4835 12.5283 25.8409 10.7602L24.6409 9.16019L23.4409 7.56019C20.7318 9.59209 18.2551 12.1439 16.0026 15.1914L17.6109 16.3802ZM24.6409 9.16019L25.822 10.7743C28.2985 8.96218 30.7041 7.63313 33.0382 6.75785L32.3359 4.88519L31.6337 3.01254C28.9011 4.03725 26.1768 5.5582 23.4599 7.54613L24.6409 9.16019ZM32.3359 4.88519L33.0382 6.75785C35.3949 5.87407 37.5305 5.46019 39.4609 5.46019V3.46019V1.46019C36.9581 1.46019 34.3436 1.99632 31.6337 3.01254L32.3359 4.88519ZM39.4609 3.46019V5.46019C42.5646 5.46019 45.0785 6.17494 47.1017 7.50603L48.2009 5.83519L49.3002 4.16436C46.5101 2.32877 43.1973 1.46019 39.4609 1.46019V3.46019ZM48.2009 5.83519L47.1017 7.50603C49.1619 8.86141 50.7588 10.7674 51.8833 13.2975L53.7109 12.4852L55.5386 11.6729C54.1297 8.50302 52.0533 5.97564 49.3002 4.16436L48.2009 5.83519ZM53.7109 12.4852L51.8902 13.3128C53.0194 15.7971 53.6109 18.7051 53.6109 22.0802H55.6109H57.6109C57.6109 18.2353 56.9358 14.7466 55.5317 11.6576L53.7109 12.4852ZM55.6109 22.0802H53.6109C53.6109 26.6988 52.3598 31.0568 49.8218 35.1884L51.5259 36.2352L53.2301 37.282C56.1388 32.547 57.6109 27.4683 57.6109 22.0802H55.6109ZM51.5259 36.2352L49.811 35.2062C47.3571 39.296 43.344 43.1761 37.6295 46.8014L38.7009 48.4902L39.7723 50.179C45.8379 46.331 50.3748 42.0411 53.2409 37.2642L51.5259 36.2352ZM38.7009 48.4902L37.6295 46.8014C31.9371 50.4127 24.3242 53.7377 14.7323 56.7469L15.3309 58.6552L15.9296 60.5635C25.7177 57.4927 33.6848 54.041 39.7723 50.179L38.7009 48.4902ZM81.9423 78.2252L82.1301 80.2164L83.7512 80.0634L83.9302 78.445L81.9423 78.2252ZM71.8723 79.1752L69.875 79.0701L69.7533 81.384L72.0601 81.1664L71.8723 79.1752ZM72.5373 60.5552L70.5377 60.5156V60.5156L72.5373 60.5552ZM72.1573 22.2702L74.1556 22.1886L72.1573 22.2702ZM71.0173 4.41019L70.7132 2.43345L68.859 2.7187L69.0251 4.58727L71.0173 4.41019ZM84.6023 2.32019L86.6012 2.25639L86.5292 0.000205994L84.2982 0.343452L84.6023 2.32019ZM84.6023 39.3702L82.6031 39.3108L82.6029 39.3205L84.6023 39.3702ZM81.9423 78.2252L81.7544 76.234L71.6844 77.184L71.8723 79.1752L72.0601 81.1664L82.1301 80.2164L81.9423 78.2252ZM71.8723 79.1752L73.8695 79.2803C74.1874 73.2405 74.4098 67.012 74.5369 60.5948L72.5373 60.5552L70.5377 60.5156C70.4114 66.8917 70.1905 73.0765 69.875 79.0701L71.8723 79.1752ZM72.5373 60.5552L74.5369 60.5948C74.6639 54.1782 74.6957 47.7301 74.6322 41.2506L72.6323 41.2702L70.6324 41.2898C70.6955 47.7303 70.6639 54.1389 70.5377 60.5156L72.5373 60.5552ZM72.6323 41.2702L74.6322 41.2506C74.5686 34.7707 74.4098 28.4167 74.1556 22.1886L72.1573 22.2702L70.1589 22.3518C70.4114 28.537 70.5692 34.8496 70.6324 41.2898L72.6323 41.2702ZM72.1573 22.2702L74.1556 22.1886C73.9011 15.9527 73.5191 9.96745 73.0094 4.23311L71.0173 4.41019L69.0251 4.58727C69.5287 10.2529 69.9068 16.1743 70.1589 22.3518L72.1573 22.2702ZM71.0173 4.41019L71.3214 6.38693L84.9064 4.29694L84.6023 2.32019L84.2982 0.343452L70.7132 2.43345L71.0173 4.41019ZM84.6023 2.32019L82.6033 2.38399C82.9819 14.2467 82.982 26.5555 82.6031 39.3108L84.6023 39.3702L86.6014 39.4296C86.9825 26.5982 86.9827 14.207 86.6012 2.25639L84.6023 2.32019ZM84.6023 39.3702L82.6029 39.3205C82.2877 51.9914 81.4051 64.8863 79.9544 78.0054L81.9423 78.2252L83.9302 78.445C85.3928 65.2175 86.2835 52.209 86.6017 39.4199L84.6023 39.3702ZM105.836 78.3202L104.922 80.0993L104.941 80.1092L104.961 80.1187L105.836 78.3202ZM100.231 73.1902L98.5239 74.2331L98.5305 74.2439L98.5372 74.2545L100.231 73.1902ZM101.181 54.3802L99.4739 53.3373L99.4669 53.3489L99.4599 53.3606L101.181 54.3802ZM111.536 44.7852L110.484 43.0842V43.0842L111.536 44.7852ZM130.726 36.8052L132.509 35.9001L131.757 34.4179L130.162 34.8862L130.726 36.8052ZM133.956 43.1702L134.381 45.1243L136.91 44.5732L135.739 42.2651L133.956 43.1702ZM121.891 47.1602L122.77 48.9563L122.785 48.9491L122.799 48.9417L121.891 47.1602ZM114.766 52.0052L116.18 53.4194L116.193 53.4061L116.206 53.3925L114.766 52.0052ZM111.346 56.9452L109.479 56.2272L109.467 56.2589L109.456 56.291L111.346 56.9452ZM112.391 67.7752L110.744 68.9107L110.753 68.9242L110.763 68.9377L112.391 67.7752ZM124.171 68.4402L125.268 70.1123L125.274 70.1083L125.28 70.1043L124.171 68.4402ZM129.301 62.4552L131.081 63.3669V63.3669L129.301 62.4552ZM131.296 52.9552L130.104 51.3486L129.296 51.9483V52.9552H131.296ZM136.806 48.8702L138.801 49.0047L139.092 44.6852L135.614 47.2636L136.806 48.8702ZM133.956 63.2152L132.09 62.4932L132.085 62.5064L132.08 62.5196L133.956 63.2152ZM128.351 72.8102L126.881 71.4536L126.871 71.4639L126.862 71.4744L128.351 72.8102ZM121.131 78.3202L121.934 80.1515L121.953 80.1433L121.971 80.1348L121.131 78.3202ZM133.48 79.9352L131.509 80.2718L131.865 82.3589L133.929 81.8843L133.48 79.9352ZM132.246 70.7202L130.257 70.9296L130.257 70.9333L132.246 70.7202ZM131.391 59.7002L133.388 59.5986V59.5986L131.391 59.7002ZM130.916 49.1552L132.914 49.0783V49.0783L130.916 49.1552ZM130.631 40.8902H128.631V40.9188L128.631 40.9473L130.631 40.8902ZM130.726 36.8052L130.514 34.8164L128.966 34.9811L128.746 36.5224L130.726 36.8052ZM144.121 35.3802L146.107 35.6148L146.401 33.1263L143.909 33.3914L144.121 35.3802ZM142.506 57.7052L140.506 57.6682L140.506 57.6773L140.506 57.6865L142.506 57.7052ZM142.98 77.7502L143.429 79.6993L145.074 79.3208L144.977 77.635L142.98 77.7502ZM113.341 80.0302V78.0302C110.977 78.0302 108.775 77.5263 106.71 76.5217L105.836 78.3202L104.961 80.1187C107.582 81.3941 110.384 82.0302 113.341 82.0302V80.0302ZM105.836 78.3202L106.749 76.5411C104.723 75.5006 103.125 74.0366 101.924 72.1259L100.231 73.1902L98.5372 74.2545C100.123 76.7771 102.261 78.7331 104.922 80.0993L105.836 78.3202ZM100.231 73.1902L101.937 72.1473C100.772 70.2412 100.141 67.8643 100.141 64.9252H98.1405H96.1405C96.1405 68.4461 96.9021 71.5792 98.5239 74.2331L100.231 73.1902ZM98.1405 64.9252H100.141C100.141 61.7096 101.038 58.5433 102.901 55.3998L101.181 54.3802L99.4599 53.3606C97.2694 57.0571 96.1405 60.9208 96.1405 64.9252H98.1405ZM101.181 54.3802L102.887 55.4231C104.76 52.3579 107.938 49.3616 112.587 46.4862L111.536 44.7852L110.484 43.0842C105.506 46.1621 101.781 49.5625 99.4739 53.3373L101.181 54.3802ZM111.536 44.7852L112.587 46.4862C117.195 43.6366 123.408 41.0383 131.289 38.7242L130.726 36.8052L130.162 34.8862C122.083 37.2587 115.502 39.9805 110.484 43.0842L111.536 44.7852ZM130.726 36.8052L128.942 37.7103L132.172 44.0753L133.956 43.1702L135.739 42.2651L132.509 35.9001L130.726 36.8052ZM133.956 43.1702L133.53 41.2161C128.49 42.3144 124.29 43.6909 120.982 45.3787L121.891 47.1602L122.799 48.9417C125.698 47.4628 129.541 46.1793 134.381 45.1243L133.956 43.1702ZM121.891 47.1602L121.011 45.3641C117.785 46.9441 115.189 48.6822 113.325 50.6179L114.766 52.0052L116.206 53.3925C117.635 51.9082 119.789 50.4163 122.77 48.9563L121.891 47.1602ZM114.766 52.0052L113.351 50.591C111.567 52.3752 110.239 54.2501 109.479 56.2272L111.346 56.9452L113.212 57.6632C113.718 56.347 114.671 54.9285 116.18 53.4194L114.766 52.0052ZM111.346 56.9452L109.456 56.291C108.838 58.0748 108.491 59.7596 108.491 61.3152H110.491H112.491C112.491 60.3374 112.713 59.109 113.235 57.5994L111.346 56.9452ZM110.491 61.3152H108.491C108.491 64.1455 109.223 66.7047 110.744 68.9107L112.391 67.7752L114.037 66.6397C113.025 65.1724 112.491 63.4249 112.491 61.3152H110.491ZM112.391 67.7752L110.763 68.9377C112.449 71.2973 114.926 72.4352 117.901 72.4352V70.4352V68.4352C116.061 68.4352 114.866 67.7997 114.018 66.6127L112.391 67.7752ZM117.901 70.4352V72.4352C120.491 72.4352 122.958 71.6284 125.268 70.1123L124.171 68.4402L123.073 66.7681C121.33 67.912 119.616 68.4352 117.901 68.4352V70.4352ZM124.171 68.4402L125.28 70.1043C127.697 68.4929 129.62 66.2181 131.081 63.3669L129.301 62.4552L127.52 61.5434C126.321 63.8857 124.824 65.6008 123.061 66.7761L124.171 68.4402ZM129.301 62.4552L131.081 63.3669C132.59 60.4201 133.296 56.9225 133.296 52.9552H131.296H129.296C129.296 56.4612 128.671 59.297 127.52 61.5434L129.301 62.4552ZM131.296 52.9552L132.487 54.5618L137.997 50.4768L136.806 48.8702L135.614 47.2636L130.104 51.3486L131.296 52.9552ZM136.806 48.8702L134.81 48.7357C134.439 54.2352 133.518 58.8064 132.09 62.4932L133.956 63.2152L135.821 63.9372C137.434 59.7706 138.412 54.7786 138.801 49.0047L136.806 48.8702ZM133.956 63.2152L132.08 62.5196C130.693 66.2597 128.946 69.2162 126.881 71.4536L128.351 72.8102L129.82 74.1668C132.315 71.4642 134.305 68.024 135.831 63.9108L133.956 63.2152ZM128.351 72.8102L126.862 71.4744C124.798 73.7744 122.604 75.433 120.29 76.5056L121.131 78.3202L121.971 80.1348C124.85 78.8007 127.47 76.786 129.839 74.146L128.351 72.8102ZM121.131 78.3202L120.327 76.4889C117.96 77.528 115.636 78.0302 113.341 78.0302V80.0302V82.0302C116.239 82.0302 119.108 81.3924 121.934 80.1515L121.131 78.3202ZM133.48 79.9352L135.452 79.5986C135.018 77.0543 134.611 74.0258 134.234 70.5071L132.246 70.7202L130.257 70.9333C130.64 74.5079 131.057 77.6227 131.509 80.2718L133.48 79.9352ZM132.246 70.7202L134.235 70.5108C133.858 66.9378 133.576 63.3004 133.388 59.5986L131.391 59.7002L129.393 59.8018C129.585 63.5733 129.873 67.2826 130.257 70.9296L132.246 70.7202ZM131.391 59.7002L133.388 59.5986C133.198 55.8691 133.04 52.3624 132.914 49.0783L130.916 49.1552L128.917 49.2321C129.044 52.5346 129.203 56.0579 129.393 59.8018L131.391 59.7002ZM130.916 49.1552L132.914 49.0783C132.788 45.7887 132.693 43.0408 132.63 40.8331L130.631 40.8902L128.631 40.9473C128.695 43.1729 128.79 45.935 128.917 49.2321L130.916 49.1552ZM130.631 40.8902H132.631C132.631 39.7569 132.638 38.864 132.654 38.2054C132.661 37.8759 132.671 37.614 132.681 37.415C132.686 37.3158 132.692 37.2378 132.697 37.1786C132.699 37.1494 132.701 37.127 132.703 37.1106C132.705 37.0939 132.706 37.087 132.705 37.088L130.726 36.8052L128.746 36.5224C128.657 37.1432 128.631 38.6858 128.631 40.8902H130.631ZM130.726 36.8052L130.937 38.794L144.332 37.369L144.121 35.3802L143.909 33.3914L130.514 34.8164L130.726 36.8052ZM144.121 35.3802L142.134 35.1456C141.178 43.243 140.634 50.7515 140.506 57.6682L142.506 57.7052L144.505 57.7422C144.63 50.9789 145.163 43.6041 146.107 35.6148L144.121 35.3802ZM142.506 57.7052L140.506 57.6865C140.442 64.5066 140.601 71.233 140.984 77.8654L142.98 77.7502L144.977 77.635C144.6 71.0941 144.442 64.4571 144.505 57.7239L142.506 57.7052ZM142.98 77.7502L142.532 75.8011L133.032 77.9861L133.48 79.9352L133.929 81.8843L143.429 79.6993L142.98 77.7502ZM208.323 79.5552L208.167 81.549L210.051 81.6971L210.305 79.8239L208.323 79.5552ZM195.023 78.5102L193.072 78.0728L192.567 80.3234L194.867 80.5041L195.023 78.5102ZM197.493 57.7052L195.494 57.7452L195.494 57.746L197.493 57.7052ZM196.448 49.3452L194.5 49.7949L194.507 49.8247L194.514 49.8542L196.448 49.3452ZM193.788 43.5502L192.275 44.8574V44.8574L193.788 43.5502ZM183.623 44.4052L182.139 43.0646L182.137 43.0673L183.623 44.4052ZM178.873 52.3852L180.708 53.1814L180.713 53.1689L178.873 52.3852ZM175.168 64.1652L173.217 63.7255L173.214 63.7386L173.212 63.7518L175.168 64.1652ZM173.173 78.7002L171.329 79.4725L175.168 78.8461L173.173 78.7002ZM168.043 66.4452L166.046 66.3477L166.024 66.7999L166.199 67.2175L168.043 66.4452ZM169.373 58.1802L167.449 57.6363L167.443 57.6558L167.438 57.6754L169.373 58.1802ZM172.603 49.6302L170.807 48.7518L170.803 48.7602L170.798 48.7687L172.603 49.6302ZM177.543 41.9352L176.007 40.6548V40.6548L177.543 41.9352ZM184.003 36.5202L184.971 38.2707L184.978 38.2664L184.986 38.2621L184.003 36.5202ZM200.723 37.3752L199.418 38.8907L199.441 38.91L199.464 38.9287L200.723 37.3752ZM206.138 44.9752L204.281 45.718L204.288 45.7339L204.294 45.7497L206.138 44.9752ZM208.798 55.6152L210.786 55.3908V55.3908L208.798 55.6152ZM209.273 67.7752L211.272 67.8367L211.273 67.8358L209.273 67.7752ZM173.173 78.7002L173.337 80.6935L175.088 80.5498L175.171 78.7953L173.173 78.7002ZM160.443 79.7452L158.465 79.4552L158.1 81.9443L160.607 81.7385L160.443 79.7452ZM162.248 57.9902L164.248 58.0256V58.0253L162.248 57.9902ZM161.393 36.7102L160.98 34.7535L159.225 35.1247L159.403 36.9092L161.393 36.7102ZM171.273 34.6202L173.252 34.325L172.938 32.2238L170.86 32.6635L171.273 34.6202ZM172.698 46.4952L170.706 46.667L170.707 46.684L170.709 46.701L172.698 46.4952ZM173.458 57.1352L171.46 57.2092L171.46 57.2106L173.458 57.1352ZM173.553 67.4902L175.553 67.5266L175.553 67.5259L173.553 67.4902ZM208.323 79.5552L208.48 77.5613L195.18 76.5163L195.023 78.5102L194.867 80.5041L208.167 81.549L208.323 79.5552ZM195.023 78.5102L196.975 78.9476C197.812 75.215 198.456 71.5418 198.908 67.9283L196.923 67.6802L194.939 67.4321C194.504 70.9119 193.882 74.4587 193.072 78.0728L195.023 78.5102ZM196.923 67.6802L198.908 67.9283C199.362 64.2998 199.559 60.8774 199.493 57.6644L197.493 57.7052L195.494 57.746C195.555 60.7396 195.372 63.9672 194.939 67.4321L196.923 67.6802ZM197.493 57.7052L199.493 57.6652C199.427 54.3809 199.065 51.431 198.383 48.8362L196.448 49.3452L194.514 49.8542C195.098 52.0727 195.433 54.6962 195.494 57.7452L197.493 57.7052ZM196.448 49.3452L198.397 48.8955C197.78 46.2219 196.783 43.9576 195.302 42.243L193.788 43.5502L192.275 44.8574C193.201 45.9294 193.977 47.5285 194.5 49.7949L196.448 49.3452ZM193.788 43.5502L195.302 42.243C193.72 40.4109 191.648 39.4602 189.228 39.4602V41.4602V43.4602C190.482 43.4602 191.45 43.9028 192.275 44.8574L193.788 43.5502ZM189.228 41.4602V39.4602C186.522 39.4602 184.154 40.8341 182.139 43.0646L183.623 44.4052L185.108 45.7458C186.64 44.0496 188.008 43.4602 189.228 43.4602V41.4602ZM183.623 44.4052L182.137 43.0673C180.229 45.1874 178.541 48.0622 177.033 51.6015L178.873 52.3852L180.713 53.1689C182.119 49.8681 183.598 47.4229 185.11 45.7431L183.623 44.4052ZM178.873 52.3852L177.039 51.589C175.521 55.0857 174.251 59.1365 173.217 63.7255L175.168 64.1652L177.12 64.6049C178.112 60.2005 179.312 56.3981 180.708 53.1814L178.873 52.3852ZM175.168 64.1652L173.212 63.7518C172.241 68.3473 171.564 73.2826 171.179 78.5542L173.173 78.7002L175.168 78.8461C175.542 73.7311 176.196 68.9764 177.125 64.5786L175.168 64.1652ZM173.173 78.7002L175.018 77.9279L169.888 65.6729L168.043 66.4452L166.199 67.2175L171.329 79.4725L173.173 78.7002ZM168.043 66.4452L170.041 66.5426C170.16 64.1031 170.578 61.4855 171.309 58.685L169.373 58.1802L167.438 57.6754C166.649 60.7016 166.18 63.5939 166.046 66.3477L168.043 66.4452ZM169.373 58.1802L171.298 58.7241C172.09 55.922 173.126 53.1781 174.408 50.4917L172.603 49.6302L170.798 48.7687C169.421 51.6556 168.304 54.6117 167.449 57.6363L169.373 58.1802ZM172.603 49.6302L174.4 50.5086C175.728 47.7927 177.289 45.3643 179.08 43.2156L177.543 41.9352L176.007 40.6548C173.998 43.066 172.266 45.7677 170.807 48.7518L172.603 49.6302ZM177.543 41.9352L179.08 43.2156C180.834 41.111 182.798 39.4714 184.971 38.2707L184.003 36.5202L183.036 34.7697C180.395 36.229 178.053 38.1994 176.007 40.6548L177.543 41.9352ZM184.003 36.5202L184.986 38.2621C187.155 37.0389 189.476 36.4302 191.983 36.4302V34.4302V32.4302C188.791 32.4302 185.792 33.2149 183.021 34.7782L184.003 36.5202ZM191.983 34.4302V36.4302C195.141 36.4302 197.564 37.2941 199.418 38.8907L200.723 37.3752L202.028 35.8597C199.323 33.5296 195.919 32.4302 191.983 32.4302V34.4302ZM200.723 37.3752L199.464 38.9287C201.509 40.587 203.125 42.8261 204.281 45.718L206.138 44.9752L207.995 44.2324C206.619 40.791 204.624 37.9634 201.983 35.8217L200.723 37.3752ZM206.138 44.9752L204.294 45.7497C205.541 48.7166 206.386 52.0743 206.811 55.8396L208.798 55.6152L210.786 55.3908C210.324 51.3027 209.396 47.5671 207.982 44.2007L206.138 44.9752ZM208.798 55.6152L206.811 55.8396C207.243 59.6664 207.398 63.6243 207.274 67.7146L209.273 67.7752L211.273 67.8358C211.402 63.5661 211.24 59.4174 210.786 55.3908L208.798 55.6152ZM209.273 67.7752L207.274 67.7137C207.15 71.7673 206.838 75.6245 206.342 79.2865L208.323 79.5552L210.305 79.8239C210.822 76.0126 211.144 72.0164 211.272 67.8367L209.273 67.7752ZM173.173 78.7002L173.01 76.7069L160.28 77.7519L160.443 79.7452L160.607 81.7385L173.337 80.6935L173.173 78.7002ZM160.443 79.7452L162.422 80.0352C163.511 72.6073 164.12 65.2706 164.248 58.0256L162.248 57.9902L160.249 57.9548C160.124 65.0231 159.529 72.1897 158.465 79.4552L160.443 79.7452ZM162.248 57.9902L164.248 58.0253C164.376 50.7296 164.088 43.558 163.383 36.5112L161.393 36.7102L159.403 36.9092C160.092 43.7957 160.374 50.8108 160.249 57.9551L162.248 57.9902ZM161.393 36.7102L161.807 38.6669L171.687 36.5769L171.273 34.6202L170.86 32.6635L160.98 34.7535L161.393 36.7102ZM171.273 34.6202L169.295 34.9154C169.924 39.1242 170.393 43.0409 170.706 46.667L172.698 46.4952L174.691 46.3234C174.37 42.6028 173.89 38.6028 173.252 34.325L171.273 34.6202ZM172.698 46.4952L170.709 46.701C171.085 50.3339 171.335 53.8365 171.46 57.2092L173.458 57.1352L175.457 57.0612C175.329 53.5939 175.072 50.0031 174.688 46.2894L172.698 46.4952ZM173.458 57.1352L171.46 57.2106C171.585 60.5283 171.616 63.9428 171.554 67.4545L173.553 67.4902L175.553 67.5259C175.617 63.9442 175.585 60.4555 175.457 57.0598L173.458 57.1352ZM173.553 67.4902L171.554 67.4538C171.491 70.915 171.365 74.6319 171.176 78.6051L173.173 78.7002L175.171 78.7953C175.362 74.7885 175.489 71.0321 175.553 67.5266L173.553 67.4902ZM259.499 78.8902L259.713 80.8788L261.208 80.7186L261.469 79.2378L259.499 78.8902ZM248.764 79.2702L248.693 81.2689L248.694 81.269L248.764 79.2702ZM238.694 77.8452L238.191 79.7808L238.694 77.8452ZM230.239 74.1402L229.11 75.7908L229.12 75.7976L229.13 75.8043L230.239 74.1402ZM230.144 41.0802L231.378 42.6543L231.384 42.65L230.144 41.0802ZM238.029 36.9002L238.624 38.8099L238.637 38.8059L238.65 38.8017L238.029 36.9002ZM257.884 37.9452L256.916 39.6953L256.931 39.7032L256.945 39.7109L257.884 37.9452ZM264.629 43.9302L266.32 42.8622V42.8622L264.629 43.9302ZM266.814 51.3402L264.815 51.2902L264.814 51.3152V51.3402H266.814ZM265.294 57.5152L263.506 56.6208L263.494 56.6434L263.484 56.6663L265.294 57.5152ZM260.449 62.5502L261.442 64.2867L261.45 64.2822L261.457 64.2778L260.449 62.5502ZM246.294 64.0702L246.021 66.0515L246.03 66.0527L246.294 64.0702ZM240.594 63.0252L240.079 64.9577L240.116 64.9676L240.154 64.9761L240.594 63.0252ZM235.179 61.3152L234.425 63.1674L234.455 63.1795L234.485 63.1907L235.179 61.3152ZM230.904 59.0352L229.183 58.0177L228.255 59.5884L229.734 60.6566L230.904 59.0352ZM233.374 54.8552L234.442 53.1642L232.701 52.0641L231.653 53.8377L233.374 54.8552ZM238.124 56.8502L237.567 58.7709L237.575 58.7732L237.583 58.7755L238.124 56.8502ZM250.569 56.9452L251.202 58.8426L251.225 58.835L251.247 58.827L250.569 56.9452ZM254.369 54.2852L255.939 55.5245L255.955 55.505L255.969 55.4852L254.369 54.2852ZM255.034 46.2102L253.207 47.0225V47.0225L255.034 46.2102ZM252.469 43.3602L251.299 44.9816L251.349 45.018L251.401 45.0512L252.469 43.3602ZM241.544 44.3102L242.727 45.923L242.736 45.9164L241.544 44.3102ZM236.794 49.7252L238.518 50.7392L238.525 50.7284L238.531 50.7175L236.794 49.7252ZM236.794 65.4002L235.025 66.3317L235.039 66.3598L235.055 66.3874L236.794 65.4002ZM242.304 70.9102L241.317 72.6496L241.335 72.6598L241.353 72.6696L242.304 70.9102ZM250.474 73.1902L250.637 71.1968V71.1968L250.474 73.1902ZM260.639 72.4302L262.609 72.7778L263.121 69.8743L260.234 70.4717L260.639 72.4302ZM259.499 78.8902L259.286 76.9016C255.835 77.2714 252.351 77.3948 248.835 77.2714L248.764 79.2702L248.694 81.269C252.398 81.3989 256.071 81.269 259.713 80.8788L259.499 78.8902ZM248.764 79.2702L248.836 77.2715C245.423 77.1496 242.212 76.6932 239.198 75.9096L238.694 77.8452L238.191 79.7808C241.51 80.6438 245.013 81.1375 248.693 81.2689L248.764 79.2702ZM238.694 77.8452L239.198 75.9096C236.225 75.1366 233.615 73.9871 231.349 72.4761L230.239 74.1402L229.13 75.8043C231.804 77.5866 234.831 78.9071 238.191 79.7808L238.694 77.8452ZM230.239 74.1402L231.369 72.4896C229.24 71.0333 227.557 69.1314 226.311 66.7522L224.539 67.6802L222.768 68.6082C224.308 71.549 226.425 73.9538 229.11 75.7908L230.239 74.1402ZM224.539 67.6802L226.311 66.7522C225.105 64.4488 224.449 61.5252 224.449 57.8952H222.449H220.449C220.449 61.9918 221.188 65.5916 222.768 68.6082L224.539 67.6802ZM222.449 57.8952H224.449C224.449 54.3385 225.101 51.3642 226.328 48.9096L224.539 48.0152L222.751 47.1208C221.191 50.2395 220.449 53.8519 220.449 57.8952H222.449ZM224.539 48.0152L226.328 48.9096C227.596 46.3752 229.279 44.2998 231.378 42.6543L230.144 41.0802L228.911 39.5061C226.323 41.5339 224.27 44.0818 222.751 47.1208L224.539 48.0152ZM230.144 41.0802L231.384 42.65C233.603 40.8976 236.014 39.6217 238.624 38.8099L238.029 36.9002L237.435 34.9905C234.345 35.952 231.499 37.4628 228.905 39.5104L230.144 41.0802ZM238.029 36.9002L238.65 38.8017C241.373 37.9135 244.077 37.4752 246.769 37.4752V35.4752V33.4752C243.635 33.4752 240.513 33.9869 237.409 34.9987L238.029 36.9002ZM246.769 35.4752V37.4752C250.964 37.4752 254.313 38.2548 256.916 39.6953L257.884 37.9452L258.853 36.1951C255.503 34.3422 251.442 33.4752 246.769 33.4752V35.4752ZM257.884 37.9452L256.945 39.7109C259.672 41.1612 261.636 42.9355 262.939 44.9982L264.629 43.9302L266.32 42.8622C264.583 40.1115 262.051 37.8958 258.824 36.1794L257.884 37.9452ZM264.629 43.9302L262.939 44.9982C264.274 47.1135 264.867 49.1994 264.815 51.2902L266.814 51.3402L268.814 51.3902C268.888 48.4144 268.025 45.5603 266.32 42.8622L264.629 43.9302ZM266.814 51.3402H264.814C264.814 53.0941 264.392 54.848 263.506 56.6208L265.294 57.5152L267.083 58.4096C268.224 56.1291 268.814 53.7663 268.814 51.3402H266.814ZM265.294 57.5152L263.484 56.6663C262.735 58.2632 261.435 59.6597 259.442 60.8226L260.449 62.5502L261.457 64.2778C264.024 62.7807 265.954 60.8205 267.105 58.3641L265.294 57.5152ZM260.449 62.5502L259.457 60.8137C257.663 61.8389 254.985 62.4502 251.234 62.4502V64.4502V66.4502C255.338 66.4502 258.803 65.7948 261.442 64.2867L260.449 62.5502ZM251.234 64.4502V62.4502C249.955 62.4502 248.401 62.3334 246.559 62.0877L246.294 64.0702L246.03 66.0527C247.988 66.3137 249.727 66.4502 251.234 66.4502V64.4502ZM246.294 64.0702L246.568 62.089C244.792 61.844 242.948 61.5062 241.035 61.0743L240.594 63.0252L240.154 64.9761C242.168 65.4308 244.124 65.7897 246.021 66.0514L246.294 64.0702ZM240.594 63.0252L241.11 61.0927C239.266 60.601 237.521 60.0496 235.874 59.4397L235.179 61.3152L234.485 63.1907C236.258 63.8474 238.123 64.4361 240.079 64.9577L240.594 63.0252ZM235.179 61.3152L235.934 59.463C234.328 58.8089 233.053 58.1201 232.075 57.4138L230.904 59.0352L229.734 60.6566C231.036 61.5969 232.61 62.4282 234.425 63.1674L235.179 61.3152ZM230.904 59.0352L232.626 60.0527L235.096 55.8727L233.374 54.8552L231.653 53.8377L229.183 58.0177L230.904 59.0352ZM233.374 54.8552L232.307 56.5462C233.721 57.4394 235.495 58.1693 237.567 58.7709L238.124 56.8502L238.682 54.9295C236.828 54.3911 235.435 53.791 234.442 53.1642L233.374 54.8552ZM238.124 56.8502L237.583 58.7755C239.839 59.4099 242.503 59.7052 245.534 59.7052V57.7052V55.7052C242.74 55.7052 240.464 55.4305 238.666 54.9249L238.124 56.8502ZM245.534 57.7052V59.7052C247.555 59.7052 249.451 59.4263 251.202 58.8426L250.569 56.9452L249.937 55.0478C248.648 55.4774 247.187 55.7052 245.534 55.7052V57.7052ZM250.569 56.9452L251.247 58.827C253.146 58.1432 254.735 57.0494 255.939 55.5245L254.369 54.2852L252.8 53.0459C252.104 53.9276 251.159 54.6072 249.892 55.0634L250.569 56.9452ZM254.369 54.2852L255.969 55.4852C257.219 53.8189 257.794 51.8277 257.794 49.6302H255.794H253.794C253.794 51.1061 253.42 52.2182 252.77 53.0852L254.369 54.2852ZM255.794 49.6302H257.794C257.794 48.1849 257.472 46.7693 256.862 45.3979L255.034 46.2102L253.207 47.0225C253.611 47.9311 253.794 48.7955 253.794 49.6302H255.794ZM255.034 46.2102L256.862 45.3979C256.173 43.8472 255.027 42.6098 253.537 41.6692L252.469 43.3602L251.401 45.0512C252.319 45.6306 252.883 46.2932 253.207 47.0225L255.034 46.2102ZM252.469 43.3602L253.64 41.7388C252.03 40.5759 249.941 40.1252 247.624 40.1252V42.1252V44.1252C249.488 44.1252 250.629 44.4978 251.299 44.9816L252.469 43.3602ZM247.624 42.1252V40.1252C245.036 40.1252 242.6 41.0365 240.353 42.704L241.544 44.3102L242.736 45.9164C244.415 44.6705 246.033 44.1252 247.624 44.1252V42.1252ZM241.544 44.3102L240.362 42.6974C238.217 44.2699 236.452 46.2935 235.058 48.7329L236.794 49.7252L238.531 50.7175C239.67 48.7236 241.072 47.1371 242.727 45.923L241.544 44.3102ZM236.794 49.7252L235.071 48.7112C233.625 51.1681 232.894 53.8293 232.894 56.6602H234.894H236.894C236.894 54.551 237.43 52.5889 238.518 50.7392L236.794 49.7252ZM234.894 56.6602H232.894C232.894 60.323 233.573 63.5732 235.025 66.3317L236.794 65.4002L238.564 64.4687C237.483 62.4138 236.894 59.8374 236.894 56.6602H234.894ZM236.794 65.4002L235.055 66.3874C236.563 69.0448 238.66 71.1413 241.317 72.6496L242.304 70.9102L243.292 69.1708C241.262 68.0191 239.686 66.4423 238.534 64.413L236.794 65.4002ZM242.304 70.9102L241.353 72.6696C243.978 74.0884 246.978 74.9115 250.312 75.1836L250.474 73.1902L250.637 71.1968C247.764 70.9623 245.317 70.2653 243.256 69.1508L242.304 70.9102ZM250.474 73.1902L250.312 75.1836C253.639 75.4552 257.222 75.1797 261.045 74.3887L260.639 72.4302L260.234 70.4717C256.711 71.2007 253.516 71.4319 250.637 71.1968L250.474 73.1902ZM260.639 72.4302L258.67 72.0826L257.53 78.5426L259.499 78.8902L261.469 79.2378L262.609 72.7778L260.639 72.4302ZM310.69 78.7952L310.828 80.7905L312.609 80.6676L312.688 78.884L310.69 78.7952ZM297.01 77.5602L296.348 79.4474L296.363 79.4526L296.378 79.4576L297.01 77.5602ZM288.365 71.6702L286.793 72.9058L286.802 72.9173L286.811 72.9286L288.365 71.6702ZM283.71 61.8852L281.766 62.3555L281.771 62.3741L281.776 62.3926L283.71 61.8852ZM282 48.5852L283.999 48.5083L283.999 48.5053L282 48.5852ZM281.62 35.0952L279.621 35.1246V35.125L281.62 35.0952ZM281.62 10.5852L281.361 8.60215L279.648 8.8266L279.621 10.5539L281.62 10.5852ZM295.395 8.78019L297.383 9.0035L297.668 6.46529L295.136 6.79714L295.395 8.78019ZM293.59 24.6452L291.604 24.4159L291.602 24.4272L291.601 24.4385L293.59 24.6452ZM292.26 38.7052L290.267 38.5368V38.5368L292.26 38.7052ZM291.595 52.1002L293.595 52.1314L293.595 52.1288L291.595 52.1002ZM293.875 61.4102L292.264 62.595L292.273 62.6065L292.281 62.6179L293.875 61.4102ZM300.715 65.5902L300.26 67.5376L300.279 67.5422L300.299 67.5464L300.715 65.5902ZM311.26 65.9702L313.258 66.059L313.36 63.7645L311.074 63.9789L311.26 65.9702ZM308.125 43.5502L307.699 45.5043L309.788 45.9594L310.103 43.8458L308.125 43.5502ZM292.45 42.0302L292.473 44.0301V44.0301L292.45 42.0302ZM276.3 43.4552L274.339 43.8474L274.72 45.7501L276.633 45.4273L276.3 43.4552ZM275.065 37.2802L274.632 35.3278L272.72 35.7525L273.104 37.6724L275.065 37.2802ZM292.64 34.9052L292.536 32.9079L292.535 32.908L292.64 34.9052ZM309.36 35.2852L311.338 35.5808L311.645 33.5296L309.584 33.2977L309.36 35.2852ZM310.69 78.7952L310.553 76.7999C305.196 77.1694 300.92 76.7551 297.643 75.6628L297.01 77.5602L296.378 79.4576C300.321 80.7719 305.165 81.181 310.828 80.7905L310.69 78.7952ZM297.01 77.5602L297.673 75.673C294.37 74.5142 291.813 72.7504 289.92 70.4118L288.365 71.6702L286.811 72.9286C289.224 75.9099 292.431 78.0728 296.348 79.4474L297.01 77.5602ZM288.365 71.6702L289.938 70.4346C288.045 68.0253 286.601 65.0233 285.645 61.3778L283.71 61.8852L281.776 62.3926C282.846 66.4737 284.506 69.9951 286.793 72.9058L288.365 71.6702ZM283.71 61.8852L285.654 61.4149C284.742 57.6421 284.185 53.3439 283.999 48.5083L282 48.5852L280.002 48.6621C280.196 53.7065 280.779 58.275 281.766 62.3555L283.71 61.8852ZM282 48.5852L283.999 48.5053C283.809 43.77 283.683 39.2901 283.62 35.0653L281.62 35.0952L279.621 35.125C279.684 39.3869 279.811 43.9004 280.002 48.6651L282 48.5852ZM281.62 35.0952L283.62 35.0658C283.557 30.7682 283.525 26.6297 283.525 22.6502H281.525H279.525C279.525 26.6507 279.557 30.8089 279.621 35.1246L281.62 35.0952ZM281.525 22.6502H283.525C283.525 18.6708 283.557 14.6595 283.62 10.6164L281.62 10.5852L279.621 10.5539C279.557 14.6175 279.525 18.6496 279.525 22.6502H281.525ZM281.62 10.5852L281.88 12.5682L295.655 10.7632L295.395 8.78019L295.136 6.79714L281.361 8.60215L281.62 10.5852ZM295.395 8.78019L293.408 8.55688C292.775 14.1918 292.173 19.4782 291.604 24.4159L293.59 24.6452L295.577 24.8744C296.147 19.9322 296.749 14.6419 297.383 9.0035L295.395 8.78019ZM293.59 24.6452L291.601 24.4385C291.093 29.3268 290.649 34.0263 290.267 38.5368L292.26 38.7052L294.253 38.8736C294.632 34.3907 295.074 29.7169 295.58 24.8519L293.59 24.6452ZM292.26 38.7052L290.267 38.5368C289.884 43.0791 289.66 47.5908 289.596 52.0716L291.595 52.1002L293.595 52.1288C293.658 47.7429 293.877 43.3246 294.253 38.8736L292.26 38.7052ZM291.595 52.1002L289.596 52.0689C289.529 56.3452 290.319 59.9493 292.264 62.595L293.875 61.4102L295.487 60.2254C294.265 58.5644 293.535 55.9618 293.595 52.1314L291.595 52.1002ZM293.875 61.4102L292.281 62.6179C294.192 65.1397 296.908 66.7532 300.26 67.5376L300.715 65.5902L301.171 63.6428C298.569 63.0339 296.726 61.8607 295.47 60.2025L293.875 61.4102ZM300.715 65.5902L300.299 67.5464C303.528 68.2334 307.256 68.3544 311.447 67.9615L311.26 65.9702L311.074 63.9789C307.158 64.346 303.856 64.2137 301.132 63.634L300.715 65.5902ZM311.26 65.9702L309.262 65.8814L308.692 78.7064L310.69 78.7952L312.688 78.884L313.258 66.059L311.26 65.9702ZM308.125 43.5502L308.551 41.5961C303.451 40.4845 298.075 39.9654 292.427 40.0303L292.45 42.0302L292.473 44.0301C297.846 43.9683 302.919 44.4625 307.699 45.5043L308.125 43.5502ZM292.45 42.0302L292.427 40.0303C286.817 40.0948 281.33 40.5786 275.968 41.483L276.3 43.4552L276.633 45.4273C281.784 44.5585 287.064 44.0922 292.473 44.0301L292.45 42.0302ZM276.3 43.4552L278.262 43.063L277.027 36.888L275.065 37.2802L273.104 37.6724L274.339 43.8474L276.3 43.4552ZM275.065 37.2802L275.499 39.2326C281.088 37.9907 286.836 37.2135 292.746 36.9024L292.64 34.9052L292.535 32.908C286.411 33.2303 280.443 34.0364 274.632 35.3278L275.065 37.2802ZM292.64 34.9052L292.744 36.9025C298.735 36.5905 304.197 36.717 309.137 37.2727L309.36 35.2852L309.584 33.2977C304.39 32.7134 298.705 32.5866 292.536 32.9079L292.64 34.9052ZM309.36 35.2852L307.382 34.9896L306.147 43.2546L308.125 43.5502L310.103 43.8458L311.338 35.5808L309.36 35.2852ZM328.072 79.1752L326.073 79.1164L326.01 81.2614L328.154 81.1735L328.072 79.1752ZM328.357 60.2702L326.358 60.2496L326.357 60.2599V60.2702H328.357ZM328.167 42.3152L326.168 42.3804V42.3804L328.167 42.3152ZM327.312 25.4052L325.317 25.5428L325.317 25.5444L327.312 25.4052ZM325.792 9.44519L325.48 7.46967L323.571 7.77123L323.807 9.69025L325.792 9.44519ZM340.232 7.16519L342.231 7.09782L342.155 4.83684L339.92 5.18967L340.232 7.16519ZM340.802 50.5802L342.802 50.6088L340.802 50.5802ZM340.327 64.0702L338.331 63.9593L338.33 63.9731L338.329 63.9869L340.327 64.0702ZM339.662 78.7002L339.744 80.6985L341.571 80.6237L341.66 78.7976L339.662 78.7002ZM338.902 58.6552L337.125 59.5725L337.896 61.0669L339.501 60.5635L338.902 58.6552ZM335.862 52.7652L335.242 50.864L333.007 51.5936L334.085 53.6825L335.862 52.7652ZM351.157 46.4002L350.198 44.6454L350.186 44.6519L351.157 46.4002ZM360.657 39.6552L362.072 41.0694L362.081 41.0597L362.091 41.0499L360.657 39.6552ZM365.407 32.6252L363.547 31.8909L363.542 31.9041L363.537 31.9174L365.407 32.6252ZM365.882 20.9402L364.036 21.7094V21.7094L365.882 20.9402ZM362.937 17.3302L361.775 18.9577L361.801 18.9764L361.828 18.9943L362.937 17.3302ZM350.397 17.8052L351.238 19.6198L351.248 19.6154L351.257 19.6109L350.397 17.8052ZM343.177 23.5052L341.656 22.2067V22.2067L343.177 23.5052ZM337.952 33.5752L336.025 34.1105L337.854 40.6947L339.864 34.1634L337.952 33.5752ZM336.052 26.7352L334.155 26.1027L333.962 26.6821L334.125 27.2705L336.052 26.7352ZM341.182 16.3802L339.574 15.1914L339.566 15.2028L339.557 15.2144L341.182 16.3802ZM348.212 9.16019L347.031 7.54613L347.022 7.5531L347.012 7.56019L348.212 9.16019ZM355.907 4.88519L356.61 6.75785V6.75785L355.907 4.88519ZM371.772 5.83519L370.673 7.50603V7.50603L371.772 5.83519ZM377.282 12.4852L375.455 13.2975L375.458 13.3052L375.462 13.3128L377.282 12.4852ZM375.097 36.2352L373.393 35.1884L373.388 35.1973L373.382 35.2062L375.097 36.2352ZM362.272 48.4902L361.201 46.8014V46.8014L362.272 48.4902ZM328.072 79.1752L330.072 79.234C330.262 72.7554 330.357 66.4341 330.357 60.2702H328.357H326.357C326.357 66.3929 326.263 72.675 326.073 79.1164L328.072 79.1752ZM328.357 60.2702L330.357 60.2908C330.421 54.1204 330.357 48.1068 330.166 42.25L328.167 42.3152L326.168 42.3804C326.357 48.177 326.421 54.1333 326.358 60.2496L328.357 60.2702ZM328.167 42.3152L330.166 42.25C329.976 36.4003 329.689 30.7389 329.308 25.266L327.312 25.4052L325.317 25.5444C325.695 30.9648 325.979 36.5768 326.168 42.3804L328.167 42.3152ZM327.312 25.4052L329.308 25.2676C328.925 19.7241 328.415 14.3682 327.777 9.20014L325.792 9.44519L323.807 9.69025C324.436 14.7822 324.939 20.0663 325.317 25.5428L327.312 25.4052ZM325.792 9.44519L326.104 11.4207L340.544 9.14072L340.232 7.16519L339.92 5.18967L325.48 7.46967L325.792 9.44519ZM340.232 7.16519L338.234 7.23257C338.423 12.8646 338.582 18.1475 338.708 23.0815L340.707 23.0302L342.707 22.9789C342.58 18.0329 342.421 12.7391 342.231 7.09782L340.232 7.16519ZM340.707 23.0302L338.708 23.0815C338.834 28.006 338.897 32.7072 338.897 37.1852H340.897H342.897C342.897 32.6699 342.834 27.9344 342.707 22.9789L340.707 23.0302ZM340.897 37.1852H338.897C338.897 41.6725 338.866 46.1279 338.803 50.5516L340.802 50.5802L342.802 50.6088C342.866 46.1658 342.897 41.6913 342.897 37.1852H340.897ZM340.802 50.5802L338.803 50.5516C338.74 54.9567 338.582 59.4259 338.331 63.9593L340.327 64.0702L342.324 64.1811C342.579 59.5945 342.738 55.0704 342.802 50.6088L340.802 50.5802ZM340.327 64.0702L338.329 63.9869C338.139 68.5416 337.918 73.4135 337.665 78.6028L339.662 78.7002L341.66 78.7976C341.914 73.6002 342.135 68.7188 342.326 64.1535L340.327 64.0702ZM339.662 78.7002L339.581 76.7019L327.991 77.1769L328.072 79.1752L328.154 81.1735L339.744 80.6985L339.662 78.7002ZM338.902 58.6552L340.68 57.7379L337.64 51.8479L335.862 52.7652L334.085 53.6825L337.125 59.5725L338.902 58.6552ZM335.862 52.7652L336.483 54.6664C342.764 52.6155 347.991 50.4474 352.129 48.1485L351.157 46.4002L350.186 44.6519C346.344 46.7863 341.374 48.8616 335.242 50.864L335.862 52.7652ZM351.157 46.4002L352.117 48.1549C356.272 45.8829 359.613 43.5282 362.072 41.0694L360.657 39.6552L359.243 38.241C357.142 40.3421 354.15 42.4842 350.198 44.6455L351.157 46.4002ZM360.657 39.6552L362.091 41.0499C364.506 38.5672 366.27 35.9982 367.278 33.333L365.407 32.6252L363.537 31.9174C362.772 33.9388 361.368 36.0565 359.224 38.2605L360.657 39.6552ZM365.407 32.6252L367.268 33.3595C368.295 30.7575 368.832 28.1965 368.832 25.6902H366.832H364.832C364.832 27.6172 364.42 29.6795 363.547 31.8909L365.407 32.6252ZM366.832 25.6902H368.832C368.832 23.7795 368.463 21.9347 367.729 20.171L365.882 20.9402L364.036 21.7094C364.568 22.9857 364.832 24.3076 364.832 25.6902H366.832ZM365.882 20.9402L367.729 20.171C366.948 18.2981 365.716 16.7787 364.047 15.6661L362.937 17.3302L361.828 18.9943C362.819 19.655 363.55 20.5422 364.036 21.7094L365.882 20.9402ZM362.937 17.3302L364.1 15.7027C362.338 14.4439 360.151 13.9052 357.712 13.9052V15.9052V17.9052C359.58 17.9052 360.877 18.3164 361.775 18.9577L362.937 17.3302ZM357.712 15.9052V13.9052C355.117 13.9052 352.382 14.6451 349.538 15.9995L350.397 17.8052L351.257 19.6109C353.733 18.432 355.874 17.9052 357.712 17.9052V15.9052ZM350.397 17.8052L349.556 15.9906C346.653 17.3361 344.024 19.4327 341.656 22.2067L343.177 23.5052L344.699 24.8037C346.764 22.3844 348.948 20.681 351.238 19.6198L350.397 17.8052ZM343.177 23.5052L341.656 22.2067C339.223 25.0577 337.368 28.6753 336.041 32.987L337.952 33.5752L339.864 34.1634C341.071 30.2418 342.699 27.146 344.699 24.8037L343.177 23.5052ZM337.952 33.5752L339.879 33.0399L337.979 26.1999L336.052 26.7352L334.125 27.2705L336.025 34.1105L337.952 33.5752ZM336.052 26.7352L337.95 27.3676C339.227 23.536 340.853 20.2709 342.807 17.546L341.182 16.3802L339.557 15.2144C337.332 18.3162 335.538 21.9544 334.155 26.1027L336.052 26.7352ZM341.182 16.3802L342.791 17.569C344.845 14.7898 347.055 12.5283 349.412 10.7602L348.212 9.16019L347.012 7.56019C344.303 9.59209 341.827 12.1439 339.574 15.1914L341.182 16.3802ZM348.212 9.16019L349.393 10.7743C351.87 8.96218 354.276 7.63313 356.61 6.75785L355.907 4.88519L355.205 3.01254C352.473 4.03725 349.748 5.5582 347.031 7.54613L348.212 9.16019ZM355.907 4.88519L356.61 6.75785C358.966 5.87407 361.102 5.46019 363.032 5.46019V3.46019V1.46019C360.53 1.46019 357.915 1.99632 355.205 3.01254L355.907 4.88519ZM363.032 3.46019V5.46019C366.136 5.46019 368.65 6.17494 370.673 7.50603L371.772 5.83519L372.872 4.16436C370.082 2.32877 366.769 1.46019 363.032 1.46019V3.46019ZM371.772 5.83519L370.673 7.50603C372.733 8.86141 374.33 10.7674 375.455 13.2975L377.282 12.4852L379.11 11.6729C377.701 8.50302 375.625 5.97564 372.872 4.16436L371.772 5.83519ZM377.282 12.4852L375.462 13.3128C376.591 15.7971 377.182 18.7051 377.182 22.0802H379.182H381.182C381.182 18.2353 380.507 14.7466 379.103 11.6576L377.282 12.4852ZM379.182 22.0802H377.182C377.182 26.6988 375.931 31.0568 373.393 35.1884L375.097 36.2352L376.802 37.282C379.71 32.547 381.182 27.4683 381.182 22.0802H379.182ZM375.097 36.2352L373.382 35.2062C370.929 39.296 366.915 43.1761 361.201 46.8014L362.272 48.4902L363.344 50.179C369.409 46.331 373.946 42.0411 376.812 37.2642L375.097 36.2352ZM362.272 48.4902L361.201 46.8014C355.509 50.4127 347.896 53.7377 338.304 56.7469L338.902 58.6552L339.501 60.5635C349.289 57.4927 357.256 54.041 363.344 50.179L362.272 48.4902ZM418.131 78.8902L418.344 80.8788L419.839 80.7186L420.101 79.2378L418.131 78.8902ZM407.396 79.2702L407.325 81.2689L407.326 81.269L407.396 79.2702ZM397.326 77.8452L396.823 79.7808L397.326 77.8452ZM388.871 74.1402L387.742 75.7908L387.752 75.7976L387.762 75.8043L388.871 74.1402ZM388.776 41.0802L390.01 42.6543L390.015 42.65L388.776 41.0802ZM396.661 36.9002L397.255 38.8099L397.268 38.8059L397.281 38.8017L396.661 36.9002ZM416.516 37.9452L415.548 39.6953L415.562 39.7032L415.577 39.7109L416.516 37.9452ZM423.261 43.9302L424.952 42.8622V42.8622L423.261 43.9302ZM425.446 51.3402L423.447 51.2902L423.446 51.3152V51.3402H425.446ZM423.926 57.5152L422.137 56.6208L422.126 56.6434L422.115 56.6663L423.926 57.5152ZM419.081 62.5502L420.073 64.2867L420.081 64.2822L420.089 64.2778L419.081 62.5502ZM404.926 64.0702L404.653 66.0515L404.662 66.0527L404.926 64.0702ZM399.226 63.0252L398.711 64.9577L398.748 64.9676L398.785 64.9761L399.226 63.0252ZM393.811 61.3152L393.056 63.1674L393.086 63.1795L393.116 63.1907L393.811 61.3152ZM389.536 59.0352L387.814 58.0177L386.886 59.5884L388.365 60.6566L389.536 59.0352ZM392.006 54.8552L393.074 53.1642L391.332 52.0641L390.284 53.8377L392.006 54.8552ZM396.756 56.8502L396.198 58.7709L396.206 58.7732L396.214 58.7755L396.756 56.8502ZM409.201 56.9452L409.833 58.8426L409.856 58.835L409.878 58.827L409.201 56.9452ZM413.001 54.2852L414.571 55.5245L414.586 55.505L414.601 55.4852L413.001 54.2852ZM413.666 46.2102L411.838 47.0225V47.0225L413.666 46.2102ZM411.101 43.3602L409.93 44.9816L409.98 45.018L410.033 45.0512L411.101 43.3602ZM400.176 44.3102L401.359 45.923L401.368 45.9164L400.176 44.3102ZM395.426 49.7252L397.15 50.7392L397.156 50.7284L397.162 50.7175L395.426 49.7252ZM395.426 65.4002L393.656 66.3317L393.671 66.3598L393.687 66.3874L395.426 65.4002ZM400.936 70.9102L399.949 72.6496L399.967 72.6598L399.985 72.6696L400.936 70.9102ZM409.106 73.1902L409.269 71.1968V71.1968L409.106 73.1902ZM419.271 72.4302L421.241 72.7778L421.753 69.8743L418.866 70.4717L419.271 72.4302ZM418.131 78.8902L417.918 76.9016C414.466 77.2714 410.983 77.3948 407.466 77.2714L407.396 79.2702L407.326 81.269C411.029 81.3989 414.702 81.269 418.344 80.8788L418.131 78.8902ZM407.396 79.2702L407.467 77.2715C404.054 77.1496 400.843 76.6932 397.829 75.9096L397.326 77.8452L396.823 79.7808C400.142 80.6438 403.644 81.1375 407.325 81.2689L407.396 79.2702ZM397.326 77.8452L397.829 75.9096C394.856 75.1366 392.247 73.9871 389.98 72.4761L388.871 74.1402L387.762 75.8043C390.435 77.5866 393.462 78.9071 396.823 79.7808L397.326 77.8452ZM388.871 74.1402L390 72.4896C387.872 71.0333 386.189 69.1314 384.943 66.7522L383.171 67.6802L381.399 68.6082C382.94 71.549 385.057 73.9538 387.742 75.7908L388.871 74.1402ZM383.171 67.6802L384.943 66.7522C383.736 64.4488 383.081 61.5252 383.081 57.8952H381.081H379.081C379.081 61.9918 379.819 65.5916 381.399 68.6082L383.171 67.6802ZM381.081 57.8952H383.081C383.081 54.3385 383.733 51.3642 384.96 48.9096L383.171 48.0152L381.382 47.1208C379.823 50.2395 379.081 53.8519 379.081 57.8952H381.081ZM383.171 48.0152L384.96 48.9096C386.227 46.3752 387.91 44.2998 390.01 42.6543L388.776 41.0802L387.542 39.5061C384.955 41.5339 382.902 44.0818 381.382 47.1208L383.171 48.0152ZM388.776 41.0802L390.015 42.65C392.235 40.8976 394.646 39.6217 397.255 38.8099L396.661 36.9002L396.067 34.9905C392.976 35.952 390.13 37.4628 387.537 39.5104L388.776 41.0802ZM396.661 36.9002L397.281 38.8017C400.005 37.9135 402.709 37.4752 405.401 37.4752V35.4752V33.4752C402.266 33.4752 399.144 33.9869 396.041 34.9987L396.661 36.9002ZM405.401 35.4752V37.4752C409.595 37.4752 412.944 38.2548 415.548 39.6953L416.516 37.9452L417.484 36.1951C414.135 34.3422 410.073 33.4752 405.401 33.4752V35.4752ZM416.516 37.9452L415.577 39.7109C418.303 41.1612 420.267 42.9355 421.57 44.9982L423.261 43.9302L424.952 42.8622C423.215 40.1115 420.682 37.8958 417.455 36.1794L416.516 37.9452ZM423.261 43.9302L421.57 44.9982C422.906 47.1135 423.499 49.1994 423.447 51.2902L425.446 51.3402L427.445 51.3902C427.52 48.4144 426.656 45.5603 424.952 42.8622L423.261 43.9302ZM425.446 51.3402H423.446C423.446 53.0941 423.023 54.848 422.137 56.6208L423.926 57.5152L425.715 58.4096C426.855 56.1291 427.446 53.7663 427.446 51.3402H425.446ZM423.926 57.5152L422.115 56.6663C421.367 58.2632 420.067 59.6597 418.073 60.8226L419.081 62.5502L420.089 64.2778C422.655 62.7807 424.585 60.8205 425.737 58.3641L423.926 57.5152ZM419.081 62.5502L418.089 60.8137C416.295 61.8389 413.616 62.4502 409.866 62.4502V64.4502V66.4502C413.969 66.4502 417.434 65.7948 420.073 64.2867L419.081 62.5502ZM409.866 64.4502V62.4502C408.587 62.4502 407.033 62.3334 405.19 62.0877L404.926 64.0702L404.662 66.0527C406.619 66.3137 408.358 66.4502 409.866 66.4502V64.4502ZM404.926 64.0702L405.199 62.089C403.423 61.844 401.579 61.5062 399.666 61.0743L399.226 63.0252L398.785 64.9761C400.799 65.4308 402.755 65.7897 404.653 66.0514L404.926 64.0702ZM399.226 63.0252L399.741 61.0927C397.897 60.601 396.152 60.0496 394.506 59.4397L393.811 61.3152L393.116 63.1907C394.89 63.8474 396.755 64.4361 398.711 64.9577L399.226 63.0252ZM393.811 61.3152L394.566 59.463C392.96 58.8089 391.685 58.1201 390.707 57.4138L389.536 59.0352L388.365 60.6566C389.667 61.5969 391.242 62.4282 393.056 63.1674L393.811 61.3152ZM389.536 59.0352L391.258 60.0527L393.728 55.8727L392.006 54.8552L390.284 53.8377L387.814 58.0177L389.536 59.0352ZM392.006 54.8552L390.938 56.5462C392.352 57.4394 394.126 58.1693 396.198 58.7709L396.756 56.8502L397.314 54.9295C395.459 54.3911 394.066 53.791 393.074 53.1642L392.006 54.8552ZM396.756 56.8502L396.214 58.7755C398.47 59.4099 401.134 59.7052 404.166 59.7052V57.7052V55.7052C401.371 55.7052 399.095 55.4305 397.297 54.9249L396.756 56.8502ZM404.166 57.7052V59.7052C406.187 59.7052 408.082 59.4263 409.833 58.8426L409.201 56.9452L408.568 55.0478C407.28 55.4774 405.819 55.7052 404.166 55.7052V57.7052ZM409.201 56.9452L409.878 58.827C411.778 58.1432 413.367 57.0494 414.571 55.5245L413.001 54.2852L411.431 53.0459C410.735 53.9276 409.791 54.6072 408.523 55.0634L409.201 56.9452ZM413.001 54.2852L414.601 55.4852C415.851 53.8189 416.426 51.8277 416.426 49.6302H414.426H412.426C412.426 51.1061 412.051 52.2182 411.401 53.0852L413.001 54.2852ZM414.426 49.6302H416.426C416.426 48.1849 416.103 46.7693 415.494 45.3979L413.666 46.2102L411.838 47.0225C412.242 47.9311 412.426 48.7955 412.426 49.6302H414.426ZM413.666 46.2102L415.494 45.3979C414.804 43.8472 413.658 42.6098 412.169 41.6692L411.101 43.3602L410.033 45.0512C410.95 45.6306 411.514 46.2932 411.838 47.0225L413.666 46.2102ZM411.101 43.3602L412.272 41.7388C410.662 40.5759 408.572 40.1252 406.256 40.1252V42.1252V44.1252C408.12 44.1252 409.26 44.4978 409.93 44.9816L411.101 43.3602ZM406.256 42.1252V40.1252C403.667 40.1252 401.232 41.0365 398.984 42.704L400.176 44.3102L401.368 45.9164C403.047 44.6705 404.665 44.1252 406.256 44.1252V42.1252ZM400.176 44.3102L398.993 42.6974C396.849 44.2699 395.083 46.2935 393.689 48.7329L395.426 49.7252L397.162 50.7175C398.302 48.7236 399.703 47.1371 401.359 45.923L400.176 44.3102ZM395.426 49.7252L393.702 48.7112C392.257 51.1681 391.526 53.8293 391.526 56.6602H393.526H395.526C395.526 54.551 396.062 52.5889 397.15 50.7392L395.426 49.7252ZM393.526 56.6602H391.526C391.526 60.323 392.204 63.5732 393.656 66.3317L395.426 65.4002L397.196 64.4687C396.114 62.4138 395.526 59.8374 395.526 56.6602H393.526ZM395.426 65.4002L393.687 66.3874C395.195 69.0448 397.291 71.1413 399.949 72.6496L400.936 70.9102L401.923 69.1708C399.894 68.0191 398.317 66.4423 397.165 64.413L395.426 65.4002ZM400.936 70.9102L399.985 72.6696C402.61 74.0884 405.61 74.9115 408.943 75.1836L409.106 73.1902L409.269 71.1968C406.395 70.9623 403.949 70.2653 401.887 69.1508L400.936 70.9102ZM409.106 73.1902L408.943 75.1836C412.271 75.4552 415.853 75.1797 419.676 74.3887L419.271 72.4302L418.866 70.4717C415.342 71.2007 412.148 71.4319 409.269 71.1968L409.106 73.1902ZM419.271 72.4302L417.301 72.0826L416.161 78.5426L418.131 78.8902L420.101 79.2378L421.241 72.7778L419.271 72.4302ZM469.322 78.7952L469.459 80.7905L471.241 80.6676L471.32 78.884L469.322 78.7952ZM455.642 77.5602L454.98 79.4474L454.994 79.4526L455.009 79.4576L455.642 77.5602ZM446.997 71.6702L445.424 72.9058L445.433 72.9173L445.442 72.9286L446.997 71.6702ZM442.342 61.8852L440.398 62.3555L440.402 62.3741L440.407 62.3926L442.342 61.8852ZM440.632 48.5852L442.63 48.5083L442.63 48.5053L440.632 48.5852ZM440.252 35.0952L438.252 35.1246V35.125L440.252 35.0952ZM440.252 10.5852L439.992 8.60215L438.279 8.8266L438.252 10.5539L440.252 10.5852ZM454.027 8.78019L456.014 9.0035L456.3 6.46529L453.767 6.79714L454.027 8.78019ZM452.222 24.6452L450.235 24.4159L450.234 24.4272L450.233 24.4385L452.222 24.6452ZM450.892 38.7052L448.899 38.5368V38.5368L450.892 38.7052ZM450.227 52.1002L452.227 52.1314L452.227 52.1288L450.227 52.1002ZM452.507 61.4102L450.896 62.595L450.904 62.6065L450.913 62.6179L452.507 61.4102ZM459.347 65.5902L458.891 67.5376L458.911 67.5422L458.931 67.5464L459.347 65.5902ZM469.892 65.9702L471.89 66.059L471.992 63.7645L469.705 63.9789L469.892 65.9702ZM466.757 43.5502L466.331 45.5043L468.419 45.9594L468.735 43.8458L466.757 43.5502ZM451.082 42.0302L451.105 44.0301V44.0301L451.082 42.0302ZM434.932 43.4552L432.971 43.8474L433.351 45.7501L435.264 45.4273L434.932 43.4552ZM433.697 37.2802L433.263 35.3278L431.352 35.7525L431.736 37.6724L433.697 37.2802ZM451.272 34.9052L451.168 32.9079L451.167 32.908L451.272 34.9052ZM467.992 35.2852L469.97 35.5808L470.276 33.5296L468.215 33.2977L467.992 35.2852ZM469.322 78.7952L469.184 76.7999C463.827 77.1694 459.551 76.7551 456.274 75.6628L455.642 77.5602L455.009 79.4576C458.952 80.7719 463.797 81.181 469.459 80.7905L469.322 78.7952ZM455.642 77.5602L456.304 75.673C453.002 74.5142 450.445 72.7504 448.551 70.4118L446.997 71.6702L445.442 72.9286C447.856 75.9099 451.062 78.0728 454.98 79.4474L455.642 77.5602ZM446.997 71.6702L448.569 70.4346C446.676 68.0253 445.233 65.0233 444.276 61.3778L442.342 61.8852L440.407 62.3926C441.478 66.4737 443.137 69.9951 445.424 72.9058L446.997 71.6702ZM442.342 61.8852L444.286 61.4149C443.373 57.6421 442.816 53.3439 442.63 48.5083L440.632 48.5852L438.633 48.6621C438.827 53.7065 439.411 58.275 440.398 62.3555L442.342 61.8852ZM440.632 48.5852L442.63 48.5053C442.441 43.77 442.315 39.2901 442.252 35.0653L440.252 35.0952L438.252 35.125C438.316 39.3869 438.443 43.9004 438.633 48.6651L440.632 48.5852ZM440.252 35.0952L442.252 35.0658C442.188 30.7682 442.157 26.6297 442.157 22.6502H440.157H438.157C438.157 26.6507 438.189 30.8089 438.252 35.1246L440.252 35.0952ZM440.157 22.6502H442.157C442.157 18.6708 442.188 14.6595 442.252 10.6164L440.252 10.5852L438.252 10.5539C438.189 14.6175 438.157 18.6496 438.157 22.6502H440.157ZM440.252 10.5852L440.512 12.5682L454.287 10.7632L454.027 8.78019L453.767 6.79714L439.992 8.60215L440.252 10.5852ZM454.027 8.78019L452.039 8.55688C451.406 14.1918 450.805 19.4782 450.235 24.4159L452.222 24.6452L454.209 24.8744C454.779 19.9322 455.381 14.6419 456.014 9.0035L454.027 8.78019ZM452.222 24.6452L450.233 24.4385C449.725 29.3268 449.28 34.0263 448.899 38.5368L450.892 38.7052L452.885 38.8736C453.264 34.3907 453.706 29.7169 454.211 24.8519L452.222 24.6452ZM450.892 38.7052L448.899 38.5368C448.515 43.0791 448.291 47.5908 448.227 52.0716L450.227 52.1002L452.227 52.1288C452.289 47.7429 452.509 43.3246 452.885 38.8736L450.892 38.7052ZM450.227 52.1002L448.227 52.0689C448.16 56.3452 448.95 59.9493 450.896 62.595L452.507 61.4102L454.118 60.2254C452.897 58.5644 452.167 55.9618 452.227 52.1314L450.227 52.1002ZM452.507 61.4102L450.913 62.6179C452.823 65.1397 455.539 66.7532 458.891 67.5376L459.347 65.5902L459.803 63.6428C457.201 63.0339 455.357 61.8607 454.101 60.2025L452.507 61.4102ZM459.347 65.5902L458.931 67.5464C462.159 68.2334 465.887 68.3544 470.079 67.9615L469.892 65.9702L469.705 63.9789C465.79 64.346 462.488 64.2137 459.763 63.634L459.347 65.5902ZM469.892 65.9702L467.894 65.8814L467.324 78.7064L469.322 78.7952L471.32 78.884L471.89 66.059L469.892 65.9702ZM466.757 43.5502L467.183 41.5961C462.083 40.4845 456.706 39.9654 451.059 40.0303L451.082 42.0302L451.105 44.0301C456.477 43.9683 461.551 44.4625 466.331 45.5043L466.757 43.5502ZM451.082 42.0302L451.059 40.0303C445.449 40.0948 439.962 40.5786 434.599 41.483L434.932 43.4552L435.264 45.4273C440.415 44.5585 445.695 44.0922 451.105 44.0301L451.082 42.0302ZM434.932 43.4552L436.893 43.063L435.658 36.888L433.697 37.2802L431.736 37.6724L432.971 43.8474L434.932 43.4552ZM433.697 37.2802L434.131 39.2326C439.719 37.9907 445.467 37.2135 451.377 36.9024L451.272 34.9052L451.167 32.908C445.043 33.2303 439.074 34.0364 433.263 35.3278L433.697 37.2802ZM451.272 34.9052L451.376 36.9025C457.367 36.5905 462.829 36.717 467.768 37.2727L467.992 35.2852L468.215 33.2977C463.022 32.7134 457.337 32.5866 451.168 32.9079L451.272 34.9052ZM467.992 35.2852L466.014 34.9896L464.779 43.2546L466.757 43.5502L468.735 43.8458L469.97 35.5808L467.992 35.2852ZM493.734 78.2252L493.922 80.2164L495.543 80.0634L495.722 78.445L493.734 78.2252ZM483.664 79.1752L481.667 79.0701L481.545 81.384L483.852 81.1664L483.664 79.1752ZM484.329 60.5552L482.329 60.5156V60.5156L484.329 60.5552ZM483.949 22.2702L485.947 22.1886L483.949 22.2702ZM482.809 4.41019L482.505 2.43345L480.651 2.7187L480.817 4.58727L482.809 4.41019ZM496.394 2.32019L498.393 2.25639L498.321 0.000205994L496.09 0.343452L496.394 2.32019ZM496.394 39.3702L494.395 39.3108L494.395 39.3205L496.394 39.3702ZM493.734 78.2252L493.546 76.234L483.476 77.184L483.664 79.1752L483.852 81.1664L493.922 80.2164L493.734 78.2252ZM483.664 79.1752L485.661 79.2803C485.979 73.2405 486.201 67.012 486.328 60.5948L484.329 60.5552L482.329 60.5156C482.203 66.8917 481.982 73.0765 481.667 79.0701L483.664 79.1752ZM484.329 60.5552L486.328 60.5948C486.456 54.1782 486.487 47.7301 486.424 41.2506L484.424 41.2702L482.424 41.2898C482.487 47.7303 482.456 54.1389 482.329 60.5156L484.329 60.5552ZM484.424 41.2702L486.424 41.2506C486.36 34.7707 486.201 28.4167 485.947 22.1886L483.949 22.2702L481.951 22.3518C482.203 28.537 482.361 34.8496 482.424 41.2898L484.424 41.2702ZM483.949 22.2702L485.947 22.1886C485.693 15.9527 485.311 9.96745 484.801 4.23311L482.809 4.41019L480.817 4.58727C481.32 10.2529 481.698 16.1743 481.951 22.3518L483.949 22.2702ZM482.809 4.41019L483.113 6.38693L496.698 4.29694L496.394 2.32019L496.09 0.343452L482.505 2.43345L482.809 4.41019ZM496.394 2.32019L494.395 2.38399C494.773 14.2467 494.774 26.5555 494.395 39.3108L496.394 39.3702L498.393 39.4296C498.774 26.5982 498.774 14.207 498.393 2.25639L496.394 2.32019ZM496.394 39.3702L494.395 39.3205C494.079 51.9914 493.197 64.8863 491.746 78.0054L493.734 78.2252L495.722 78.445C497.184 65.2175 498.075 52.209 498.393 39.4199L496.394 39.3702ZM511.335 100.455L509.5 99.66L508.664 101.589L510.633 102.328L511.335 100.455ZM516.275 89.0552L517.454 87.4399L515.434 85.965L514.44 88.26L516.275 89.0552ZM527.58 95.5152L528.328 93.6605L528.32 93.6571L528.311 93.6537L527.58 95.5152ZM537.27 97.0352L536.969 95.0579L536.962 95.059L537.27 97.0352ZM544.49 92.4752L546.104 93.6562V93.6562L544.49 92.4752ZM548.385 81.0752L550.366 81.351L550.367 81.3454L548.385 81.0752ZM549.145 73.2852L547.151 73.1278L547.149 73.1539L547.148 73.1801L549.145 73.2852ZM549.335 66.0652H547.335V66.0915L547.336 66.1178L549.335 66.0652ZM549.145 58.0852L551.143 57.9964V57.9964L549.145 58.0852ZM548.67 48.4902L546.673 48.5953L546.673 48.5972L548.67 48.4902ZM548.1 35.9502L547.625 34.0073L546.036 34.3955L546.101 36.0301L548.1 35.9502ZM560.545 32.9102L562.544 32.8443L562.463 30.3829L560.07 30.9673L560.545 32.9102ZM560.735 50.2002L562.735 50.2222V50.2222L560.735 50.2002ZM560.07 66.9202L562.065 67.0627L562.065 67.061L560.07 66.9202ZM558.265 81.7402L556.297 81.3848L556.294 81.3984L558.265 81.7402ZM552.47 96.4652L550.887 95.2431L550.88 95.2519L550.873 95.2607L552.47 96.4652ZM542.21 103.875L541.595 101.972L541.586 101.975L542.21 103.875ZM528.245 104.825L528.508 102.843L528.497 102.841L528.487 102.84L528.245 104.825ZM521.025 76.9902L519.744 78.5266L519.757 78.5373L519.77 78.5477L521.025 76.9902ZM515.61 69.4852L513.758 70.241L513.765 70.2571L513.772 70.273L515.61 69.4852ZM512.95 59.0352L510.963 59.2632L510.965 59.2793L510.967 59.2953L512.95 59.0352ZM512.475 47.1602L514.474 47.2227V47.2217L512.475 47.1602ZM513.425 35.3802L513.368 33.381L511.671 33.4295L511.443 35.1115L513.425 35.3802ZM526.725 35.0002L528.676 35.4376L529.239 32.9275L526.668 33.001L526.725 35.0002ZM524.825 45.9252L526.809 46.1733L526.81 46.169L524.825 45.9252ZM525.205 64.7352L523.254 65.1742L523.26 65.2032L523.268 65.2319L525.205 64.7352ZM527.96 70.6252L529.502 69.3514V69.3514L527.96 70.6252ZM538.03 69.9602L539.516 71.2981V71.2981L538.03 69.9602ZM542.685 62.1702L544.527 62.9495L544.532 62.937L542.685 62.1702ZM546.105 50.4852L544.148 50.0718L544.146 50.0824L544.144 50.093L546.105 50.4852ZM548.1 35.9502L549.955 35.2025L546.105 35.8042L548.1 35.9502ZM553.04 48.2052L555.037 48.3026L555.059 47.8644L554.895 47.4575L553.04 48.2052ZM551.71 56.4702L553.642 56.9855L553.645 56.975L551.71 56.4702ZM548.575 64.9252L546.77 64.0637L546.762 64.0806L546.754 64.0976L548.575 64.9252ZM543.92 72.4302L545.46 73.7062V73.7062L543.92 72.4302ZM537.555 77.7502L536.587 75.9997L536.578 76.0052L536.568 76.0108L537.555 77.7502ZM511.335 100.455L513.17 101.25L518.11 89.8504L516.275 89.0552L514.44 88.26L509.5 99.66L511.335 100.455ZM516.275 89.0552L515.095 90.6704C519.185 93.6566 523.104 95.9055 526.849 97.3767L527.58 95.5152L528.311 93.6537C524.963 92.3382 521.344 90.2804 517.454 87.4399L516.275 89.0552ZM527.58 95.5152L526.831 97.3699C530.663 98.916 534.267 99.5263 537.577 99.0114L537.27 97.0352L536.962 95.059C534.573 95.4307 531.717 95.0277 528.328 93.6605L527.58 95.5152ZM537.27 97.0352L537.571 99.0124C541.061 98.4813 543.921 96.639 546.104 93.6562L544.49 92.4752L542.876 91.2942C541.258 93.5047 539.305 94.7025 536.969 95.058L537.27 97.0352ZM544.49 92.4752L546.104 93.6562C548.28 90.6827 549.647 86.5131 550.366 81.351L548.385 81.0752L546.404 80.7994C545.729 85.644 544.5 89.0743 542.876 91.2942L544.49 92.4752ZM548.385 81.0752L550.367 81.3454C550.753 78.5127 551.012 75.8604 551.142 73.3903L549.145 73.2852L547.148 73.1801C547.024 75.5233 546.777 78.0643 546.403 80.805L548.385 81.0752ZM549.145 73.2852L551.139 73.4426C551.334 70.9663 551.399 68.4895 551.334 66.0126L549.335 66.0652L547.336 66.1178C547.397 68.4542 547.336 70.7908 547.151 73.1278L549.145 73.2852ZM549.335 66.0652H551.335C551.335 63.5615 551.271 60.8716 551.143 57.9964L549.145 58.0852L547.147 58.174C547.272 60.9988 547.335 63.6289 547.335 66.0652H549.335ZM549.145 58.0852L551.143 57.9964C551.016 55.1391 550.857 51.9345 550.667 48.3832L548.67 48.4902L546.673 48.5972C546.862 52.1392 547.021 55.3313 547.147 58.174L549.145 58.0852ZM548.67 48.4902L550.667 48.3851C550.478 44.7856 550.288 40.6143 550.098 35.8703L548.1 35.9502L546.101 36.0301C546.292 40.7861 546.482 44.9748 546.673 48.5953L548.67 48.4902ZM548.1 35.9502L548.574 37.8931L561.019 34.8531L560.545 32.9102L560.07 30.9673L547.625 34.0073L548.1 35.9502ZM560.545 32.9102L558.546 32.9761C558.735 38.7102 558.798 44.4442 558.735 50.1782L560.735 50.2002L562.735 50.2222C562.798 44.4295 562.735 38.6369 562.544 32.8443L560.545 32.9102ZM560.735 50.2002L558.735 50.1782C558.672 55.9045 558.452 61.4382 558.075 66.7794L560.07 66.9202L562.065 67.061C562.448 61.6356 562.671 56.0225 562.735 50.2222L560.735 50.2002ZM560.07 66.9202L558.075 66.7777C557.699 72.0367 557.106 76.9048 556.297 81.3848L558.265 81.7402L560.233 82.0956C561.071 77.4556 561.68 72.4437 562.065 67.0627L560.07 66.9202ZM558.265 81.7402L556.294 81.3984C555.253 87.4003 553.413 91.9699 550.887 95.2431L552.47 96.4652L554.053 97.6873C557.1 93.7405 559.123 88.4934 560.235 82.082L558.265 81.7402ZM552.47 96.4652L550.873 95.2607C548.386 98.5582 545.302 100.774 541.595 101.972L542.21 103.875L542.825 105.778C547.351 104.316 551.107 101.592 554.066 97.6697L552.47 96.4652ZM542.21 103.875L541.586 101.975C537.879 103.191 533.537 103.509 528.508 102.843L528.245 104.825L527.982 106.808C533.466 107.535 538.434 107.219 542.833 105.776L542.21 103.875ZM528.245 104.825L528.487 102.84C523.483 102.23 518.003 100.82 512.037 98.5825L511.335 100.455L510.633 102.328C516.827 104.651 522.62 106.154 528.003 106.81L528.245 104.825ZM529.765 79.7452V77.7452C526.575 77.7452 524.133 76.9261 522.279 75.4327L521.025 76.9902L519.77 78.5477C522.476 80.7276 525.862 81.7452 529.765 81.7452V79.7452ZM521.025 76.9902L522.305 75.4538C520.299 73.782 518.671 71.5508 517.448 68.6974L515.61 69.4852L513.772 70.273C515.209 73.6262 517.191 76.3984 519.744 78.5266L521.025 76.9902ZM515.61 69.4852L517.462 68.7294C516.269 65.8083 515.421 62.4951 514.933 58.7751L512.95 59.0352L510.967 59.2953C511.492 63.3019 512.417 66.9555 513.758 70.241L515.61 69.4852ZM512.95 59.0352L514.937 58.8072C514.505 55.0443 514.35 51.1831 514.474 47.2227L512.475 47.1602L510.476 47.0977C510.346 51.2439 510.508 55.2994 510.963 59.2632L512.95 59.0352ZM512.475 47.1602L514.474 47.2217C514.599 43.1681 514.91 39.3109 515.407 35.6489L513.425 35.3802L511.443 35.1115C510.926 38.9228 510.604 42.919 510.476 47.0987L512.475 47.1602ZM513.425 35.3802L513.482 37.3794L526.782 36.9994L526.725 35.0002L526.668 33.001L513.368 33.381L513.425 35.3802ZM526.725 35.0002L524.773 34.5628C523.936 38.2978 523.291 42.0041 522.84 45.6814L524.825 45.9252L526.81 46.169C527.245 42.6263 527.867 39.0492 528.676 35.4376L526.725 35.0002ZM524.825 45.9252L522.84 45.6771C522.386 49.3092 522.19 52.7939 522.255 56.1294L524.255 56.0902L526.254 56.051C526.193 52.9265 526.377 49.6346 526.809 46.1733L524.825 45.9252ZM524.255 56.0902L522.255 56.1294C522.321 59.4629 522.648 62.4824 523.254 65.1742L525.205 64.7352L527.156 64.2962C526.622 61.9214 526.316 59.1775 526.254 56.051L524.255 56.0902ZM525.205 64.7352L523.268 65.2319C523.95 67.8924 524.974 70.1508 526.418 71.899L527.96 70.6252L529.502 69.3514C528.539 68.1863 527.727 66.5179 527.142 64.2384L525.205 64.7352ZM527.96 70.6252L526.418 71.899C527.989 73.8003 530.067 74.8102 532.52 74.8102V72.8102V70.8102C531.299 70.8102 530.338 70.3634 529.502 69.3514L527.96 70.6252ZM532.52 72.8102V74.8102C535.209 74.8102 537.549 73.4847 539.516 71.2981L538.03 69.9602L536.543 68.6223C535.091 70.2357 533.757 70.8102 532.52 70.8102V72.8102ZM538.03 69.9602L539.516 71.2981C541.421 69.1815 543.079 66.3722 544.527 62.9495L542.685 62.1702L540.843 61.3909C539.504 64.5548 538.058 66.9389 536.543 68.6223L538.03 69.9602ZM542.685 62.1702L544.532 62.937C545.986 59.4344 547.16 55.4094 548.066 50.8774L546.105 50.4852L544.144 50.093C543.277 54.4277 542.17 58.1926 540.838 61.4034L542.685 62.1702ZM546.105 50.4852L548.062 50.8986C549.033 46.303 549.709 41.3678 550.094 36.0961L548.1 35.9502L546.105 35.8042C545.731 40.9193 545.077 45.674 544.148 50.0718L546.105 50.4852ZM548.1 35.9502L546.245 36.6979L551.185 48.9529L553.04 48.2052L554.895 47.4575L549.955 35.2025L548.1 35.9502ZM553.04 48.2052L551.042 48.1077C550.923 50.5473 550.505 53.1649 549.775 55.9653L551.71 56.4702L553.645 56.975C554.435 53.9488 554.903 51.0565 555.037 48.3026L553.04 48.2052ZM551.71 56.4702L549.777 55.9549C549.051 58.6804 548.049 61.3831 546.77 64.0637L548.575 64.9252L550.38 65.7867C551.76 62.894 552.849 59.96 553.642 56.9855L551.71 56.4702ZM548.575 64.9252L546.754 64.0976C545.556 66.7332 544.097 69.0822 542.38 71.1542L543.92 72.4302L545.46 73.7062C547.417 71.3448 549.06 68.6905 550.396 65.7528L548.575 64.9252ZM543.92 72.4302L542.38 71.1542C540.695 73.1874 538.765 74.7963 536.587 75.9997L537.555 77.7502L538.522 79.5007C541.158 78.0441 543.471 76.1063 545.46 73.7062L543.92 72.4302ZM537.555 77.7502L536.568 76.0108C534.543 77.1601 532.289 77.7452 529.765 77.7452V79.7452V81.7452C532.94 81.7452 535.88 81.0003 538.542 79.4896L537.555 77.7502Z" fill="white"/>
</svg>
