<svg width="275" height="71" viewBox="0 0 275 71" fill="none" xmlns="http://www.w3.org/2000/svg">
<path d="M113.712 50.4145C113.767 48.5305 113.794 46.6926 113.794 44.9009C113.812 43.1092 113.794 41.3637 113.739 39.6644C113.685 37.9651 113.602 36.3212 113.493 34.7327C113.383 33.1257 113.237 31.5741 113.055 30.078L117.217 29.413C117.272 31.0569 117.317 32.5993 117.354 34.04C117.39 35.4807 117.409 36.8568 117.409 38.1683C117.409 39.4797 117.4 40.7819 117.381 42.0749C117.363 43.3678 117.317 44.6793 117.244 46.0092C117.19 47.3391 117.126 48.7614 117.053 50.276L113.712 50.4145ZM116.834 44.4299L115.957 42.7121C117.746 42.121 119.216 41.5023 120.366 40.8558C121.535 40.2093 122.447 39.5536 123.105 38.8886C123.762 38.2052 124.218 37.5218 124.474 36.8384C124.748 36.1365 124.885 35.4623 124.885 34.8158C124.885 34.3355 124.793 33.8738 124.611 33.4305C124.428 32.9872 124.145 32.6362 123.762 32.3776C123.378 32.1006 122.876 31.962 122.256 31.962C121.617 31.962 120.914 32.1467 120.147 32.5161C119.399 32.8671 118.705 33.4212 118.066 34.1785C117.427 34.9358 116.925 35.9148 116.56 37.1154L116.012 35.1206C116.396 33.9569 116.888 32.9502 117.491 32.1006C118.112 31.2509 118.787 30.549 119.517 29.9949C120.266 29.4407 121.005 29.0251 121.735 28.7481C122.466 28.471 123.15 28.3325 123.789 28.3325C124.775 28.3325 125.615 28.5634 126.309 29.0251C127.002 29.4869 127.532 30.1334 127.897 30.9646C128.262 31.7773 128.445 32.7101 128.445 33.7629C128.445 35.2221 128.052 36.5982 127.267 37.8912C126.5 39.1842 125.268 40.3755 123.57 41.4653C121.872 42.5551 119.627 43.5433 116.834 44.4299Z" fill="#2C794D"/>
<path d="M136.035 50.1374L133.132 50.4145C133.223 48.6598 133.287 46.8496 133.324 44.984C133.36 43.1185 133.369 41.2437 133.351 39.3596C133.333 37.4756 133.287 35.6285 133.214 33.8183C133.141 32.0082 133.031 30.2719 132.885 28.6095L136.801 28C136.911 31.4725 136.911 35.0744 136.801 38.8055C136.71 42.5182 136.454 46.2955 136.035 50.1374Z" fill="#2C794D"/>
<path d="M145.085 50.6639C144.318 50.6639 143.597 50.4976 142.922 50.1651C142.246 49.8142 141.708 49.3155 141.306 48.669C140.905 48.004 140.704 47.2006 140.704 46.2585C140.704 45.2057 140.996 44.1806 141.58 43.1831C142.183 42.1857 143.177 41.2529 144.565 40.3848C145.952 39.5166 147.796 38.7409 150.096 38.0574L151.028 39.9138C149.604 40.2278 148.444 40.6157 147.55 41.0774C146.655 41.5207 145.971 41.9917 145.496 42.4905C145.021 42.9707 144.693 43.451 144.51 43.9312C144.346 44.4114 144.264 44.8363 144.264 45.2057C144.264 45.9261 144.446 46.5541 144.811 47.0897C145.176 47.6069 145.706 47.8655 146.4 47.8655C147.02 47.8655 147.623 47.6716 148.207 47.2837C148.809 46.8773 149.302 46.2955 149.686 45.5382C150.069 44.7809 150.261 43.8573 150.261 42.7675L151.849 41.5761C151.74 43.2201 151.466 44.6146 151.028 45.7598C150.608 46.905 150.069 47.8378 149.412 48.5582C148.773 49.2785 148.079 49.8142 147.331 50.1651C146.582 50.4976 145.834 50.6639 145.085 50.6639ZM150.891 50.6362C150.763 49.8788 150.644 48.983 150.535 47.9486C150.425 46.8958 150.343 45.8245 150.288 44.7347C150.233 43.6449 150.188 42.6198 150.151 41.6593C150.115 40.6988 150.087 39.8953 150.069 39.2488C150.069 38.5839 150.078 38.1867 150.096 38.0574L153.958 37.6418C153.684 39.9876 153.529 42.158 153.492 44.1528C153.474 46.1292 153.519 48.0779 153.629 49.9989L150.891 50.6362Z" fill="#2C794D"/>
<path d="M172.464 50.5253L168.631 50.2206C168.868 49.1492 169.05 48.0964 169.178 47.062C169.306 46.0276 169.361 45.0579 169.343 44.1528C169.324 43.2293 169.224 42.4166 169.041 41.7147C168.877 40.9943 168.621 40.431 168.275 40.0246C167.928 39.6182 167.49 39.415 166.96 39.415C166.394 39.415 165.856 39.7013 165.344 40.2739C164.852 40.8281 164.395 41.6039 163.975 42.6013C163.555 43.5802 163.199 44.7254 162.907 46.0369C162.633 47.3483 162.442 48.7614 162.332 50.276L160.853 46.7018C160.89 45.9445 161.018 45.141 161.237 44.2914C161.474 43.4417 161.785 42.6105 162.168 41.7978C162.57 40.9666 163.044 40.2185 163.592 39.5536C164.14 38.8886 164.76 38.3622 165.454 37.9743C166.166 37.568 166.933 37.3648 167.754 37.3648C168.777 37.3648 169.616 37.6511 170.274 38.2237C170.949 38.7778 171.469 39.5166 171.834 40.4402C172.218 41.3637 172.473 42.3981 172.601 43.5433C172.729 44.6885 172.775 45.8706 172.738 47.0897C172.702 48.2903 172.61 49.4355 172.464 50.5253ZM162.332 50.276L158.663 50.5807C158.973 48.4381 159.147 46.3232 159.183 44.236C159.22 42.1303 159.137 40.0615 158.937 38.0297L161.785 37.4202C161.967 38.6577 162.104 39.8122 162.195 40.8835C162.305 41.9548 162.378 42.9892 162.414 43.9866C162.451 44.9656 162.46 45.9722 162.442 47.0066C162.423 48.0225 162.387 49.1123 162.332 50.276Z" fill="#2C794D"/>
<path d="M187.216 50.3314C186.194 50.4422 185.162 50.4791 184.122 50.4422C183.099 50.4053 182.132 50.2667 181.219 50.0266C180.306 49.7865 179.494 49.4263 178.782 48.9461C178.088 48.4658 177.54 47.8378 177.139 47.062C176.737 46.2862 176.536 45.335 176.536 44.2083C176.536 43.1 176.737 42.1395 177.139 41.3268C177.54 40.5141 178.079 39.8399 178.754 39.3042C179.448 38.7501 180.206 38.3437 181.027 38.0851C181.867 37.8081 182.707 37.6695 183.546 37.6695C184.824 37.6695 185.892 37.9097 186.75 38.3899C187.608 38.8517 188.257 39.4335 188.695 40.1354C189.133 40.8373 189.343 41.5577 189.325 42.2965C189.325 42.9061 189.178 43.5064 188.886 44.0974C188.613 44.6885 188.147 45.178 187.49 45.5659C186.851 45.9353 185.965 46.12 184.834 46.12C184.432 46.12 183.957 46.0831 183.41 46.0092C182.88 45.9353 182.332 45.8337 181.767 45.7044C181.219 45.5566 180.699 45.3904 180.206 45.2057C179.713 45.0025 179.302 44.7809 178.973 44.5407L179.685 43.3217C180.032 43.5433 180.489 43.7373 181.055 43.9035C181.639 44.0697 182.351 44.1528 183.19 44.1528C183.72 44.1528 184.204 44.079 184.642 43.9312C185.098 43.765 185.463 43.5064 185.737 43.1554C186.011 42.786 186.148 42.3335 186.148 41.7978C186.148 41.4653 186.075 41.1328 185.929 40.8004C185.783 40.4679 185.536 40.1908 185.19 39.9692C184.861 39.7291 184.395 39.609 183.793 39.609C183.19 39.609 182.606 39.8214 182.04 40.2462C181.493 40.6526 181.036 41.179 180.671 41.8255C180.306 42.4535 180.123 43.1277 180.123 43.8481C180.123 44.8455 180.306 45.6952 180.671 46.3971C181.055 47.0805 181.584 47.6162 182.259 48.004C182.935 48.3735 183.72 48.5951 184.614 48.669C185.509 48.7429 186.486 48.669 187.545 48.4473L187.216 50.3314Z" fill="#2C794D"/>
<path d="M201.972 50.3037C200.384 50.4145 199.069 50.2944 198.029 49.9435C196.988 49.5741 196.157 49.0015 195.537 48.2257C194.934 47.4499 194.487 46.4987 194.195 45.3719C193.921 44.2267 193.757 42.9338 193.702 41.493C193.647 40.1077 193.611 38.7963 193.592 37.5587C193.574 36.3027 193.565 35.0928 193.565 33.9292C193.565 32.7655 193.574 31.5926 193.592 30.4105L197.563 29.884C197.38 31.528 197.207 33.0703 197.043 34.511C196.897 35.9333 196.769 37.3001 196.659 38.6116C196.55 39.923 196.486 41.2252 196.468 42.5182C196.449 43.7003 196.668 44.6054 197.125 45.2334C197.581 45.8429 198.238 46.2493 199.097 46.4525C199.955 46.6372 200.968 46.6741 202.136 46.5633L201.972 50.3037ZM201.232 40.0246C199.809 39.7106 198.302 39.5628 196.714 39.5813C195.126 39.5998 193.574 39.7383 192.059 39.9969L191.703 38.196C193.346 37.8265 195.035 37.5957 196.769 37.5033C198.521 37.4109 200.128 37.4479 201.588 37.6141L201.232 40.0246Z" fill="#2C794D"/>
<path d="M206.982 50.4145C207.037 48.5305 207.064 46.6926 207.064 44.9009C207.083 43.1092 207.064 41.3637 207.01 39.6644C206.955 37.9651 206.873 36.3212 206.763 34.7327C206.654 33.1257 206.508 31.5741 206.325 30.078L210.487 29.413C210.542 31.0569 210.588 32.5993 210.624 34.04C210.661 35.4807 210.679 36.8568 210.679 38.1683C210.679 39.4797 210.67 40.7819 210.652 42.0749C210.633 43.3678 210.588 44.6793 210.515 46.0092C210.46 47.3391 210.396 48.7614 210.323 50.276L206.982 50.4145ZM210.104 44.4299L209.228 42.7121C211.017 42.121 212.486 41.5023 213.637 40.8558C214.805 40.2093 215.718 39.5536 216.375 38.8886C217.032 38.2052 217.489 37.5218 217.744 36.8384C218.018 36.1365 218.155 35.4623 218.155 34.8158C218.155 34.3355 218.064 33.8738 217.881 33.4305C217.699 32.9872 217.416 32.6362 217.032 32.3776C216.649 32.1006 216.147 31.962 215.526 31.962C214.887 31.962 214.184 32.1467 213.418 32.5161C212.669 32.8671 211.975 33.4212 211.336 34.1785C210.697 34.9358 210.195 35.9148 209.83 37.1154L209.283 35.1206C209.666 33.9569 210.159 32.9502 210.761 32.1006C211.382 31.2509 212.057 30.549 212.788 29.9949C213.536 29.4407 214.276 29.0251 215.006 28.7481C215.736 28.471 216.421 28.3325 217.06 28.3325C218.045 28.3325 218.885 28.5634 219.579 29.0251C220.273 29.4869 220.802 30.1334 221.167 30.9646C221.532 31.7773 221.715 32.7101 221.715 33.7629C221.715 35.2221 221.322 36.5982 220.537 37.8912C219.771 39.1842 218.538 40.3755 216.841 41.4653C215.143 42.5551 212.897 43.5433 210.104 44.4299Z" fill="#2C794D"/>
<path d="M232.942 50.3314C231.92 50.4422 230.888 50.4791 229.847 50.4422C228.825 50.4053 227.858 50.2667 226.945 50.0266C226.032 49.7865 225.22 49.4263 224.508 48.9461C223.814 48.4658 223.266 47.8378 222.865 47.062C222.463 46.2862 222.262 45.335 222.262 44.2083C222.262 43.1 222.463 42.1395 222.865 41.3268C223.266 40.5141 223.805 39.8399 224.48 39.3042C225.174 38.7501 225.932 38.3437 226.753 38.0851C227.593 37.8081 228.433 37.6695 229.272 37.6695C230.55 37.6695 231.618 37.9097 232.476 38.3899C233.334 38.8517 233.982 39.4335 234.421 40.1354C234.859 40.8373 235.069 41.5577 235.05 42.2965C235.05 42.9061 234.904 43.5064 234.612 44.0974C234.338 44.6885 233.873 45.178 233.216 45.5659C232.577 45.9353 231.691 46.12 230.559 46.12C230.158 46.12 229.683 46.0831 229.136 46.0092C228.606 45.9353 228.058 45.8337 227.492 45.7044C226.945 45.5566 226.424 45.3904 225.932 45.2057C225.439 45.0025 225.028 44.7809 224.699 44.5407L225.411 43.3217C225.758 43.5433 226.215 43.7373 226.78 43.9035C227.365 44.0697 228.077 44.1528 228.916 44.1528C229.446 44.1528 229.93 44.079 230.368 43.9312C230.824 43.765 231.189 43.5064 231.463 43.1554C231.737 42.786 231.874 42.3335 231.874 41.7978C231.874 41.4653 231.801 41.1328 231.655 40.8004C231.509 40.4679 231.262 40.1908 230.915 39.9692C230.587 39.7291 230.121 39.609 229.519 39.609C228.916 39.609 228.332 39.8214 227.766 40.2462C227.219 40.6526 226.762 41.179 226.397 41.8255C226.032 42.4535 225.849 43.1277 225.849 43.8481C225.849 44.8455 226.032 45.6952 226.397 46.3971C226.78 47.0805 227.31 47.6162 227.985 48.004C228.661 48.3735 229.446 48.5951 230.34 48.669C231.235 48.7429 232.212 48.669 233.27 48.4473L232.942 50.3314Z" fill="#2C794D"/>
<path d="M247.698 50.3037C246.11 50.4145 244.795 50.2944 243.754 49.9435C242.714 49.5741 241.883 49.0015 241.263 48.2257C240.66 47.4499 240.213 46.4987 239.921 45.3719C239.647 44.2267 239.483 42.9338 239.428 41.493C239.373 40.1077 239.337 38.7963 239.318 37.5587C239.3 36.3027 239.291 35.0928 239.291 33.9292C239.291 32.7655 239.3 31.5926 239.318 30.4105L243.289 29.884C243.106 31.528 242.933 33.0703 242.769 34.511C242.623 35.9333 242.495 37.3001 242.385 38.6116C242.276 39.923 242.212 41.2252 242.194 42.5182C242.175 43.7003 242.394 44.6054 242.851 45.2334C243.307 45.8429 243.964 46.2493 244.822 46.4525C245.68 46.6372 246.694 46.6741 247.862 46.5633L247.698 50.3037ZM246.958 40.0246C245.534 39.7106 244.028 39.5628 242.44 39.5813C240.852 39.5998 239.3 39.7383 237.785 39.9969L237.429 38.196C239.072 37.8265 240.761 37.5957 242.495 37.5033C244.247 37.4109 245.854 37.4479 247.314 37.6141L246.958 40.0246Z" fill="#2C794D"/>
<path d="M254.735 50.1374L251.832 50.4145C251.923 48.6598 251.987 46.8496 252.024 44.984C252.06 43.1185 252.069 41.2437 252.051 39.3596C252.033 37.4756 251.987 35.6285 251.914 33.8183C251.841 32.0082 251.732 30.2719 251.585 28.6095L255.501 28C255.611 31.4725 255.611 35.0744 255.501 38.8055C255.41 42.5182 255.155 46.2955 254.735 50.1374Z" fill="#2C794D"/>
<path d="M259.808 56.6207L261.232 53.296C262.382 54.1456 263.468 54.7736 264.491 55.18C265.531 55.6048 266.462 55.7526 267.284 55.6233C268.124 55.494 268.817 55.0507 269.365 54.2934C269.913 53.5361 270.287 52.4278 270.488 50.9686C270.597 50.1559 270.67 49.3986 270.707 48.6967C270.762 47.9948 270.78 47.2929 270.762 46.591C270.762 45.8706 270.743 45.0949 270.707 44.2637C270.67 43.4325 270.625 42.4997 270.57 41.4653C270.515 40.4125 270.461 39.1934 270.406 37.8081L273.993 36.9215C274.048 38.6023 274.066 40.2832 274.048 41.964C274.03 43.6449 273.966 45.2703 273.856 46.8404C273.747 48.3919 273.573 49.8327 273.336 51.1626C273.025 52.9727 272.469 54.4042 271.665 55.4571C270.88 56.5099 269.895 57.2303 268.708 57.6182C267.54 58.0061 266.198 58.0984 264.683 57.8952C263.186 57.7105 261.561 57.2857 259.808 56.6207ZM265.121 50.5807C264.098 50.5807 263.259 50.3129 262.601 49.7773C261.944 49.2231 261.424 48.4935 261.04 47.5884C260.675 46.6834 260.42 45.6675 260.274 44.5407C260.146 43.414 260.1 42.2596 260.137 41.0774C260.173 39.8768 260.265 38.7316 260.411 37.6418L264.244 37.531C264.007 38.6023 263.824 39.6644 263.697 40.7172C263.569 41.7516 263.514 42.7398 263.532 43.6818C263.551 44.6239 263.642 45.4643 263.806 46.2031C263.989 46.9235 264.253 47.4961 264.6 47.9209C264.947 48.3458 265.385 48.5582 265.915 48.5582C266.481 48.5582 267.01 48.2811 267.503 47.727C267.996 47.1728 268.443 46.4155 268.845 45.455C269.247 44.4761 269.575 43.3401 269.831 42.0472C270.105 40.7357 270.296 39.3227 270.406 37.8081L271.83 41.3822C271.793 42.1395 271.665 42.943 271.446 43.7927C271.227 44.6239 270.926 45.4458 270.543 46.2585C270.178 47.0713 269.73 47.8009 269.201 48.4473C268.671 49.0938 268.06 49.611 267.366 49.9989C266.691 50.3868 265.942 50.5807 265.121 50.5807Z" fill="#2C794D"/>
<path d="M150.096 38.0574C147.796 38.7409 145.952 39.5166 144.565 40.3848C143.177 41.2529 142.183 42.1857 141.58 43.1831C140.996 44.1806 140.704 45.2057 140.704 46.2585C140.704 47.2006 140.905 48.004 141.306 48.669C141.708 49.3155 142.246 49.8142 142.922 50.1651C143.597 50.4976 144.318 50.6639 145.085 50.6639C145.834 50.6639 146.582 50.4976 147.331 50.1651C148.079 49.8142 148.773 49.2785 149.412 48.5582C150.069 47.8378 150.608 46.905 151.028 45.7598C151.466 44.6146 151.74 43.2201 151.849 41.5761L150.261 42.7675C150.261 43.8573 150.069 44.7809 149.686 45.5382C149.302 46.2955 148.809 46.8773 148.207 47.2837C147.623 47.6716 147.02 47.8655 146.4 47.8655C145.706 47.8655 145.176 47.6069 144.811 47.0897C144.446 46.5541 144.264 45.9261 144.264 45.2057C144.264 44.8363 144.346 44.4114 144.51 43.9312C144.693 43.451 145.021 42.9707 145.496 42.4905C145.971 41.9917 146.655 41.5207 147.55 41.0774C148.444 40.6157 149.604 40.2278 151.028 39.9138L150.096 38.0574ZM150.096 38.0574C150.078 38.1867 150.069 38.5839 150.069 39.2488C150.087 39.8953 150.115 40.6988 150.151 41.6593C150.188 42.6198 150.233 43.6449 150.288 44.7347C150.343 45.8245 150.425 46.8958 150.535 47.9486C150.644 48.983 150.763 49.8788 150.891 50.6362L153.629 49.9989C153.519 48.0779 153.474 46.1292 153.492 44.1528C153.529 42.158 153.684 39.9876 153.958 37.6418L150.096 38.0574ZM162.332 50.276C162.442 48.7614 162.633 47.3483 162.907 46.0369C163.199 44.7254 163.555 43.5802 163.975 42.6013C164.395 41.6039 164.852 40.8281 165.344 40.2739C165.856 39.7013 166.394 39.415 166.96 39.415C167.49 39.415 167.928 39.6182 168.275 40.0246C168.621 40.431 168.877 40.9943 169.041 41.7147C169.224 42.4166 169.324 43.2293 169.343 44.1528C169.361 45.0579 169.306 46.0276 169.178 47.062C169.05 48.0964 168.868 49.1492 168.631 50.2206L172.464 50.5253C172.61 49.4355 172.702 48.2903 172.738 47.0897C172.775 45.8706 172.729 44.6885 172.601 43.5433C172.473 42.3981 172.218 41.3637 171.834 40.4402C171.469 39.5166 170.949 38.7778 170.274 38.2237C169.616 37.6511 168.777 37.3648 167.754 37.3648C166.933 37.3648 166.166 37.568 165.454 37.9743C164.76 38.3622 164.14 38.8886 163.592 39.5536C163.044 40.2185 162.57 40.9666 162.168 41.7978C161.785 42.6105 161.474 43.4417 161.237 44.2914C161.018 45.141 160.89 45.9445 160.853 46.7018L162.332 50.276ZM162.332 50.276L158.663 50.5807C158.973 48.4381 159.147 46.3232 159.183 44.236C159.22 42.1303 159.137 40.0615 158.937 38.0297L161.785 37.4202C161.967 38.6577 162.104 39.8122 162.195 40.8835C162.305 41.9548 162.378 42.9892 162.414 43.9866C162.451 44.9656 162.46 45.9722 162.442 47.0066C162.423 48.0225 162.387 49.1123 162.332 50.276ZM270.406 37.8081C270.461 39.1934 270.515 40.4125 270.57 41.4653C270.625 42.4997 270.67 43.4325 270.707 44.2637C270.743 45.0949 270.762 45.8706 270.762 46.591C270.78 47.2929 270.762 47.9948 270.707 48.6967C270.67 49.3986 270.597 50.1559 270.488 50.9686C270.287 52.4278 269.913 53.5361 269.365 54.2934C268.817 55.0507 268.124 55.494 267.284 55.6233C266.462 55.7526 265.531 55.6048 264.491 55.18C263.468 54.7736 262.382 54.1456 261.232 53.296L259.808 56.6207C261.561 57.2857 263.186 57.7105 264.683 57.8952C266.198 58.0984 267.54 58.0061 268.708 57.6182C269.895 57.2303 270.88 56.5099 271.665 55.4571C272.469 54.4042 273.025 52.9727 273.336 51.1626C273.573 49.8327 273.747 48.3919 273.856 46.8404C273.966 45.2703 274.03 43.6449 274.048 41.964C274.066 40.2832 274.048 38.6023 273.993 36.9215L270.406 37.8081ZM270.406 37.8081C270.296 39.3227 270.105 40.7357 269.831 42.0472C269.575 43.3401 269.247 44.4761 268.845 45.455C268.443 46.4155 267.996 47.1728 267.503 47.727C267.01 48.2811 266.481 48.5582 265.915 48.5582C265.385 48.5582 264.947 48.3458 264.6 47.9209C264.253 47.4961 263.989 46.9235 263.806 46.2031C263.642 45.4643 263.551 44.6239 263.532 43.6818C263.514 42.7398 263.569 41.7516 263.697 40.7172C263.824 39.6644 264.007 38.6023 264.244 37.531L260.411 37.6418C260.265 38.7316 260.173 39.8768 260.137 41.0774C260.1 42.2596 260.146 43.414 260.274 44.5407C260.42 45.6675 260.675 46.6834 261.04 47.5884C261.424 48.4935 261.944 49.2231 262.601 49.7773C263.259 50.3129 264.098 50.5807 265.121 50.5807C265.942 50.5807 266.691 50.3868 267.366 49.9989C268.06 49.611 268.671 49.0938 269.201 48.4473C269.73 47.8009 270.178 47.0713 270.543 46.2585C270.926 45.4458 271.227 44.6239 271.446 43.7927C271.665 42.943 271.793 42.1395 271.83 41.3822L270.406 37.8081ZM113.712 50.4145C113.767 48.5305 113.794 46.6926 113.794 44.9009C113.812 43.1092 113.794 41.3637 113.739 39.6644C113.685 37.9651 113.602 36.3212 113.493 34.7327C113.383 33.1257 113.237 31.5741 113.055 30.078L117.217 29.413C117.272 31.0569 117.317 32.5993 117.354 34.04C117.39 35.4807 117.409 36.8568 117.409 38.1683C117.409 39.4797 117.4 40.7819 117.381 42.0749C117.363 43.3678 117.317 44.6793 117.244 46.0092C117.19 47.3391 117.126 48.7614 117.053 50.276L113.712 50.4145ZM116.834 44.4299L115.957 42.7121C117.746 42.121 119.216 41.5023 120.366 40.8558C121.535 40.2093 122.447 39.5536 123.105 38.8886C123.762 38.2052 124.218 37.5218 124.474 36.8384C124.748 36.1365 124.885 35.4623 124.885 34.8158C124.885 34.3355 124.793 33.8738 124.611 33.4305C124.428 32.9872 124.145 32.6362 123.762 32.3776C123.378 32.1006 122.876 31.962 122.256 31.962C121.617 31.962 120.914 32.1467 120.147 32.5161C119.399 32.8671 118.705 33.4212 118.066 34.1785C117.427 34.9358 116.925 35.9148 116.56 37.1154L116.012 35.1206C116.396 33.9569 116.888 32.9502 117.491 32.1006C118.112 31.2509 118.787 30.549 119.517 29.9949C120.266 29.4407 121.005 29.0251 121.735 28.7481C122.466 28.471 123.15 28.3325 123.789 28.3325C124.775 28.3325 125.615 28.5634 126.309 29.0251C127.002 29.4869 127.532 30.1334 127.897 30.9646C128.262 31.7773 128.445 32.7101 128.445 33.7629C128.445 35.2221 128.052 36.5982 127.267 37.8912C126.5 39.1842 125.268 40.3755 123.57 41.4653C121.872 42.5551 119.627 43.5433 116.834 44.4299ZM136.035 50.1374L133.132 50.4145C133.223 48.6598 133.287 46.8496 133.324 44.984C133.36 43.1185 133.369 41.2437 133.351 39.3596C133.333 37.4756 133.287 35.6285 133.214 33.8183C133.141 32.0082 133.031 30.2719 132.885 28.6095L136.801 28C136.911 31.4725 136.911 35.0744 136.801 38.8055C136.71 42.5182 136.454 46.2955 136.035 50.1374ZM187.216 50.3314C186.194 50.4422 185.162 50.4791 184.122 50.4422C183.099 50.4053 182.132 50.2667 181.219 50.0266C180.306 49.7865 179.494 49.4263 178.782 48.9461C178.088 48.4658 177.54 47.8378 177.139 47.062C176.737 46.2862 176.536 45.335 176.536 44.2083C176.536 43.1 176.737 42.1395 177.139 41.3268C177.54 40.5141 178.079 39.8399 178.754 39.3042C179.448 38.7501 180.206 38.3437 181.027 38.0851C181.867 37.8081 182.707 37.6695 183.546 37.6695C184.824 37.6695 185.892 37.9097 186.75 38.3899C187.608 38.8517 188.257 39.4335 188.695 40.1354C189.133 40.8373 189.343 41.5577 189.325 42.2965C189.325 42.9061 189.178 43.5064 188.886 44.0974C188.613 44.6885 188.147 45.178 187.49 45.5659C186.851 45.9353 185.965 46.12 184.834 46.12C184.432 46.12 183.957 46.0831 183.41 46.0092C182.88 45.9353 182.332 45.8337 181.767 45.7044C181.219 45.5566 180.699 45.3904 180.206 45.2057C179.713 45.0025 179.302 44.7809 178.973 44.5407L179.685 43.3217C180.032 43.5433 180.489 43.7373 181.055 43.9035C181.639 44.0697 182.351 44.1528 183.19 44.1528C183.72 44.1528 184.204 44.079 184.642 43.9312C185.098 43.765 185.463 43.5064 185.737 43.1554C186.011 42.786 186.148 42.3335 186.148 41.7978C186.148 41.4653 186.075 41.1328 185.929 40.8004C185.783 40.4679 185.536 40.1908 185.19 39.9692C184.861 39.7291 184.395 39.609 183.793 39.609C183.19 39.609 182.606 39.8214 182.04 40.2462C181.493 40.6526 181.036 41.179 180.671 41.8255C180.306 42.4535 180.123 43.1277 180.123 43.8481C180.123 44.8455 180.306 45.6952 180.671 46.3971C181.055 47.0805 181.584 47.6162 182.259 48.004C182.935 48.3735 183.72 48.5951 184.614 48.669C185.509 48.7429 186.486 48.669 187.545 48.4473L187.216 50.3314ZM201.972 50.3037C200.384 50.4145 199.069 50.2944 198.029 49.9435C196.988 49.5741 196.157 49.0015 195.537 48.2257C194.934 47.4499 194.487 46.4987 194.195 45.3719C193.921 44.2267 193.757 42.9338 193.702 41.493C193.647 40.1077 193.611 38.7963 193.592 37.5587C193.574 36.3027 193.565 35.0928 193.565 33.9292C193.565 32.7655 193.574 31.5926 193.592 30.4105L197.563 29.884C197.38 31.528 197.207 33.0703 197.043 34.511C196.897 35.9333 196.769 37.3001 196.659 38.6116C196.55 39.923 196.486 41.2252 196.468 42.5182C196.449 43.7003 196.668 44.6054 197.125 45.2334C197.581 45.8429 198.238 46.2493 199.097 46.4525C199.955 46.6372 200.968 46.6741 202.136 46.5633L201.972 50.3037ZM201.232 40.0246C199.809 39.7106 198.302 39.5628 196.714 39.5813C195.126 39.5998 193.574 39.7383 192.059 39.9969L191.703 38.196C193.346 37.8265 195.035 37.5957 196.769 37.5033C198.521 37.4109 200.128 37.4479 201.588 37.6141L201.232 40.0246ZM206.982 50.4145C207.037 48.5305 207.064 46.6926 207.064 44.9009C207.083 43.1092 207.064 41.3637 207.01 39.6644C206.955 37.9651 206.873 36.3212 206.763 34.7327C206.654 33.1257 206.508 31.5741 206.325 30.078L210.487 29.413C210.542 31.0569 210.588 32.5993 210.624 34.04C210.661 35.4807 210.679 36.8568 210.679 38.1683C210.679 39.4797 210.67 40.7819 210.652 42.0749C210.633 43.3678 210.588 44.6793 210.515 46.0092C210.46 47.3391 210.396 48.7614 210.323 50.276L206.982 50.4145ZM210.104 44.4299L209.228 42.7121C211.017 42.121 212.486 41.5023 213.637 40.8558C214.805 40.2093 215.718 39.5536 216.375 38.8886C217.032 38.2052 217.489 37.5218 217.744 36.8384C218.018 36.1365 218.155 35.4623 218.155 34.8158C218.155 34.3355 218.064 33.8738 217.881 33.4305C217.699 32.9872 217.416 32.6362 217.032 32.3776C216.649 32.1006 216.147 31.962 215.526 31.962C214.887 31.962 214.184 32.1467 213.418 32.5161C212.669 32.8671 211.975 33.4212 211.336 34.1785C210.697 34.9358 210.195 35.9148 209.83 37.1154L209.283 35.1206C209.666 33.9569 210.159 32.9502 210.761 32.1006C211.382 31.2509 212.057 30.549 212.788 29.9949C213.536 29.4407 214.276 29.0251 215.006 28.7481C215.736 28.471 216.421 28.3325 217.06 28.3325C218.045 28.3325 218.885 28.5634 219.579 29.0251C220.273 29.4869 220.802 30.1334 221.167 30.9646C221.532 31.7773 221.715 32.7101 221.715 33.7629C221.715 35.2221 221.322 36.5982 220.537 37.8912C219.771 39.1842 218.538 40.3755 216.841 41.4653C215.143 42.5551 212.897 43.5433 210.104 44.4299ZM232.942 50.3314C231.92 50.4422 230.888 50.4791 229.847 50.4422C228.825 50.4053 227.858 50.2667 226.945 50.0266C226.032 49.7865 225.22 49.4263 224.508 48.9461C223.814 48.4658 223.266 47.8378 222.865 47.062C222.463 46.2862 222.262 45.335 222.262 44.2083C222.262 43.1 222.463 42.1395 222.865 41.3268C223.266 40.5141 223.805 39.8399 224.48 39.3042C225.174 38.7501 225.932 38.3437 226.753 38.0851C227.593 37.8081 228.433 37.6695 229.272 37.6695C230.55 37.6695 231.618 37.9097 232.476 38.3899C233.334 38.8517 233.982 39.4335 234.421 40.1354C234.859 40.8373 235.069 41.5577 235.05 42.2965C235.05 42.9061 234.904 43.5064 234.612 44.0974C234.338 44.6885 233.873 45.178 233.216 45.5659C232.577 45.9353 231.691 46.12 230.559 46.12C230.158 46.12 229.683 46.0831 229.136 46.0092C228.606 45.9353 228.058 45.8337 227.492 45.7044C226.945 45.5566 226.424 45.3904 225.932 45.2057C225.439 45.0025 225.028 44.7809 224.699 44.5407L225.411 43.3217C225.758 43.5433 226.215 43.7373 226.78 43.9035C227.365 44.0697 228.077 44.1528 228.916 44.1528C229.446 44.1528 229.93 44.079 230.368 43.9312C230.824 43.765 231.189 43.5064 231.463 43.1554C231.737 42.786 231.874 42.3335 231.874 41.7978C231.874 41.4653 231.801 41.1328 231.655 40.8004C231.509 40.4679 231.262 40.1908 230.915 39.9692C230.587 39.7291 230.121 39.609 229.519 39.609C228.916 39.609 228.332 39.8214 227.766 40.2462C227.219 40.6526 226.762 41.179 226.397 41.8255C226.032 42.4535 225.849 43.1277 225.849 43.8481C225.849 44.8455 226.032 45.6952 226.397 46.3971C226.78 47.0805 227.31 47.6162 227.985 48.004C228.661 48.3735 229.446 48.5951 230.34 48.669C231.235 48.7429 232.212 48.669 233.27 48.4473L232.942 50.3314ZM247.698 50.3037C246.11 50.4145 244.795 50.2944 243.754 49.9435C242.714 49.5741 241.883 49.0015 241.263 48.2257C240.66 47.4499 240.213 46.4987 239.921 45.3719C239.647 44.2267 239.483 42.9338 239.428 41.493C239.373 40.1077 239.337 38.7963 239.318 37.5587C239.3 36.3027 239.291 35.0928 239.291 33.9292C239.291 32.7655 239.3 31.5926 239.318 30.4105L243.289 29.884C243.106 31.528 242.933 33.0703 242.769 34.511C242.623 35.9333 242.495 37.3001 242.385 38.6116C242.276 39.923 242.212 41.2252 242.194 42.5182C242.175 43.7003 242.394 44.6054 242.851 45.2334C243.307 45.8429 243.964 46.2493 244.822 46.4525C245.68 46.6372 246.694 46.6741 247.862 46.5633L247.698 50.3037ZM246.958 40.0246C245.534 39.7106 244.028 39.5628 242.44 39.5813C240.852 39.5998 239.3 39.7383 237.785 39.9969L237.429 38.196C239.072 37.8265 240.761 37.5957 242.495 37.5033C244.247 37.4109 245.854 37.4479 247.314 37.6141L246.958 40.0246ZM254.735 50.1374L251.832 50.4145C251.923 48.6598 251.987 46.8496 252.024 44.984C252.06 43.1185 252.069 41.2437 252.051 39.3596C252.033 37.4756 251.987 35.6285 251.914 33.8183C251.841 32.0082 251.732 30.2719 251.585 28.6095L255.501 28C255.611 31.4725 255.611 35.0744 255.501 38.8055C255.41 42.5182 255.155 46.2955 254.735 50.1374Z" stroke="#2C794D" stroke-width="0.5"/>
<path d="M94.3168 9.89045C91.0311 14.7325 94.2947 19.5745 94.3167 19.6069C94.4036 19.5196 94.6635 18.9131 94.6635 18.9131C97.2662 11.6256 100.736 9.89045 100.736 9.89045C96.8324 15.4428 96.3119 21.429 96.3119 21.429C104.033 19.6071 104.64 13.968 104.64 13.968C105.855 9.19641 104.033 3.9043 104.033 3.9043L99.6954 5.89968C95.7046 7.80831 94.3168 9.89045 94.3168 9.89045Z" fill="#ABC442"/>
<path d="M23.2138 49.8025C16.5106 59.2361 23.781 65.9347 23.781 65.9347H24.388C50.0678 63.6788 70.2819 49.6243 70.2819 49.6243C67.2454 46.1541 65.6838 45.2865 65.6838 45.2865C62.5606 43.2044 59.9579 38.346 59.9579 38.346C56.3142 29.931 47.8988 29.931 47.8988 29.931C38.2689 29.3237 34.5384 36.698 34.5384 36.698C32.5431 41.9033 27.5112 45.6338 27.5112 45.6338L24.6747 48.2004C24.1377 48.6863 23.6333 49.2121 23.2138 49.8025Z" fill="#2C794D"/>
<path d="M9.50059 45.1969C9.56173 44.7519 9.27348 44.7683 9.02301 44.8591C8.78687 44.9447 8.5935 45.1133 8.41137 45.2862L6.94971 46.6743C3.87465 49.711 2.35207 52.4002 2.35207 52.4002C-2.94009 60.9893 2.35207 65.5871 2.35207 65.5871C8.09633 71.5845 20.2107 70.6668 20.2107 70.6668C29.5718 70.4832 40.5246 67.5828 40.5246 67.5828C49.0283 65.5273 55.7069 68.5368 55.7069 68.5368C65.5971 72.0938 70.2819 65.9341 70.2819 65.9341C75.1402 60.989 72.7111 53.0075 72.7111 53.0075C87.0234 44.2354 92.0577 35.4249 92.0577 35.4249C96.5681 28.8171 94.7471 24.1177 94.7471 24.1177C93.012 18.5654 85.7245 16.8309 85.7245 16.8309C80.6059 15.529 76.4416 15.963 76.4416 15.963C75.182 16.2368 75.478 16.5452 75.8677 16.7354C76.1787 16.8873 76.529 16.9276 76.8745 16.9479L79.3045 17.0908C90.3225 18.0451 92.0577 23.771 92.0577 23.771C94.6603 29.4102 87.9801 36.6109 87.9801 36.6109C81.2132 45.6335 66.2044 53.9621 66.2044 53.9621C46.9446 65.4139 25.3424 67.5828 25.3424 67.5828C17.7078 68.4503 12.0687 67.4093 12.0687 67.4093C3.39309 66.1079 2.35207 60.9893 2.35207 60.9893C0.70371 55.9575 5.64879 49.711 5.64879 49.711C6.28205 48.7129 8.27069 46.7205 9.0558 45.9491C9.26881 45.7398 9.45995 45.4927 9.50059 45.1969Z" fill="#2C794D"/>
<path d="M23.2138 49.8025C16.5106 59.2361 23.781 65.9347 23.781 65.9347H24.388C50.0678 63.6788 70.2819 49.6243 70.2819 49.6243C67.2454 46.1541 65.6838 45.2865 65.6838 45.2865C62.5606 43.2044 59.9579 38.346 59.9579 38.346C56.3142 29.931 47.8988 29.931 47.8988 29.931C38.2689 29.3237 34.5384 36.698 34.5384 36.698C32.5431 41.9033 27.5112 45.6338 27.5112 45.6338L24.6747 48.2004C24.1377 48.6863 23.6333 49.2121 23.2138 49.8025Z" fill="#2C794D"/>
<path d="M9.50059 45.1969C9.56173 44.7519 9.27348 44.7683 9.02301 44.8591C8.78687 44.9447 8.5935 45.1133 8.41137 45.2862L6.94971 46.6743C3.87465 49.711 2.35207 52.4002 2.35207 52.4002C-2.94009 60.9893 2.35207 65.5871 2.35207 65.5871C8.09633 71.5845 20.2107 70.6668 20.2107 70.6668C29.5718 70.4832 40.5246 67.5828 40.5246 67.5828C49.0283 65.5273 55.7069 68.5368 55.7069 68.5368C65.5971 72.0938 70.2819 65.9341 70.2819 65.9341C75.1402 60.989 72.7111 53.0075 72.7111 53.0075C87.0234 44.2354 92.0577 35.4249 92.0577 35.4249C96.5681 28.8171 94.7471 24.1177 94.7471 24.1177C93.012 18.5654 85.7245 16.8309 85.7245 16.8309C80.6059 15.529 76.4416 15.963 76.4416 15.963C75.182 16.2368 75.478 16.5452 75.8677 16.7354C76.1787 16.8873 76.529 16.9276 76.8745 16.9479L79.3045 17.0908C90.3225 18.0451 92.0577 23.771 92.0577 23.771C94.6603 29.4102 87.9801 36.6109 87.9801 36.6109C81.2132 45.6335 66.2044 53.9621 66.2044 53.9621C46.9446 65.4139 25.3424 67.5828 25.3424 67.5828C17.7078 68.4503 12.0687 67.4093 12.0687 67.4093C3.39309 66.1079 2.35207 60.9893 2.35207 60.9893C0.70371 55.9575 5.64879 49.711 5.64879 49.711C6.28205 48.7129 8.27069 46.7205 9.0558 45.9491C9.26881 45.7398 9.45995 45.4927 9.50059 45.1969Z" fill="#2C794D"/>
<ellipse cx="19.2655" cy="33.0843" rx="8.36348" ry="11.3217" transform="rotate(-25.3549 19.2655 33.0843)" fill="#2C794D"/>
<ellipse cx="19.2655" cy="33.0843" rx="8.36348" ry="11.3217" transform="rotate(-25.3549 19.2655 33.0843)" fill="#2C794D"/>
<ellipse cx="74.5317" cy="33.1378" rx="8.36348" ry="11.3217" transform="rotate(27.3505 74.5317 33.1378)" fill="#2C794D"/>
<ellipse cx="59.1771" cy="14.3978" rx="9.57528" ry="13.1215" transform="rotate(8.5389 59.1771 14.3978)" fill="#2C794D"/>
<ellipse cx="59.1771" cy="14.3978" rx="9.57528" ry="13.1215" transform="rotate(8.5389 59.1771 14.3978)" fill="#2C794D"/>
<ellipse cx="34.7238" cy="14.4853" rx="9.57528" ry="13.1215" transform="rotate(-9.20951 34.7238 14.4853)" fill="#2C794D"/>
<ellipse cx="34.7238" cy="14.4853" rx="9.57528" ry="13.1215" transform="rotate(-9.20951 34.7238 14.4853)" fill="#2C794D"/>
</svg>
