<svg width="815" height="187" viewBox="0 0 815 187" fill="none" xmlns="http://www.w3.org/2000/svg">
<path d="M256.165 158.475C256.355 152.015 256.45 145.713 256.45 139.57C256.513 133.427 256.45 127.442 256.26 121.615C256.07 115.788 255.785 110.152 255.405 104.705C255.025 99.195 254.518 93.875 253.885 88.745L268.325 86.465C268.515 92.1017 268.673 97.39 268.8 102.33C268.927 107.27 268.99 111.988 268.99 116.485C268.99 120.982 268.958 125.447 268.895 129.88C268.832 134.313 268.673 138.81 268.42 143.37C268.23 147.93 268.008 152.807 267.755 158L256.165 158.475ZM266.995 137.955L263.955 132.065C270.162 130.038 275.26 127.917 279.25 125.7C283.303 123.483 286.47 121.235 288.75 118.955C291.03 116.612 292.613 114.268 293.5 111.925C294.45 109.518 294.925 107.207 294.925 104.99C294.925 103.343 294.608 101.76 293.975 100.24C293.342 98.72 292.36 97.5167 291.03 96.63C289.7 95.68 287.958 95.205 285.805 95.205C283.588 95.205 281.15 95.8383 278.49 97.105C275.893 98.3083 273.487 100.208 271.27 102.805C269.053 105.402 267.312 108.758 266.045 112.875L264.145 106.035C265.475 102.045 267.185 98.5933 269.275 95.68C271.428 92.7667 273.772 90.36 276.305 88.46C278.902 86.56 281.467 85.135 284 84.185C286.533 83.235 288.908 82.76 291.125 82.76C294.545 82.76 297.458 83.5517 299.865 85.135C302.272 86.7183 304.108 88.935 305.375 91.785C306.642 94.5717 307.275 97.77 307.275 101.38C307.275 106.383 305.913 111.102 303.19 115.535C300.53 119.968 296.255 124.053 290.365 127.79C284.475 131.527 276.685 134.915 266.995 137.955ZM333.606 157.525L323.536 158.475C323.853 152.458 324.075 146.252 324.201 139.855C324.328 133.458 324.36 127.03 324.296 120.57C324.233 114.11 324.075 107.777 323.821 101.57C323.568 95.3633 323.188 89.41 322.681 83.71L336.266 81.62C336.646 93.5267 336.646 105.877 336.266 118.67C335.95 131.4 335.063 144.352 333.606 157.525ZM365.005 159.33C362.345 159.33 359.843 158.76 357.5 157.62C355.156 156.417 353.288 154.707 351.895 152.49C350.501 150.21 349.805 147.455 349.805 144.225C349.805 140.615 350.818 137.1 352.845 133.68C354.935 130.26 358.386 127.062 363.2 124.085C368.013 121.108 374.41 118.448 382.39 116.105L385.62 122.47C380.68 123.547 376.658 124.877 373.555 126.46C370.451 127.98 368.076 129.595 366.43 131.305C364.783 132.952 363.643 134.598 363.01 136.245C362.44 137.892 362.155 139.348 362.155 140.615C362.155 143.085 362.788 145.238 364.055 147.075C365.321 148.848 367.158 149.735 369.565 149.735C371.718 149.735 373.808 149.07 375.835 147.74C377.925 146.347 379.635 144.352 380.965 141.755C382.295 139.158 382.96 135.992 382.96 132.255L388.47 128.17C388.09 133.807 387.14 138.588 385.62 142.515C384.163 146.442 382.295 149.64 380.015 152.11C377.798 154.58 375.391 156.417 372.795 157.62C370.198 158.76 367.601 159.33 365.005 159.33ZM385.145 159.235C384.701 156.638 384.29 153.567 383.91 150.02C383.53 146.41 383.245 142.737 383.055 139C382.865 135.263 382.706 131.748 382.58 128.455C382.453 125.162 382.358 122.407 382.295 120.19C382.295 117.91 382.326 116.548 382.39 116.105L395.785 114.68C394.835 122.723 394.296 130.165 394.17 137.005C394.106 143.782 394.265 150.463 394.645 157.05L385.145 159.235ZM459.987 158.855L446.687 157.81C447.511 154.137 448.144 150.527 448.587 146.98C449.031 143.433 449.221 140.108 449.157 137.005C449.094 133.838 448.746 131.052 448.112 128.645C447.542 126.175 446.656 124.243 445.452 122.85C444.249 121.457 442.729 120.76 440.892 120.76C438.929 120.76 437.061 121.742 435.287 123.705C433.577 125.605 431.994 128.265 430.537 131.685C429.081 135.042 427.846 138.968 426.832 143.465C425.882 147.962 425.217 152.807 424.837 158L419.707 145.745C419.834 143.148 420.277 140.393 421.037 137.48C421.861 134.567 422.937 131.717 424.267 128.93C425.661 126.08 427.307 123.515 429.207 121.235C431.107 118.955 433.261 117.15 435.667 115.82C438.137 114.427 440.797 113.73 443.647 113.73C447.194 113.73 450.107 114.712 452.387 116.675C454.731 118.575 456.536 121.108 457.802 124.275C459.132 127.442 460.019 130.988 460.462 134.915C460.906 138.842 461.064 142.895 460.937 147.075C460.811 151.192 460.494 155.118 459.987 158.855ZM424.837 158L412.107 159.045C413.184 151.698 413.786 144.447 413.912 137.29C414.039 130.07 413.754 122.977 413.057 116.01L422.937 113.92C423.571 118.163 424.046 122.122 424.362 125.795C424.742 129.468 424.996 133.015 425.122 136.435C425.249 139.792 425.281 143.243 425.217 146.79C425.154 150.273 425.027 154.01 424.837 158ZM511.164 158.19C507.617 158.57 504.039 158.697 500.429 158.57C496.882 158.443 493.525 157.968 490.359 157.145C487.192 156.322 484.374 155.087 481.904 153.44C479.497 151.793 477.597 149.64 476.204 146.98C474.81 144.32 474.114 141.058 474.114 137.195C474.114 133.395 474.81 130.102 476.204 127.315C477.597 124.528 479.465 122.217 481.809 120.38C484.215 118.48 486.844 117.087 489.694 116.2C492.607 115.25 495.52 114.775 498.434 114.775C502.867 114.775 506.572 115.598 509.549 117.245C512.525 118.828 514.774 120.823 516.294 123.23C517.814 125.637 518.542 128.107 518.479 130.64C518.479 132.73 517.972 134.788 516.959 136.815C516.009 138.842 514.394 140.52 512.114 141.85C509.897 143.117 506.825 143.75 502.899 143.75C501.505 143.75 499.859 143.623 497.959 143.37C496.122 143.117 494.222 142.768 492.259 142.325C490.359 141.818 488.554 141.248 486.844 140.615C485.134 139.918 483.709 139.158 482.569 138.335L485.039 134.155C486.242 134.915 487.825 135.58 489.789 136.15C491.815 136.72 494.285 137.005 497.199 137.005C499.035 137.005 500.714 136.752 502.234 136.245C503.817 135.675 505.084 134.788 506.034 133.585C506.984 132.318 507.459 130.767 507.459 128.93C507.459 127.79 507.205 126.65 506.699 125.51C506.192 124.37 505.337 123.42 504.134 122.66C502.994 121.837 501.379 121.425 499.289 121.425C497.199 121.425 495.172 122.153 493.209 123.61C491.309 125.003 489.725 126.808 488.459 129.025C487.192 131.178 486.559 133.49 486.559 135.96C486.559 139.38 487.192 142.293 488.459 144.7C489.789 147.043 491.625 148.88 493.969 150.21C496.312 151.477 499.035 152.237 502.139 152.49C505.242 152.743 508.63 152.49 512.304 151.73L511.164 158.19ZM562.354 158.095C556.844 158.475 552.284 158.063 548.674 156.86C545.064 155.593 542.183 153.63 540.029 150.97C537.939 148.31 536.388 145.048 535.374 141.185C534.424 137.258 533.854 132.825 533.664 127.885C533.474 123.135 533.348 118.638 533.284 114.395C533.221 110.088 533.189 105.94 533.189 101.95C533.189 97.96 533.221 93.9383 533.284 89.885L547.059 88.08C546.426 93.7167 545.824 99.005 545.254 103.945C544.748 108.822 544.304 113.508 543.924 118.005C543.544 122.502 543.323 126.967 543.259 131.4C543.196 135.453 543.956 138.557 545.539 140.71C547.123 142.8 549.403 144.193 552.379 144.89C555.356 145.523 558.871 145.65 562.924 145.27L562.354 158.095ZM559.789 122.85C554.849 121.773 549.624 121.267 544.114 121.33C538.604 121.393 533.221 121.868 527.964 122.755L526.729 116.58C532.429 115.313 538.288 114.522 544.304 114.205C550.384 113.888 555.958 114.015 561.024 114.585L559.789 122.85ZM579.736 158.475C579.926 152.015 580.021 145.713 580.021 139.57C580.085 133.427 580.021 127.442 579.831 121.615C579.641 115.788 579.356 110.152 578.976 104.705C578.596 99.195 578.09 93.875 577.456 88.745L591.896 86.465C592.086 92.1017 592.245 97.39 592.371 102.33C592.498 107.27 592.561 111.988 592.561 116.485C592.561 120.982 592.53 125.447 592.466 129.88C592.403 134.313 592.245 138.81 591.991 143.37C591.801 147.93 591.58 152.807 591.326 158L579.736 158.475ZM590.566 137.955L587.526 132.065C593.733 130.038 598.831 127.917 602.821 125.7C606.875 123.483 610.041 121.235 612.321 118.955C614.601 116.612 616.185 114.268 617.071 111.925C618.021 109.518 618.496 107.207 618.496 104.99C618.496 103.343 618.18 101.76 617.546 100.24C616.913 98.72 615.931 97.5167 614.601 96.63C613.271 95.68 611.53 95.205 609.376 95.205C607.16 95.205 604.721 95.8383 602.061 97.105C599.465 98.3083 597.058 100.208 594.841 102.805C592.625 105.402 590.883 108.758 589.616 112.875L587.716 106.035C589.046 102.045 590.756 98.5933 592.846 95.68C595 92.7667 597.343 90.36 599.876 88.46C602.473 86.56 605.038 85.135 607.571 84.185C610.105 83.235 612.48 82.76 614.696 82.76C618.116 82.76 621.03 83.5517 623.436 85.135C625.843 86.7183 627.68 88.935 628.946 91.785C630.213 94.5717 630.846 97.77 630.846 101.38C630.846 106.383 629.485 111.102 626.761 115.535C624.101 119.968 619.826 124.053 613.936 127.79C608.046 131.527 600.256 134.915 590.566 137.955ZM669.795 158.19C666.248 158.57 662.67 158.697 659.06 158.57C655.513 158.443 652.157 157.968 648.99 157.145C645.823 156.322 643.005 155.087 640.535 153.44C638.128 151.793 636.228 149.64 634.835 146.98C633.442 144.32 632.745 141.058 632.745 137.195C632.745 133.395 633.442 130.102 634.835 127.315C636.228 124.528 638.097 122.217 640.44 120.38C642.847 118.48 645.475 117.087 648.325 116.2C651.238 115.25 654.152 114.775 657.065 114.775C661.498 114.775 665.203 115.598 668.18 117.245C671.157 118.828 673.405 120.823 674.925 123.23C676.445 125.637 677.173 128.107 677.11 130.64C677.11 132.73 676.603 134.788 675.59 136.815C674.64 138.842 673.025 140.52 670.745 141.85C668.528 143.117 665.457 143.75 661.53 143.75C660.137 143.75 658.49 143.623 656.59 143.37C654.753 143.117 652.853 142.768 650.89 142.325C648.99 141.818 647.185 141.248 645.475 140.615C643.765 139.918 642.34 139.158 641.2 138.335L643.67 134.155C644.873 134.915 646.457 135.58 648.42 136.15C650.447 136.72 652.917 137.005 655.83 137.005C657.667 137.005 659.345 136.752 660.865 136.245C662.448 135.675 663.715 134.788 664.665 133.585C665.615 132.318 666.09 130.767 666.09 128.93C666.09 127.79 665.837 126.65 665.33 125.51C664.823 124.37 663.968 123.42 662.765 122.66C661.625 121.837 660.01 121.425 657.92 121.425C655.83 121.425 653.803 122.153 651.84 123.61C649.94 125.003 648.357 126.808 647.09 129.025C645.823 131.178 645.19 133.49 645.19 135.96C645.19 139.38 645.823 142.293 647.09 144.7C648.42 147.043 650.257 148.88 652.6 150.21C654.943 151.477 657.667 152.237 660.77 152.49C663.873 152.743 667.262 152.49 670.935 151.73L669.795 158.19ZM720.986 158.095C715.476 158.475 710.916 158.063 707.306 156.86C703.696 155.593 700.814 153.63 698.661 150.97C696.571 148.31 695.019 145.048 694.006 141.185C693.056 137.258 692.486 132.825 692.296 127.885C692.106 123.135 691.979 118.638 691.916 114.395C691.853 110.088 691.821 105.94 691.821 101.95C691.821 97.96 691.853 93.9383 691.916 89.885L705.691 88.08C705.058 93.7167 704.456 99.005 703.886 103.945C703.379 108.822 702.936 113.508 702.556 118.005C702.176 122.502 701.954 126.967 701.891 131.4C701.828 135.453 702.588 138.557 704.171 140.71C705.754 142.8 708.034 144.193 711.011 144.89C713.988 145.523 717.503 145.65 721.556 145.27L720.986 158.095ZM718.421 122.85C713.481 121.773 708.256 121.267 702.746 121.33C697.236 121.393 691.853 121.868 686.596 122.755L685.361 116.58C691.061 115.313 696.919 114.522 702.936 114.205C709.016 113.888 714.589 114.015 719.656 114.585L718.421 122.85ZM745.398 157.525L735.328 158.475C735.645 152.458 735.866 146.252 735.993 139.855C736.12 133.458 736.151 127.03 736.088 120.57C736.025 114.11 735.866 107.777 735.613 101.57C735.36 95.3633 734.98 89.41 734.473 83.71L748.058 81.62C748.438 93.5267 748.438 105.877 748.058 118.67C747.741 131.4 746.855 144.352 745.398 157.525ZM762.999 179.755L767.939 168.355C771.929 171.268 775.697 173.422 779.244 174.815C782.854 176.272 786.084 176.778 788.934 176.335C791.847 175.892 794.254 174.372 796.154 171.775C798.054 169.178 799.352 165.378 800.049 160.375C800.429 157.588 800.682 154.992 800.809 152.585C800.999 150.178 801.062 147.772 800.999 145.365C800.999 142.895 800.936 140.235 800.809 137.385C800.682 134.535 800.524 131.337 800.334 127.79C800.144 124.18 799.954 120 799.764 115.25L812.209 112.21C812.399 117.973 812.462 123.737 812.399 129.5C812.336 135.263 812.114 140.837 811.734 146.22C811.354 151.54 810.752 156.48 809.929 161.04C808.852 167.247 806.921 172.155 804.134 175.765C801.411 179.375 797.991 181.845 793.874 183.175C789.821 184.505 785.166 184.822 779.909 184.125C774.716 183.492 769.079 182.035 762.999 179.755ZM781.429 159.045C777.882 159.045 774.969 158.127 772.689 156.29C770.409 154.39 768.604 151.888 767.274 148.785C766.007 145.682 765.121 142.198 764.614 138.335C764.171 134.472 764.012 130.513 764.139 126.46C764.266 122.343 764.582 118.417 765.089 114.68L778.389 114.3C777.566 117.973 776.932 121.615 776.489 125.225C776.046 128.772 775.856 132.16 775.919 135.39C775.982 138.62 776.299 141.502 776.869 144.035C777.502 146.505 778.421 148.468 779.624 149.925C780.827 151.382 782.347 152.11 784.184 152.11C786.147 152.11 787.984 151.16 789.694 149.26C791.404 147.36 792.956 144.763 794.349 141.47C795.742 138.113 796.882 134.218 797.769 129.785C798.719 125.288 799.384 120.443 799.764 115.25L804.704 127.505C804.577 130.102 804.134 132.857 803.374 135.77C802.614 138.62 801.569 141.438 800.239 144.225C798.972 147.012 797.421 149.513 795.584 151.73C793.747 153.947 791.626 155.72 789.219 157.05C786.876 158.38 784.279 159.045 781.429 159.045Z" fill="#2C794D"/>
<path d="M256.165 158.475L254.166 158.416L254.103 160.561L256.247 160.473L256.165 158.475ZM256.45 139.57L254.45 139.549L254.45 139.56V139.57H256.45ZM256.26 121.615L254.261 121.68V121.68L256.26 121.615ZM255.405 104.705L253.41 104.843L253.41 104.844L255.405 104.705ZM253.885 88.745L253.573 86.7695L251.663 87.071L251.9 88.9901L253.885 88.745ZM268.325 86.465L270.324 86.3976L270.248 84.1366L268.013 84.4895L268.325 86.465ZM268.895 129.88L270.895 129.909L268.895 129.88ZM268.42 143.37L266.423 143.259L266.422 143.273L266.422 143.287L268.42 143.37ZM267.755 158L267.837 159.998L269.664 159.923L269.753 158.097L267.755 158ZM266.995 137.955L265.218 138.872L265.989 140.367L267.594 139.863L266.995 137.955ZM263.955 132.065L263.334 130.164L261.1 130.893L262.178 132.982L263.955 132.065ZM279.25 125.7L278.29 123.945L278.279 123.952L279.25 125.7ZM288.75 118.955L290.164 120.369L290.174 120.36L290.183 120.35L288.75 118.955ZM293.5 111.925L291.64 111.191L291.634 111.204L291.629 111.217L293.5 111.925ZM293.975 100.24L292.129 101.009L292.129 101.009L293.975 100.24ZM291.03 96.63L289.868 98.2575L289.894 98.2762L289.921 98.2941L291.03 96.63ZM278.49 97.105L279.331 98.9196L279.34 98.9152L279.35 98.9107L278.49 97.105ZM271.27 102.805L269.749 101.506V101.506L271.27 102.805ZM266.045 112.875L264.118 113.41L265.947 119.995L267.957 113.463L266.045 112.875ZM264.145 106.035L262.248 105.403L262.055 105.982L262.218 106.57L264.145 106.035ZM269.275 95.68L267.667 94.4912L267.658 94.5026L267.65 94.5142L269.275 95.68ZM276.305 88.46L275.124 86.8459L275.114 86.8529L275.105 86.86L276.305 88.46ZM284 84.185L284.702 86.0577V86.0577L284 84.185ZM299.865 85.135L298.766 86.8058V86.8058L299.865 85.135ZM305.375 91.785L303.547 92.5973L303.551 92.605L303.554 92.6126L305.375 91.785ZM303.19 115.535L301.486 114.488L301.48 114.497L301.475 114.506L303.19 115.535ZM290.365 127.79L289.294 126.101V126.101L290.365 127.79ZM256.165 158.475L258.164 158.534C258.355 152.055 258.45 145.734 258.45 139.57H256.45H254.45C254.45 145.693 254.355 151.975 254.166 158.416L256.165 158.475ZM256.45 139.57L258.45 139.591C258.514 133.42 258.45 127.407 258.259 121.55L256.26 121.615L254.261 121.68C254.45 127.477 254.513 133.433 254.45 139.549L256.45 139.57ZM256.26 121.615L258.259 121.55C258.068 115.7 257.782 110.039 257.4 104.566L255.405 104.705L253.41 104.844C253.788 110.265 254.072 115.877 254.261 121.68L256.26 121.615ZM255.405 104.705L257.4 104.567C257.018 99.0239 256.508 93.668 255.87 88.4999L253.885 88.745L251.9 88.9901C252.529 94.082 253.032 99.3661 253.41 104.843L255.405 104.705ZM253.885 88.745L254.197 90.7205L268.637 88.4405L268.325 86.465L268.013 84.4895L253.573 86.7695L253.885 88.745ZM268.325 86.465L266.326 86.5324C266.516 92.1644 266.674 97.4473 266.801 102.381L268.8 102.33L270.799 102.279C270.673 97.3327 270.514 92.0389 270.324 86.3976L268.325 86.465ZM268.8 102.33L266.801 102.381C266.927 107.306 266.99 112.007 266.99 116.485H268.99H270.99C270.99 111.97 270.926 107.234 270.799 102.279L268.8 102.33ZM268.99 116.485H266.99C266.99 120.972 266.958 125.428 266.895 129.851L268.895 129.88L270.895 129.909C270.958 125.466 270.99 120.991 270.99 116.485H268.99ZM268.895 129.88L266.895 129.851C266.832 134.256 266.675 138.726 266.423 143.259L268.42 143.37L270.417 143.481C270.672 138.894 270.831 134.37 270.895 129.909L268.895 129.88ZM268.42 143.37L266.422 143.287C266.232 147.841 266.011 152.713 265.757 157.903L267.755 158L269.753 158.097C270.006 152.9 270.228 148.019 270.418 143.453L268.42 143.37ZM267.755 158L267.673 156.002L256.083 156.477L256.165 158.475L256.247 160.473L267.837 159.998L267.755 158ZM266.995 137.955L268.772 137.038L265.732 131.148L263.955 132.065L262.178 132.982L265.218 138.872L266.995 137.955ZM263.955 132.065L264.576 133.966C270.857 131.915 276.083 129.747 280.221 127.448L279.25 125.7L278.279 123.952C274.437 126.086 269.467 128.161 263.334 130.164L263.955 132.065ZM279.25 125.7L280.21 127.455C284.364 125.183 287.705 122.828 290.164 120.369L288.75 118.955L287.336 117.541C285.235 119.642 282.242 121.784 278.29 123.945L279.25 125.7ZM288.75 118.955L290.183 120.35C292.599 117.867 294.362 115.298 295.371 112.633L293.5 111.925L291.629 111.217C290.865 113.239 289.461 115.356 287.317 117.56L288.75 118.955ZM293.5 111.925L295.36 112.659C296.387 110.057 296.925 107.496 296.925 104.99H294.925H292.925C292.925 106.917 292.513 108.979 291.64 111.191L293.5 111.925ZM294.925 104.99H296.925C296.925 103.079 296.556 101.235 295.821 99.4708L293.975 100.24L292.129 101.009C292.661 102.285 292.925 103.607 292.925 104.99H294.925ZM293.975 100.24L295.821 99.4708C295.041 97.5979 293.808 96.0785 292.139 94.9659L291.03 96.63L289.921 98.2941C290.912 98.9548 291.643 99.842 292.129 101.009L293.975 100.24ZM291.03 96.63L292.192 95.0025C290.43 93.7437 288.244 93.205 285.805 93.205V95.205V97.205C287.673 97.205 288.97 97.6162 289.868 98.2575L291.03 96.63ZM285.805 95.205V93.205C283.21 93.205 280.474 93.9449 277.63 95.2993L278.49 97.105L279.35 98.9107C281.826 97.7318 283.967 97.205 285.805 97.205V95.205ZM278.49 97.105L277.649 95.2904C274.746 96.6359 272.117 98.7325 269.749 101.506L271.27 102.805L272.791 104.104C274.856 101.684 277.041 99.9808 279.331 98.9196L278.49 97.105ZM271.27 102.805L269.749 101.506C267.315 104.357 265.46 107.975 264.133 112.287L266.045 112.875L267.957 113.463C269.163 109.542 270.792 106.446 272.791 104.104L271.27 102.805ZM266.045 112.875L267.972 112.34L266.072 105.5L264.145 106.035L262.218 106.57L264.118 113.41L266.045 112.875ZM264.145 106.035L266.042 106.667C267.32 102.836 268.945 99.5707 270.9 96.8458L269.275 95.68L267.65 94.5142C265.425 97.616 263.63 101.254 262.248 105.403L264.145 106.035ZM269.275 95.68L270.883 96.8688C272.938 94.0896 275.148 91.8281 277.505 90.06L276.305 88.46L275.105 86.86C272.396 88.8919 269.919 91.4437 267.667 94.4912L269.275 95.68ZM276.305 88.46L277.486 90.0741C279.963 88.262 282.368 86.9329 284.702 86.0577L284 84.185L283.298 82.3123C280.565 83.3371 277.841 84.858 275.124 86.8459L276.305 88.46ZM284 84.185L284.702 86.0577C287.059 85.1739 289.195 84.76 291.125 84.76V82.76V80.76C288.622 80.76 286.008 81.2961 283.298 82.3123L284 84.185ZM291.125 82.76V84.76C294.229 84.76 296.743 85.4747 298.766 86.8058L299.865 85.135L300.964 83.4642C298.174 81.6286 294.861 80.76 291.125 80.76V82.76ZM299.865 85.135L298.766 86.8058C300.826 88.1612 302.423 90.0672 303.547 92.5973L305.375 91.785L307.203 90.9727C305.794 87.8028 303.717 85.2754 300.964 83.4642L299.865 85.135ZM305.375 91.785L303.554 92.6126C304.684 95.0969 305.275 98.0049 305.275 101.38H307.275H309.275C309.275 97.5351 308.6 94.0464 307.196 90.9574L305.375 91.785ZM307.275 101.38H305.275C305.275 105.999 304.024 110.357 301.486 114.488L303.19 115.535L304.894 116.582C307.803 111.847 309.275 106.768 309.275 101.38H307.275ZM303.19 115.535L301.475 114.506C299.021 118.596 295.008 122.476 289.294 126.101L290.365 127.79L291.436 129.479C297.502 125.631 302.039 121.341 304.905 116.564L303.19 115.535ZM290.365 127.79L289.294 126.101C283.601 129.713 275.988 133.037 266.396 136.047L266.995 137.955L267.594 139.863C277.382 136.793 285.349 133.341 291.436 129.479L290.365 127.79ZM333.606 157.525L333.794 159.516L335.415 159.363L335.594 157.745L333.606 157.525ZM323.536 158.475L321.539 158.37L321.417 160.684L323.724 160.466L323.536 158.475ZM324.201 139.855L322.202 139.815V139.815L324.201 139.855ZM323.821 101.57L325.82 101.488L323.821 101.57ZM322.681 83.71L322.377 81.7333L320.523 82.0185L320.689 83.8871L322.681 83.71ZM336.266 81.62L338.265 81.5562L338.193 79.3L335.962 79.6433L336.266 81.62ZM336.266 118.67L334.267 118.611L334.267 118.62L336.266 118.67ZM333.606 157.525L333.418 155.534L323.348 156.484L323.536 158.475L323.724 160.466L333.794 159.516L333.606 157.525ZM323.536 158.475L325.534 158.58C325.851 152.54 326.074 146.312 326.201 139.895L324.201 139.855L322.202 139.815C322.075 146.192 321.855 152.376 321.539 158.37L323.536 158.475ZM324.201 139.855L326.201 139.895C326.328 133.478 326.36 127.03 326.296 120.55L324.296 120.57L322.296 120.59C322.36 127.03 322.328 133.439 322.202 139.815L324.201 139.855ZM324.296 120.57L326.296 120.55C326.233 114.071 326.074 107.717 325.82 101.488L323.821 101.57L321.823 101.652C322.075 107.837 322.233 114.149 322.296 120.59L324.296 120.57ZM323.821 101.57L325.82 101.488C325.565 95.2526 325.183 89.2673 324.673 83.5329L322.681 83.71L320.689 83.8871C321.193 89.5527 321.571 95.4741 321.823 101.652L323.821 101.57ZM322.681 83.71L322.985 85.6867L336.57 83.5967L336.266 81.62L335.962 79.6433L322.377 81.7333L322.681 83.71ZM336.266 81.62L334.267 81.6838C334.646 93.5465 334.646 105.855 334.267 118.611L336.266 118.67L338.265 118.729C338.647 105.898 338.647 93.5068 338.265 81.5562L336.266 81.62ZM336.266 118.67L334.267 118.62C333.952 131.291 333.069 144.186 331.618 157.305L333.606 157.525L335.594 157.745C337.057 144.517 337.948 131.509 338.266 118.72L336.266 118.67ZM357.5 157.62L356.586 159.399L356.605 159.409L356.625 159.418L357.5 157.62ZM351.895 152.49L350.188 153.533L350.195 153.544L350.201 153.554L351.895 152.49ZM352.845 133.68L351.138 132.637L351.131 132.649L351.124 132.66L352.845 133.68ZM363.2 124.085L362.148 122.384V122.384L363.2 124.085ZM382.39 116.105L384.173 115.2L383.421 113.718L381.826 114.186L382.39 116.105ZM385.62 122.47L386.045 124.424L388.574 123.873L387.403 121.565L385.62 122.47ZM373.555 126.46L374.434 128.256L374.449 128.249L374.464 128.242L373.555 126.46ZM366.43 131.305L367.844 132.719L367.857 132.706L367.87 132.692L366.43 131.305ZM363.01 136.245L361.143 135.527L361.131 135.559L361.12 135.591L363.01 136.245ZM364.055 147.075L362.408 148.21L362.418 148.224L362.427 148.237L364.055 147.075ZM375.835 147.74L376.932 149.412L376.938 149.408L376.944 149.404L375.835 147.74ZM380.965 141.755L382.745 142.667V142.667L380.965 141.755ZM382.96 132.255L381.768 130.648L380.96 131.248V132.255H382.96ZM388.47 128.17L390.465 128.305L390.756 123.985L387.278 126.563L388.47 128.17ZM385.62 142.515L383.754 141.793L383.749 141.806L383.744 141.819L385.62 142.515ZM380.015 152.11L378.545 150.753L378.535 150.764L378.526 150.774L380.015 152.11ZM372.795 157.62L373.599 159.451L373.617 159.443L373.635 159.435L372.795 157.62ZM385.145 159.235L383.173 159.572L383.529 161.659L385.593 161.184L385.145 159.235ZM383.91 150.02L381.921 150.229L381.921 150.233L383.91 150.02ZM383.055 139L385.052 138.898V138.898L383.055 139ZM382.58 128.455L384.578 128.378V128.378L382.58 128.455ZM382.295 120.19H380.295V120.219L380.295 120.247L382.295 120.19ZM382.39 116.105L382.178 114.116L380.63 114.281L380.41 115.822L382.39 116.105ZM395.785 114.68L397.771 114.915L398.065 112.426L395.573 112.691L395.785 114.68ZM394.17 137.005L392.17 136.968L392.17 136.977L392.17 136.986L394.17 137.005ZM394.645 157.05L395.093 158.999L396.739 158.621L396.641 156.935L394.645 157.05ZM365.005 159.33V157.33C362.641 157.33 360.439 156.826 358.375 155.822L357.5 157.62L356.625 159.418C359.246 160.694 362.048 161.33 365.005 161.33V159.33ZM357.5 157.62L358.413 155.841C356.387 154.8 354.789 153.336 353.588 151.426L351.895 152.49L350.201 153.554C351.787 156.077 353.925 158.033 356.586 159.399L357.5 157.62ZM351.895 152.49L353.601 151.447C352.436 149.541 351.805 147.164 351.805 144.225H349.805H347.805C347.805 147.746 348.566 150.879 350.188 153.533L351.895 152.49ZM349.805 144.225H351.805C351.805 141.009 352.702 137.843 354.565 134.7L352.845 133.68L351.124 132.66C348.933 136.357 347.805 140.221 347.805 144.225H349.805ZM352.845 133.68L354.551 134.723C356.424 131.658 359.602 128.661 364.252 125.786L363.2 124.085L362.148 122.384C357.171 125.462 353.445 128.862 351.138 132.637L352.845 133.68ZM363.2 124.085L364.252 125.786C368.859 122.936 375.072 120.338 382.953 118.024L382.39 116.105L381.826 114.186C373.747 116.559 367.166 119.28 362.148 122.384L363.2 124.085ZM382.39 116.105L380.606 117.01L383.836 123.375L385.62 122.47L387.403 121.565L384.173 115.2L382.39 116.105ZM385.62 122.47L385.194 120.516C380.154 121.614 375.954 122.991 372.646 124.678L373.555 126.46L374.464 128.242C377.362 126.763 381.205 125.479 386.045 124.424L385.62 122.47ZM373.555 126.46L372.675 124.664C369.449 126.244 366.853 127.982 364.989 129.918L366.43 131.305L367.87 132.692C369.299 131.208 371.454 129.716 374.434 128.256L373.555 126.46ZM366.43 131.305L365.015 129.891C363.231 131.675 361.903 133.55 361.143 135.527L363.01 136.245L364.876 136.963C365.382 135.647 366.335 134.228 367.844 132.719L366.43 131.305ZM363.01 136.245L361.12 135.591C360.502 137.375 360.155 139.059 360.155 140.615H362.155H364.155C364.155 139.637 364.377 138.409 364.9 136.899L363.01 136.245ZM362.155 140.615H360.155C360.155 143.445 360.887 146.004 362.408 148.21L364.055 147.075L365.701 145.94C364.689 144.472 364.155 142.725 364.155 140.615H362.155ZM364.055 147.075L362.427 148.237C364.113 150.597 366.59 151.735 369.565 151.735V149.735V147.735C367.725 147.735 366.53 147.1 365.682 145.913L364.055 147.075ZM369.565 149.735V151.735C372.156 151.735 374.622 150.928 376.932 149.412L375.835 147.74L374.737 146.068C372.994 147.212 371.28 147.735 369.565 147.735V149.735ZM375.835 147.74L376.944 149.404C379.361 147.793 381.284 145.518 382.745 142.667L380.965 141.755L379.184 140.843C377.985 143.185 376.488 144.901 374.725 146.076L375.835 147.74ZM380.965 141.755L382.745 142.667C384.254 139.72 384.96 136.222 384.96 132.255H382.96H380.96C380.96 135.761 380.335 138.597 379.184 140.843L380.965 141.755ZM382.96 132.255L384.151 133.862L389.661 129.777L388.47 128.17L387.278 126.563L381.768 130.648L382.96 132.255ZM388.47 128.17L386.474 128.035C386.103 133.535 385.182 138.106 383.754 141.793L385.62 142.515L387.485 143.237C389.098 139.07 390.076 134.078 390.465 128.305L388.47 128.17ZM385.62 142.515L383.744 141.819C382.357 145.56 380.61 148.516 378.545 150.753L380.015 152.11L381.484 153.467C383.979 150.764 385.969 147.324 387.495 143.211L385.62 142.515ZM380.015 152.11L378.526 150.774C376.462 153.074 374.268 154.733 371.954 155.805L372.795 157.62L373.635 159.435C376.514 158.101 379.134 156.086 381.503 153.446L380.015 152.11ZM372.795 157.62L371.991 155.789C369.624 156.828 367.3 157.33 365.005 157.33V159.33V161.33C367.903 161.33 370.772 160.692 373.599 159.451L372.795 157.62ZM385.145 159.235L387.116 158.898C386.682 156.354 386.275 153.326 385.898 149.807L383.91 150.02L381.921 150.233C382.304 153.808 382.721 156.923 383.173 159.572L385.145 159.235ZM383.91 150.02L385.899 149.811C385.522 146.238 385.24 142.6 385.052 138.898L383.055 139L381.057 139.102C381.249 142.873 381.537 146.582 381.921 150.229L383.91 150.02ZM383.055 139L385.052 138.898C384.862 135.169 384.704 131.662 384.578 128.378L382.58 128.455L380.581 128.532C380.708 131.834 380.867 135.358 381.057 139.102L383.055 139ZM382.58 128.455L384.578 128.378C384.452 125.089 384.357 122.341 384.294 120.133L382.295 120.19L380.295 120.247C380.359 122.473 380.454 125.235 380.581 128.532L382.58 128.455ZM382.295 120.19H384.295C384.295 119.057 384.302 118.164 384.318 117.505C384.325 117.176 384.335 116.914 384.345 116.715C384.35 116.616 384.356 116.538 384.361 116.478C384.363 116.449 384.365 116.427 384.367 116.41C384.369 116.394 384.37 116.387 384.369 116.388L382.39 116.105L380.41 115.822C380.321 116.443 380.295 117.986 380.295 120.19H382.295ZM382.39 116.105L382.601 118.094L395.996 116.669L395.785 114.68L395.573 112.691L382.178 114.116L382.39 116.105ZM395.785 114.68L393.798 114.445C392.842 122.543 392.298 130.051 392.17 136.968L394.17 137.005L396.169 137.042C396.294 130.279 396.827 122.904 397.771 114.915L395.785 114.68ZM394.17 137.005L392.17 136.986C392.106 143.806 392.265 150.533 392.648 157.165L394.645 157.05L396.641 156.935C396.264 150.394 396.107 143.757 396.169 137.024L394.17 137.005ZM394.645 157.05L394.196 155.101L384.696 157.286L385.145 159.235L385.593 161.184L395.093 158.999L394.645 157.05ZM459.988 158.855L459.831 160.849L461.715 160.997L461.969 159.124L459.988 158.855ZM446.688 157.81L444.736 157.373L444.231 159.623L446.531 159.804L446.688 157.81ZM449.158 137.005L447.158 137.045L447.158 137.046L449.158 137.005ZM448.112 128.645L446.164 129.095L446.171 129.124L446.178 129.154L448.112 128.645ZM445.452 122.85L443.939 124.157V124.157L445.452 122.85ZM435.287 123.705L433.803 122.364L433.801 122.367L435.287 123.705ZM430.537 131.685L432.372 132.481L432.378 132.469L430.537 131.685ZM426.832 143.465L424.881 143.025L424.878 143.038L424.876 143.052L426.832 143.465ZM424.837 158L422.993 158.772L426.832 158.146L424.837 158ZM419.707 145.745L417.71 145.648L417.688 146.1L417.863 146.517L419.707 145.745ZM421.037 137.48L419.113 136.936L419.107 136.956L419.102 136.975L421.037 137.48ZM424.267 128.93L422.471 128.052L422.467 128.06L422.463 128.069L424.267 128.93ZM429.207 121.235L427.671 119.955V119.955L429.207 121.235ZM435.667 115.82L436.635 117.57L436.643 117.566L436.65 117.562L435.667 115.82ZM452.387 116.675L451.082 118.191L451.105 118.21L451.128 118.229L452.387 116.675ZM457.802 124.275L455.946 125.018L455.952 125.034L455.959 125.049L457.802 124.275ZM460.462 134.915L462.45 134.691V134.691L460.462 134.915ZM460.938 147.075L462.937 147.137L462.937 147.136L460.938 147.075ZM424.837 158L425.001 159.993L426.752 159.85L426.835 158.095L424.837 158ZM412.107 159.045L410.129 158.755L409.764 161.244L412.271 161.038L412.107 159.045ZM413.912 137.29L415.912 137.325V137.325L413.912 137.29ZM413.057 116.01L412.644 114.053L410.889 114.424L411.067 116.209L413.057 116.01ZM422.938 113.92L424.916 113.625L424.602 111.524L422.524 111.963L422.938 113.92ZM424.362 125.795L422.37 125.967L422.371 125.984L422.373 126.001L424.362 125.795ZM425.122 136.435L423.124 136.509L423.124 136.51L425.122 136.435ZM425.217 146.79L427.217 146.826L427.217 146.826L425.217 146.79ZM459.988 158.855L460.144 156.861L446.844 155.816L446.688 157.81L446.531 159.804L459.831 160.849L459.988 158.855ZM446.688 157.81L448.639 158.247C449.476 154.515 450.12 150.842 450.572 147.228L448.587 146.98L446.603 146.732C446.168 150.212 445.546 153.759 444.736 157.373L446.688 157.81ZM448.587 146.98L450.572 147.228C451.026 143.6 451.223 140.177 451.157 136.964L449.158 137.005L447.158 137.046C447.219 140.039 447.036 143.267 446.603 146.732L448.587 146.98ZM449.158 137.005L451.157 136.965C451.091 133.681 450.729 130.731 450.047 128.136L448.112 128.645L446.178 129.154C446.762 131.373 447.097 133.996 447.158 137.045L449.158 137.005ZM448.112 128.645L450.061 128.195C449.444 125.522 448.447 123.257 446.966 121.543L445.452 122.85L443.939 124.157C444.865 125.229 445.641 126.828 446.164 129.095L448.112 128.645ZM445.452 122.85L446.966 121.543C445.384 119.711 443.312 118.76 440.892 118.76V120.76V122.76C442.146 122.76 443.114 123.203 443.939 124.157L445.452 122.85ZM440.892 120.76V118.76C438.186 118.76 435.818 120.134 433.803 122.364L435.287 123.705L436.772 125.046C438.304 123.349 439.672 122.76 440.892 122.76V120.76ZM435.287 123.705L433.801 122.367C431.893 124.487 430.205 127.362 428.697 130.901L430.537 131.685L432.378 132.469C433.783 129.168 435.262 126.723 436.774 125.043L435.287 123.705ZM430.537 131.685L428.703 130.889C427.185 134.385 425.916 138.436 424.881 143.025L426.832 143.465L428.784 143.905C429.776 139.5 430.976 135.698 432.372 132.481L430.537 131.685ZM426.832 143.465L424.876 143.052C423.905 147.647 423.229 152.582 422.843 157.854L424.837 158L426.832 158.146C427.206 153.031 427.86 148.276 428.789 143.878L426.832 143.465ZM424.837 158L426.682 157.228L421.552 144.973L419.707 145.745L417.863 146.517L422.993 158.772L424.837 158ZM419.707 145.745L421.705 145.842C421.824 143.403 422.242 140.785 422.973 137.985L421.037 137.48L419.102 136.975C418.313 140.001 417.844 142.894 417.71 145.648L419.707 145.745ZM421.037 137.48L422.962 138.024C423.754 135.222 424.79 132.478 426.072 129.791L424.267 128.93L422.463 128.069C421.085 130.955 419.968 133.912 419.113 136.936L421.037 137.48ZM424.267 128.93L426.064 129.808C427.392 127.092 428.953 124.664 430.744 122.515L429.207 121.235L427.671 119.955C425.662 122.366 423.93 125.068 422.471 128.052L424.267 128.93ZM429.207 121.235L430.744 122.515C432.498 120.411 434.462 118.771 436.635 117.57L435.667 115.82L434.7 114.07C432.06 115.529 429.717 117.499 427.671 119.955L429.207 121.235ZM435.667 115.82L436.65 117.562C438.819 116.339 441.14 115.73 443.647 115.73V113.73V111.73C440.455 111.73 437.456 112.515 434.685 114.078L435.667 115.82ZM443.647 113.73V115.73C446.805 115.73 449.228 116.594 451.082 118.191L452.387 116.675L453.693 115.159C450.987 112.829 447.583 111.73 443.647 111.73V113.73ZM452.387 116.675L451.128 118.229C453.173 119.887 454.789 122.126 455.946 125.018L457.802 124.275L459.659 123.532C458.283 120.091 456.288 117.263 453.647 115.121L452.387 116.675ZM457.802 124.275L455.959 125.049C457.205 128.016 458.05 131.374 458.475 135.139L460.462 134.915L462.45 134.691C461.988 130.603 461.06 126.867 459.646 123.501L457.802 124.275ZM460.462 134.915L458.475 135.139C458.907 138.966 459.062 142.924 458.938 147.014L460.938 147.075L462.937 147.136C463.066 142.866 462.904 138.717 462.45 134.691L460.462 134.915ZM460.938 147.075L458.938 147.013C458.814 151.067 458.502 154.924 458.006 158.586L459.988 158.855L461.969 159.124C462.486 155.312 462.808 151.316 462.937 147.137L460.938 147.075ZM424.837 158L424.674 156.007L411.944 157.052L412.107 159.045L412.271 161.038L425.001 159.993L424.837 158ZM412.107 159.045L414.086 159.335C415.175 151.907 415.784 144.57 415.912 137.325L413.912 137.29L411.913 137.255C411.788 144.323 411.193 151.49 410.129 158.755L412.107 159.045ZM413.912 137.29L415.912 137.325C416.04 130.029 415.752 122.858 415.048 115.811L413.057 116.01L411.067 116.209C411.756 123.096 412.038 130.111 411.913 137.255L413.912 137.29ZM413.057 116.01L413.471 117.967L423.351 115.877L422.938 113.92L422.524 111.963L412.644 114.053L413.057 116.01ZM422.938 113.92L420.959 114.215C421.588 118.424 422.057 122.341 422.37 125.967L424.362 125.795L426.355 125.623C426.034 121.903 425.554 117.903 424.916 113.625L422.938 113.92ZM424.362 125.795L422.373 126.001C422.749 129.634 422.999 133.136 423.124 136.509L425.122 136.435L427.121 136.361C426.993 132.894 426.736 129.303 426.352 125.589L424.362 125.795ZM425.122 136.435L423.124 136.51C423.249 139.828 423.281 143.243 423.218 146.754L425.217 146.79L427.217 146.826C427.281 143.244 427.249 139.755 427.121 136.36L425.122 136.435ZM425.217 146.79L423.218 146.754C423.155 150.215 423.029 153.932 422.84 157.905L424.837 158L426.835 158.095C427.026 154.088 427.153 150.332 427.217 146.826L425.217 146.79ZM511.164 158.19L511.377 160.179L512.872 160.018L513.133 158.538L511.164 158.19ZM500.429 158.57L500.357 160.569L500.358 160.569L500.429 158.57ZM490.359 157.145L489.855 159.081L490.359 157.145ZM481.904 153.44L480.774 155.091L480.784 155.097L480.794 155.104L481.904 153.44ZM481.809 120.38L483.042 121.954L483.048 121.95L481.809 120.38ZM489.694 116.2L490.288 118.11L490.301 118.106L490.314 118.101L489.694 116.2ZM509.549 117.245L508.58 118.995L508.595 119.003L508.609 119.011L509.549 117.245ZM516.294 123.23L517.985 122.162V122.162L516.294 123.23ZM518.479 130.64L516.479 130.59L516.479 130.615V130.64H518.479ZM516.959 136.815L515.17 135.921L515.158 135.943L515.148 135.966L516.959 136.815ZM512.114 141.85L513.106 143.586L513.114 143.582L513.121 143.578L512.114 141.85ZM497.959 143.37L497.685 145.351L497.694 145.352L497.959 143.37ZM492.259 142.325L491.743 144.257L491.78 144.267L491.818 144.276L492.259 142.325ZM486.844 140.615L486.089 142.467L486.119 142.479L486.149 142.49L486.844 140.615ZM482.569 138.335L480.847 137.318L479.919 138.888L481.398 139.956L482.569 138.335ZM485.039 134.155L486.107 132.464L484.365 131.364L483.317 133.138L485.039 134.155ZM489.789 136.15L489.231 138.071L489.239 138.073L489.247 138.075L489.789 136.15ZM502.234 136.245L502.866 138.142L502.889 138.135L502.911 138.127L502.234 136.245ZM506.034 133.585L507.603 134.824L507.619 134.805L507.634 134.785L506.034 133.585ZM506.699 125.51L504.871 126.322V126.322L506.699 125.51ZM504.134 122.66L502.963 124.281L503.013 124.318L503.066 124.351L504.134 122.66ZM493.209 123.61L494.391 125.223L494.4 125.216L493.209 123.61ZM488.459 129.025L490.182 130.039L490.189 130.028L490.195 130.017L488.459 129.025ZM488.459 144.7L486.689 145.631L486.704 145.66L486.719 145.687L488.459 144.7ZM493.969 150.21L492.981 151.949L492.999 151.96L493.018 151.969L493.969 150.21ZM502.139 152.49L502.301 150.497V150.497L502.139 152.49ZM512.304 151.73L514.273 152.078L514.785 149.174L511.898 149.771L512.304 151.73ZM511.164 158.19L510.951 156.201C507.499 156.571 504.015 156.695 500.499 156.571L500.429 158.57L500.358 160.569C504.062 160.699 507.735 160.569 511.377 160.179L511.164 158.19ZM500.429 158.57L500.5 156.571C497.087 156.449 493.876 155.993 490.862 155.209L490.359 157.145L489.855 159.081C493.175 159.944 496.677 160.437 500.357 160.569L500.429 158.57ZM490.359 157.145L490.862 155.209C487.889 154.436 485.279 153.287 483.013 151.776L481.904 153.44L480.794 155.104C483.468 156.886 486.495 158.207 489.855 159.081L490.359 157.145ZM481.904 153.44L483.033 151.789C480.904 150.333 479.221 148.431 477.975 146.052L476.204 146.98L474.432 147.908C475.972 150.849 478.089 153.254 480.774 155.091L481.904 153.44ZM476.204 146.98L477.975 146.052C476.769 143.749 476.114 140.825 476.114 137.195H474.114H472.114C472.114 141.292 472.852 144.891 474.432 147.908L476.204 146.98ZM474.114 137.195H476.114C476.114 133.638 476.765 130.664 477.992 128.209L476.204 127.315L474.415 126.421C472.855 129.539 472.114 133.152 472.114 137.195H474.114ZM476.204 127.315L477.992 128.209C479.26 125.675 480.943 123.6 483.042 121.954L481.809 120.38L480.575 118.806C477.988 120.834 475.934 123.382 474.415 126.421L476.204 127.315ZM481.809 120.38L483.048 121.95C485.267 120.197 487.678 118.922 490.288 118.11L489.694 116.2L489.099 114.29C486.009 115.252 483.163 116.763 480.569 118.81L481.809 120.38ZM489.694 116.2L490.314 118.101C493.037 117.213 495.742 116.775 498.434 116.775V114.775V112.775C495.299 112.775 492.177 113.287 489.074 114.299L489.694 116.2ZM498.434 114.775V116.775C502.628 116.775 505.977 117.555 508.58 118.995L509.549 117.245L510.517 115.495C507.167 113.642 503.106 112.775 498.434 112.775V114.775ZM509.549 117.245L508.609 119.011C511.336 120.461 513.3 122.235 514.603 124.298L516.294 123.23L517.985 122.162C516.247 119.411 513.715 117.196 510.488 115.479L509.549 117.245ZM516.294 123.23L514.603 124.298C515.939 126.413 516.531 128.499 516.479 130.59L518.479 130.64L520.478 130.69C520.552 127.714 519.689 124.86 517.985 122.162L516.294 123.23ZM518.479 130.64H516.479C516.479 132.394 516.056 134.148 515.17 135.921L516.959 136.815L518.747 137.709C519.888 135.429 520.479 133.066 520.479 130.64H518.479ZM516.959 136.815L515.148 135.966C514.399 137.563 513.099 138.959 511.106 140.122L512.114 141.85L513.121 143.578C515.688 142.081 517.618 140.12 518.769 137.664L516.959 136.815ZM512.114 141.85L511.121 140.114C509.327 141.139 506.649 141.75 502.899 141.75V143.75V145.75C507.002 145.75 510.467 145.095 513.106 143.586L512.114 141.85ZM502.899 143.75V141.75C501.619 141.75 500.065 141.633 498.223 141.388L497.959 143.37L497.694 145.352C499.652 145.613 501.391 145.75 502.899 145.75V143.75ZM497.959 143.37L498.232 141.389C496.456 141.144 494.612 140.806 492.699 140.374L492.259 142.325L491.818 144.276C493.832 144.731 495.788 145.09 497.685 145.351L497.959 143.37ZM492.259 142.325L492.774 140.393C490.93 139.901 489.185 139.349 487.538 138.74L486.844 140.615L486.149 142.49C487.922 143.147 489.787 143.736 491.743 144.257L492.259 142.325ZM486.844 140.615L487.598 138.763C485.993 138.109 484.717 137.42 483.74 136.714L482.569 138.335L481.398 139.956C482.7 140.897 484.275 141.728 486.089 142.467L486.844 140.615ZM482.569 138.335L484.29 139.352L486.76 135.172L485.039 134.155L483.317 133.138L480.847 137.318L482.569 138.335ZM485.039 134.155L483.971 135.846C485.385 136.739 487.159 137.469 489.231 138.071L489.789 136.15L490.346 134.229C488.492 133.691 487.099 133.091 486.107 132.464L485.039 134.155ZM489.789 136.15L489.247 138.075C491.503 138.71 494.167 139.005 497.199 139.005V137.005V135.005C494.404 135.005 492.128 134.73 490.33 134.225L489.789 136.15ZM497.199 137.005V139.005C499.219 139.005 501.115 138.726 502.866 138.142L502.234 136.245L501.601 134.348C500.312 134.777 498.851 135.005 497.199 135.005V137.005ZM502.234 136.245L502.911 138.127C504.81 137.443 506.399 136.349 507.603 134.824L506.034 133.585L504.464 132.346C503.768 133.227 502.823 133.907 501.556 134.363L502.234 136.245ZM506.034 133.585L507.634 134.785C508.883 133.119 509.459 131.127 509.459 128.93H507.459H505.459C505.459 130.406 505.084 131.518 504.434 132.385L506.034 133.585ZM507.459 128.93H509.459C509.459 127.485 509.136 126.069 508.526 124.698L506.699 125.51L504.871 126.322C505.275 127.231 505.459 128.095 505.459 128.93H507.459ZM506.699 125.51L508.526 124.698C507.837 123.147 506.691 121.91 505.202 120.969L504.134 122.66L503.066 124.351C503.983 124.93 504.547 125.593 504.871 126.322L506.699 125.51ZM504.134 122.66L505.305 121.039C503.694 119.876 501.605 119.425 499.289 119.425V121.425V123.425C501.152 123.425 502.293 123.798 502.963 124.281L504.134 122.66ZM499.289 121.425V119.425C496.7 119.425 494.264 120.336 492.017 122.004L493.209 123.61L494.4 125.216C496.079 123.97 497.697 123.425 499.289 123.425V121.425ZM493.209 123.61L492.026 121.997C489.881 123.57 488.116 125.593 486.722 128.033L488.459 129.025L490.195 130.017C491.334 128.023 492.736 126.437 494.391 125.223L493.209 123.61ZM488.459 129.025L486.735 128.011C485.289 130.468 484.559 133.129 484.559 135.96H486.559H488.559C488.559 133.851 489.094 131.889 490.182 130.039L488.459 129.025ZM486.559 135.96H484.559C484.559 139.623 485.237 142.873 486.689 145.631L488.459 144.7L490.228 143.769C489.147 141.714 488.559 139.137 488.559 135.96H486.559ZM488.459 144.7L486.719 145.687C488.227 148.345 490.324 150.441 492.981 151.949L493.969 150.21L494.956 148.471C492.926 147.319 491.35 145.742 490.198 143.713L488.459 144.7ZM493.969 150.21L493.018 151.969C495.642 153.388 498.643 154.211 501.976 154.483L502.139 152.49L502.301 150.497C499.428 150.262 496.982 149.565 494.92 148.451L493.969 150.21ZM502.139 152.49L501.976 154.483C505.303 154.755 508.886 154.48 512.709 153.689L512.304 151.73L511.898 149.771C508.375 150.5 505.18 150.732 502.301 150.497L502.139 152.49ZM512.304 151.73L510.334 151.382L509.194 157.842L511.164 158.19L513.133 158.538L514.273 152.078L512.304 151.73ZM562.354 158.095L562.492 160.09L564.273 159.967L564.352 158.184L562.354 158.095ZM548.674 156.86L548.012 158.747L548.027 158.752L548.042 158.757L548.674 156.86ZM540.029 150.97L538.457 152.206L538.466 152.217L538.475 152.228L540.029 150.97ZM535.374 141.185L533.431 141.655L533.435 141.674L533.44 141.692L535.374 141.185ZM533.664 127.885L535.663 127.808L535.663 127.805L533.664 127.885ZM533.284 114.395L531.285 114.424V114.425L533.284 114.395ZM533.284 89.885L533.025 87.902L531.312 88.1264L531.285 89.8538L533.284 89.885ZM547.059 88.08L549.047 88.3033L549.332 85.7651L546.8 86.0969L547.059 88.08ZM545.254 103.945L543.268 103.716L543.266 103.727L543.265 103.738L545.254 103.945ZM543.924 118.005L541.932 117.837V117.837L543.924 118.005ZM543.259 131.4L545.259 131.431L545.259 131.429L543.259 131.4ZM545.539 140.71L543.928 141.895L543.937 141.906L543.945 141.918L545.539 140.71ZM552.379 144.89L551.924 146.837L551.943 146.842L551.963 146.846L552.379 144.89ZM562.924 145.27L564.922 145.359L565.024 143.064L562.738 143.279L562.924 145.27ZM559.789 122.85L559.364 124.804L561.452 125.259L561.767 123.146L559.789 122.85ZM544.114 121.33L544.137 123.33V123.33L544.114 121.33ZM527.964 122.755L526.003 123.147L526.384 125.05L528.297 124.727L527.964 122.755ZM526.729 116.58L526.296 114.628L524.384 115.052L524.768 116.972L526.729 116.58ZM544.304 114.205L544.2 112.208L544.199 112.208L544.304 114.205ZM561.024 114.585L563.003 114.881L563.309 112.829L561.248 112.598L561.024 114.585ZM562.354 158.095L562.217 156.1C556.86 156.469 552.584 156.055 549.307 154.963L548.674 156.86L548.042 158.757C551.985 160.072 556.829 160.481 562.492 160.09L562.354 158.095ZM548.674 156.86L549.337 154.973C546.034 153.814 543.477 152.05 541.584 149.712L540.029 150.97L538.475 152.228C540.888 155.21 544.095 157.373 548.012 158.747L548.674 156.86ZM540.029 150.97L541.602 149.734C539.709 147.325 538.265 144.323 537.309 140.678L535.374 141.185L533.44 141.692C534.51 145.774 536.17 149.295 538.457 152.206L540.029 150.97ZM535.374 141.185L537.318 140.715C536.406 136.942 535.849 132.644 535.663 127.808L533.664 127.885L531.666 127.962C531.86 133.006 532.443 137.575 533.431 141.655L535.374 141.185ZM533.664 127.885L535.663 127.805C535.473 123.07 535.347 118.59 535.284 114.365L533.284 114.395L531.285 114.425C531.348 118.687 531.475 123.2 531.666 127.965L533.664 127.885ZM533.284 114.395L535.284 114.366C535.221 110.068 535.189 105.929 535.189 101.95H533.189H531.189C531.189 105.951 531.221 110.109 531.285 114.424L533.284 114.395ZM533.189 101.95H535.189C535.189 97.9706 535.221 93.9593 535.284 89.9162L533.284 89.885L531.285 89.8538C531.221 93.9173 531.189 97.9494 531.189 101.95H533.189ZM533.284 89.885L533.544 91.868L547.319 90.063L547.059 88.08L546.8 86.0969L533.025 87.902L533.284 89.885ZM547.059 88.08L545.072 87.8567C544.439 93.4916 543.837 98.778 543.268 103.716L545.254 103.945L547.241 104.174C547.812 99.232 548.413 93.9417 549.047 88.3033L547.059 88.08ZM545.254 103.945L543.265 103.738C542.757 108.627 542.313 113.326 541.932 117.837L543.924 118.005L545.917 118.173C546.296 113.691 546.738 109.017 547.244 104.152L545.254 103.945ZM543.924 118.005L541.932 117.837C541.548 122.379 541.324 126.891 541.26 131.371L543.259 131.4L545.259 131.429C545.322 127.043 545.541 122.624 545.917 118.173L543.924 118.005ZM543.259 131.4L541.26 131.369C541.193 135.645 541.983 139.249 543.928 141.895L545.539 140.71L547.151 139.525C545.929 137.864 545.199 135.262 545.259 131.431L543.259 131.4ZM545.539 140.71L543.945 141.918C545.856 144.44 548.572 146.053 551.924 146.837L552.379 144.89L552.835 142.943C550.233 142.334 548.39 141.16 547.134 139.502L545.539 140.71ZM552.379 144.89L551.963 146.846C555.192 147.533 558.92 147.654 563.111 147.261L562.924 145.27L562.738 143.279C558.823 143.646 555.52 143.513 552.796 142.934L552.379 144.89ZM562.924 145.27L560.926 145.181L560.356 158.006L562.354 158.095L564.352 158.184L564.922 145.359L562.924 145.27ZM559.789 122.85L560.215 120.896C555.115 119.784 549.739 119.265 544.091 119.33L544.114 121.33L544.137 123.33C549.51 123.268 554.583 123.762 559.364 124.804L559.789 122.85ZM544.114 121.33L544.091 119.33C538.481 119.395 532.994 119.878 527.632 120.783L527.964 122.755L528.297 124.727C533.448 123.858 538.728 123.392 544.137 123.33L544.114 121.33ZM527.964 122.755L529.926 122.363L528.691 116.188L526.729 116.58L524.768 116.972L526.003 123.147L527.964 122.755ZM526.729 116.58L527.163 118.532C532.752 117.29 538.5 116.513 544.41 116.202L544.304 114.205L544.199 112.208C538.076 112.53 532.107 113.336 526.296 114.628L526.729 116.58ZM544.304 114.205L544.408 116.202C550.399 115.89 555.861 116.017 560.801 116.572L561.024 114.585L561.248 112.598C556.054 112.013 550.369 111.886 544.2 112.208L544.304 114.205ZM561.024 114.585L559.046 114.289L557.811 122.554L559.789 122.85L561.767 123.146L563.003 114.881L561.024 114.585ZM579.736 158.475L577.737 158.416L577.674 160.561L579.818 160.473L579.736 158.475ZM580.021 139.57L578.022 139.549L578.021 139.56V139.57H580.021ZM579.831 121.615L577.833 121.68V121.68L579.831 121.615ZM578.976 104.705L576.981 104.843L576.981 104.844L578.976 104.705ZM577.456 88.745L577.145 86.7695L575.235 87.071L575.472 88.9901L577.456 88.745ZM591.896 86.465L593.895 86.3976L593.819 84.1366L591.585 84.4895L591.896 86.465ZM592.466 129.88L594.466 129.909L592.466 129.88ZM591.991 143.37L589.995 143.259L589.994 143.273L589.993 143.287L591.991 143.37ZM591.326 158L591.408 159.998L593.235 159.923L593.324 158.097L591.326 158ZM590.566 137.955L588.789 138.872L589.561 140.367L591.165 139.863L590.566 137.955ZM587.526 132.065L586.906 130.164L584.671 130.893L585.749 132.982L587.526 132.065ZM602.821 125.7L601.862 123.945L601.85 123.952L602.821 125.7ZM612.321 118.955L613.736 120.369L613.745 120.36L613.755 120.35L612.321 118.955ZM617.071 111.925L615.211 111.191L615.206 111.204L615.201 111.217L617.071 111.925ZM617.546 100.24L615.7 101.009V101.009L617.546 100.24ZM614.601 96.63L613.439 98.2575L613.465 98.2762L613.492 98.2941L614.601 96.63ZM602.061 97.105L602.902 98.9196L602.912 98.9152L602.921 98.9107L602.061 97.105ZM594.841 102.805L593.32 101.506V101.506L594.841 102.805ZM589.616 112.875L587.689 113.41L589.518 119.995L591.528 113.463L589.616 112.875ZM587.716 106.035L585.819 105.403L585.626 105.982L585.789 106.57L587.716 106.035ZM592.846 95.68L591.238 94.4912L591.23 94.5026L591.221 94.5142L592.846 95.68ZM599.876 88.46L598.695 86.8459L598.686 86.8529L598.676 86.86L599.876 88.46ZM607.571 84.185L608.274 86.0577V86.0577L607.571 84.185ZM623.436 85.135L622.337 86.8058V86.8058L623.436 85.135ZM628.946 91.785L627.119 92.5973L627.122 92.605L627.126 92.6126L628.946 91.785ZM626.761 115.535L625.057 114.488L625.052 114.497L625.047 114.506L626.761 115.535ZM613.936 127.79L612.865 126.101V126.101L613.936 127.79ZM579.736 158.475L581.736 158.534C581.926 152.055 582.021 145.734 582.021 139.57H580.021H578.021C578.021 145.693 577.927 151.975 577.737 158.416L579.736 158.475ZM580.021 139.57L582.021 139.591C582.085 133.42 582.021 127.407 581.83 121.55L579.831 121.615L577.833 121.68C578.022 127.477 578.085 133.433 578.022 139.549L580.021 139.57ZM579.831 121.615L581.83 121.55C581.64 115.7 581.353 110.039 580.972 104.566L578.976 104.705L576.981 104.844C577.359 110.265 577.643 115.877 577.833 121.68L579.831 121.615ZM578.976 104.705L580.972 104.567C580.589 99.0239 580.079 93.668 579.441 88.4999L577.456 88.745L575.472 88.9901C576.1 94.082 576.604 99.3661 576.981 104.843L578.976 104.705ZM577.456 88.745L577.768 90.7205L592.208 88.4405L591.896 86.465L591.585 84.4895L577.145 86.7695L577.456 88.745ZM591.896 86.465L589.898 86.5324C590.087 92.1644 590.246 97.4473 590.372 102.381L592.371 102.33L594.371 102.279C594.244 97.3327 594.086 92.0389 593.895 86.3976L591.896 86.465ZM592.371 102.33L590.372 102.381C590.498 107.306 590.561 112.007 590.561 116.485H592.561H594.561C594.561 111.97 594.498 107.234 594.371 102.279L592.371 102.33ZM592.561 116.485H590.561C590.561 120.972 590.53 125.428 590.467 129.851L592.466 129.88L594.466 129.909C594.53 125.466 594.561 120.991 594.561 116.485H592.561ZM592.466 129.88L590.467 129.851C590.404 134.256 590.246 138.726 589.995 143.259L591.991 143.37L593.988 143.481C594.243 138.894 594.403 134.37 594.466 129.909L592.466 129.88ZM591.991 143.37L589.993 143.287C589.803 147.841 589.582 152.713 589.329 157.903L591.326 158L593.324 158.097C593.578 152.9 593.8 148.019 593.99 143.453L591.991 143.37ZM591.326 158L591.245 156.002L579.655 156.477L579.736 158.475L579.818 160.473L591.408 159.998L591.326 158ZM590.566 137.955L592.344 137.038L589.304 131.148L587.526 132.065L585.749 132.982L588.789 138.872L590.566 137.955ZM587.526 132.065L588.147 133.966C594.428 131.915 599.655 129.747 603.793 127.448L602.821 125.7L601.85 123.952C598.008 126.086 593.038 128.161 586.906 130.164L587.526 132.065ZM602.821 125.7L603.781 127.455C607.936 125.183 611.277 122.828 613.736 120.369L612.321 118.955L610.907 117.541C608.806 119.642 605.814 121.784 601.862 123.945L602.821 125.7ZM612.321 118.955L613.755 120.35C616.171 117.867 617.934 115.298 618.942 112.633L617.071 111.925L615.201 111.217C614.436 113.239 613.032 115.356 610.888 117.56L612.321 118.955ZM617.071 111.925L618.932 112.659C619.959 110.057 620.496 107.496 620.496 104.99H618.496H616.496C616.496 106.917 616.084 108.979 615.211 111.191L617.071 111.925ZM618.496 104.99H620.496C620.496 103.079 620.128 101.235 619.393 99.4708L617.546 100.24L615.7 101.009C616.232 102.285 616.496 103.607 616.496 104.99H618.496ZM617.546 100.24L619.393 99.4708C618.612 97.5979 617.38 96.0785 615.711 94.9659L614.601 96.63L613.492 98.2941C614.483 98.9548 615.214 99.842 615.7 101.009L617.546 100.24ZM614.601 96.63L615.764 95.0025C614.002 93.7437 611.815 93.205 609.376 93.205V95.205V97.205C611.244 97.205 612.541 97.6162 613.439 98.2575L614.601 96.63ZM609.376 95.205V93.205C606.781 93.205 604.046 93.9449 601.202 95.2993L602.061 97.105L602.921 98.9107C605.397 97.7318 607.538 97.205 609.376 97.205V95.205ZM602.061 97.105L601.221 95.2904C598.317 96.6359 595.688 98.7325 593.32 101.506L594.841 102.805L596.363 104.104C598.428 101.684 600.612 99.9808 602.902 98.9196L602.061 97.105ZM594.841 102.805L593.32 101.506C590.887 104.357 589.032 107.975 587.705 112.287L589.616 112.875L591.528 113.463C592.735 109.542 594.363 106.446 596.363 104.104L594.841 102.805ZM589.616 112.875L591.544 112.34L589.643 105.5L587.716 106.035L585.789 106.57L587.689 113.41L589.616 112.875ZM587.716 106.035L589.614 106.667C590.891 102.836 592.517 99.5707 594.472 96.8458L592.846 95.68L591.221 94.5142C588.996 97.616 587.202 101.254 585.819 105.403L587.716 106.035ZM592.846 95.68L594.455 96.8688C596.509 94.0896 598.719 91.8281 601.076 90.06L599.876 88.46L598.676 86.86C595.967 88.8919 593.491 91.4437 591.238 94.4912L592.846 95.68ZM599.876 88.46L601.057 90.0741C603.534 88.262 605.94 86.9329 608.274 86.0577L607.571 84.185L606.869 82.3123C604.137 83.3371 601.412 84.858 598.695 86.8459L599.876 88.46ZM607.571 84.185L608.274 86.0577C610.63 85.1739 612.766 84.76 614.696 84.76V82.76V80.76C612.194 80.76 609.579 81.2961 606.869 82.3123L607.571 84.185ZM614.696 82.76V84.76C617.8 84.76 620.314 85.4747 622.337 86.8058L623.436 85.135L624.536 83.4642C621.746 81.6286 618.433 80.76 614.696 80.76V82.76ZM623.436 85.135L622.337 86.8058C624.397 88.1612 625.994 90.0672 627.119 92.5973L628.946 91.785L630.774 90.9727C629.365 87.8028 627.289 85.2754 624.536 83.4642L623.436 85.135ZM628.946 91.785L627.126 92.6126C628.255 95.0969 628.846 98.0049 628.846 101.38H630.846H632.846C632.846 97.5351 632.171 94.0464 630.767 90.9574L628.946 91.785ZM630.846 101.38H628.846C628.846 105.999 627.595 110.357 625.057 114.488L626.761 115.535L628.466 116.582C631.374 111.847 632.846 106.768 632.846 101.38H630.846ZM626.761 115.535L625.047 114.506C622.593 118.596 618.58 122.476 612.865 126.101L613.936 127.79L615.008 129.479C621.073 125.631 625.61 121.341 628.476 116.564L626.761 115.535ZM613.936 127.79L612.865 126.101C607.173 129.713 599.56 133.037 589.968 136.047L590.566 137.955L591.165 139.863C600.953 136.793 608.92 133.341 615.008 129.479L613.936 127.79ZM669.795 158.19L670.008 160.179L671.503 160.018L671.765 158.538L669.795 158.19ZM659.06 158.57L658.989 160.569L658.99 160.569L659.06 158.57ZM648.99 157.145L648.487 159.081L648.99 157.145ZM640.535 153.44L639.406 155.091L639.416 155.097L639.426 155.104L640.535 153.44ZM640.44 120.38L641.674 121.954L641.679 121.95L640.44 120.38ZM648.325 116.2L648.919 118.11L648.932 118.106L648.945 118.101L648.325 116.2ZM668.18 117.245L667.212 118.995L667.226 119.003L667.241 119.011L668.18 117.245ZM674.925 123.23L676.616 122.162V122.162L674.925 123.23ZM677.11 130.64L675.111 130.59L675.11 130.615V130.64H677.11ZM675.59 136.815L673.801 135.921L673.79 135.943L673.779 135.966L675.59 136.815ZM670.745 141.85L671.737 143.586L671.745 143.582L671.753 143.578L670.745 141.85ZM656.59 143.37L656.317 145.351L656.326 145.352L656.59 143.37ZM650.89 142.325L650.375 144.257L650.412 144.267L650.449 144.276L650.89 142.325ZM645.475 140.615L644.72 142.467L644.75 142.479L644.78 142.49L645.475 140.615ZM641.2 138.335L639.478 137.318L638.55 138.888L640.029 139.956L641.2 138.335ZM643.67 134.155L644.738 132.464L642.996 131.364L641.948 133.138L643.67 134.155ZM648.42 136.15L647.862 138.071L647.87 138.073L647.879 138.075L648.42 136.15ZM660.865 136.245L661.497 138.142L661.52 138.135L661.542 138.127L660.865 136.245ZM664.665 133.585L666.235 134.824L666.25 134.805L666.265 134.785L664.665 133.585ZM665.33 125.51L663.502 126.322V126.322L665.33 125.51ZM662.765 122.66L661.594 124.281L661.644 124.318L661.697 124.351L662.765 122.66ZM651.84 123.61L653.023 125.223L653.032 125.216L651.84 123.61ZM647.09 129.025L648.814 130.039L648.82 130.028L648.826 130.017L647.09 129.025ZM647.09 144.7L645.32 145.631L645.335 145.66L645.351 145.687L647.09 144.7ZM652.6 150.21L651.613 151.949L651.631 151.96L651.649 151.969L652.6 150.21ZM660.77 152.49L660.933 150.497V150.497L660.77 152.49ZM670.935 151.73L672.905 152.078L673.417 149.174L670.53 149.771L670.935 151.73ZM669.795 158.19L669.582 156.201C666.13 156.571 662.647 156.695 659.13 156.571L659.06 158.57L658.99 160.569C662.693 160.699 666.366 160.569 670.008 160.179L669.795 158.19ZM659.06 158.57L659.131 156.571C655.718 156.449 652.507 155.993 649.493 155.209L648.99 157.145L648.487 159.081C651.806 159.944 655.308 160.437 658.989 160.569L659.06 158.57ZM648.99 157.145L649.493 155.209C646.52 154.436 643.911 153.287 641.644 151.776L640.535 153.44L639.426 155.104C642.099 156.886 645.126 158.207 648.487 159.081L648.99 157.145ZM640.535 153.44L641.664 151.789C639.536 150.333 637.853 148.431 636.607 146.052L634.835 146.98L633.063 147.908C634.604 150.849 636.721 153.254 639.406 155.091L640.535 153.44ZM634.835 146.98L636.607 146.052C635.4 143.749 634.745 140.825 634.745 137.195H632.745H630.745C630.745 141.292 631.483 144.891 633.063 147.908L634.835 146.98ZM632.745 137.195H634.745C634.745 133.638 635.397 130.664 636.624 128.209L634.835 127.315L633.046 126.421C631.487 129.539 630.745 133.152 630.745 137.195H632.745ZM634.835 127.315L636.624 128.209C637.891 125.675 639.574 123.6 641.674 121.954L640.44 120.38L639.206 118.806C636.619 120.834 634.566 123.382 633.046 126.421L634.835 127.315ZM640.44 120.38L641.679 121.95C643.899 120.197 646.31 118.922 648.919 118.11L648.325 116.2L647.731 114.29C644.64 115.252 641.794 116.763 639.201 118.81L640.44 120.38ZM648.325 116.2L648.945 118.101C651.669 117.213 654.373 116.775 657.065 116.775V114.775V112.775C653.93 112.775 650.808 113.287 647.705 114.299L648.325 116.2ZM657.065 114.775V116.775C661.259 116.775 664.608 117.555 667.212 118.995L668.18 117.245L669.148 115.495C665.799 113.642 661.737 112.775 657.065 112.775V114.775ZM668.18 117.245L667.241 119.011C669.967 120.461 671.931 122.235 673.234 124.298L674.925 123.23L676.616 122.162C674.879 119.411 672.346 117.196 669.119 115.479L668.18 117.245ZM674.925 123.23L673.234 124.298C674.57 126.413 675.163 128.499 675.111 130.59L677.11 130.64L679.109 130.69C679.184 127.714 678.32 124.86 676.616 122.162L674.925 123.23ZM677.11 130.64H675.11C675.11 132.394 674.688 134.148 673.801 135.921L675.59 136.815L677.379 137.709C678.519 135.429 679.11 133.066 679.11 130.64H677.11ZM675.59 136.815L673.779 135.966C673.031 137.563 671.731 138.959 669.737 140.122L670.745 141.85L671.753 143.578C674.319 142.081 676.249 140.12 677.401 137.664L675.59 136.815ZM670.745 141.85L669.753 140.114C667.959 141.139 665.28 141.75 661.53 141.75V143.75V145.75C665.633 145.75 669.098 145.095 671.737 143.586L670.745 141.85ZM661.53 143.75V141.75C660.251 141.75 658.697 141.633 656.854 141.388L656.59 143.37L656.326 145.352C658.283 145.613 660.022 145.75 661.53 145.75V143.75ZM656.59 143.37L656.863 141.389C655.087 141.144 653.243 140.806 651.331 140.374L650.89 142.325L650.449 144.276C652.463 144.731 654.419 145.09 656.317 145.351L656.59 143.37ZM650.89 142.325L651.405 140.393C649.561 139.901 647.816 139.349 646.17 138.74L645.475 140.615L644.78 142.49C646.554 143.147 648.419 143.736 650.375 144.257L650.89 142.325ZM645.475 140.615L646.23 138.763C644.624 138.109 643.349 137.42 642.371 136.714L641.2 138.335L640.029 139.956C641.331 140.897 642.906 141.728 644.72 142.467L645.475 140.615ZM641.2 138.335L642.922 139.352L645.392 135.172L643.67 134.155L641.948 133.138L639.478 137.318L641.2 138.335ZM643.67 134.155L642.602 135.846C644.016 136.739 645.79 137.469 647.862 138.071L648.42 136.15L648.978 134.229C647.123 133.691 645.73 133.091 644.738 132.464L643.67 134.155ZM648.42 136.15L647.879 138.075C650.134 138.71 652.798 139.005 655.83 139.005V137.005V135.005C653.035 135.005 650.759 134.73 648.961 134.225L648.42 136.15ZM655.83 137.005V139.005C657.851 139.005 659.746 138.726 661.497 138.142L660.865 136.245L660.233 134.348C658.944 134.777 657.483 135.005 655.83 135.005V137.005ZM660.865 136.245L661.542 138.127C663.442 137.443 665.031 136.349 666.235 134.824L664.665 133.585L663.095 132.346C662.399 133.227 661.455 133.907 660.188 134.363L660.865 136.245ZM664.665 133.585L666.265 134.785C667.515 133.119 668.09 131.127 668.09 128.93H666.09H664.09C664.09 130.406 663.715 131.518 663.065 132.385L664.665 133.585ZM666.09 128.93H668.09C668.09 127.485 667.767 126.069 667.158 124.698L665.33 125.51L663.502 126.322C663.906 127.231 664.09 128.095 664.09 128.93H666.09ZM665.33 125.51L667.158 124.698C666.468 123.147 665.322 121.91 663.833 120.969L662.765 122.66L661.697 124.351C662.614 124.93 663.178 125.593 663.502 126.322L665.33 125.51ZM662.765 122.66L663.936 121.039C662.326 119.876 660.236 119.425 657.92 119.425V121.425V123.425C659.784 123.425 660.924 123.798 661.594 124.281L662.765 122.66ZM657.92 121.425V119.425C655.331 119.425 652.896 120.336 650.648 122.004L651.84 123.61L653.032 125.216C654.711 123.97 656.329 123.425 657.92 123.425V121.425ZM651.84 123.61L650.657 121.997C648.513 123.57 646.747 125.593 645.354 128.033L647.09 129.025L648.826 130.017C649.966 128.023 651.367 126.437 653.023 125.223L651.84 123.61ZM647.09 129.025L645.366 128.011C643.921 130.468 643.19 133.129 643.19 135.96H645.19H647.19C647.19 133.851 647.726 131.889 648.814 130.039L647.09 129.025ZM645.19 135.96H643.19C643.19 139.623 643.868 142.873 645.32 145.631L647.09 144.7L648.86 143.769C647.778 141.714 647.19 139.137 647.19 135.96H645.19ZM647.09 144.7L645.351 145.687C646.859 148.345 648.955 150.441 651.613 151.949L652.6 150.21L653.587 148.471C651.558 147.319 649.981 145.742 648.829 143.713L647.09 144.7ZM652.6 150.21L651.649 151.969C654.274 153.388 657.274 154.211 660.607 154.483L660.77 152.49L660.933 150.497C658.059 150.262 655.613 149.565 653.551 148.451L652.6 150.21ZM660.77 152.49L660.607 154.483C663.935 154.755 667.517 154.48 671.34 153.689L670.935 151.73L670.53 149.771C667.006 150.5 663.812 150.732 660.933 150.497L660.77 152.49ZM670.935 151.73L668.965 151.382L667.825 157.842L669.795 158.19L671.765 158.538L672.905 152.078L670.935 151.73ZM720.986 158.095L721.124 160.09L722.905 159.967L722.984 158.184L720.986 158.095ZM707.306 156.86L706.644 158.747L706.659 158.752L706.673 158.757L707.306 156.86ZM698.661 150.97L697.088 152.206L697.097 152.217L697.106 152.228L698.661 150.97ZM694.006 141.185L692.062 141.655L692.066 141.674L692.071 141.692L694.006 141.185ZM692.296 127.885L694.294 127.808L694.294 127.805L692.296 127.885ZM691.916 114.395L689.916 114.424V114.425L691.916 114.395ZM691.916 89.885L691.656 87.902L689.943 88.1264L689.916 89.8538L691.916 89.885ZM705.691 88.08L707.678 88.3033L707.964 85.7651L705.431 86.0969L705.691 88.08ZM703.886 103.945L701.899 103.716L701.898 103.727L701.897 103.738L703.886 103.945ZM702.556 118.005L700.563 117.837V117.837L702.556 118.005ZM701.891 131.4L703.891 131.431L703.891 131.429L701.891 131.4ZM704.171 140.71L702.56 141.895L702.568 141.906L702.577 141.918L704.171 140.71ZM711.011 144.89L710.555 146.837L710.575 146.842L710.595 146.846L711.011 144.89ZM721.556 145.27L723.554 145.359L723.656 143.064L721.369 143.279L721.556 145.27ZM718.421 122.85L717.995 124.804L720.083 125.259L720.399 123.146L718.421 122.85ZM702.746 121.33L702.769 123.33V123.33L702.746 121.33ZM686.596 122.755L684.635 123.147L685.015 125.05L686.929 124.727L686.596 122.755ZM685.361 116.58L684.927 114.628L683.016 115.052L683.4 116.972L685.361 116.58ZM702.936 114.205L702.832 112.208L702.831 112.208L702.936 114.205ZM719.656 114.585L721.634 114.881L721.94 112.829L719.879 112.598L719.656 114.585ZM720.986 158.095L720.848 156.1C715.491 156.469 711.215 156.055 707.938 154.963L707.306 156.86L706.673 158.757C710.617 160.072 715.461 160.481 721.124 160.09L720.986 158.095ZM707.306 156.86L707.968 154.973C704.666 153.814 702.109 152.05 700.215 149.712L698.661 150.97L697.106 152.228C699.52 155.21 702.726 157.373 706.644 158.747L707.306 156.86ZM698.661 150.97L700.234 149.734C698.341 147.325 696.897 144.323 695.94 140.678L694.006 141.185L692.071 141.692C693.142 145.774 694.801 149.295 697.088 152.206L698.661 150.97ZM694.006 141.185L695.95 140.715C695.037 136.942 694.48 132.644 694.294 127.808L692.296 127.885L690.297 127.962C690.491 133.006 691.075 137.575 692.062 141.655L694.006 141.185ZM692.296 127.885L694.294 127.805C694.105 123.07 693.979 118.59 693.916 114.365L691.916 114.395L689.916 114.425C689.98 118.687 690.107 123.2 690.297 127.965L692.296 127.885ZM691.916 114.395L693.916 114.366C693.852 110.068 693.821 105.929 693.821 101.95H691.821H689.821C689.821 105.951 689.853 110.109 689.916 114.424L691.916 114.395ZM691.821 101.95H693.821C693.821 97.9706 693.852 93.9593 693.916 89.9162L691.916 89.885L689.916 89.8538C689.853 93.9173 689.821 97.9494 689.821 101.95H691.821ZM691.916 89.885L692.176 91.868L705.951 90.063L705.691 88.08L705.431 86.0969L691.656 87.902L691.916 89.885ZM705.691 88.08L703.703 87.8567C703.07 93.4916 702.469 98.778 701.899 103.716L703.886 103.945L705.873 104.174C706.443 99.232 707.045 93.9417 707.678 88.3033L705.691 88.08ZM703.886 103.945L701.897 103.738C701.389 108.627 700.944 113.326 700.563 117.837L702.556 118.005L704.549 118.173C704.928 113.691 705.37 109.017 705.875 104.152L703.886 103.945ZM702.556 118.005L700.563 117.837C700.179 122.379 699.955 126.891 699.891 131.371L701.891 131.4L703.891 131.429C703.953 127.043 704.173 122.624 704.549 118.173L702.556 118.005ZM701.891 131.4L699.891 131.369C699.824 135.645 700.614 139.249 702.56 141.895L704.171 140.71L705.782 139.525C704.561 137.864 703.831 135.262 703.891 131.431L701.891 131.4ZM704.171 140.71L702.577 141.918C704.487 144.44 707.204 146.053 710.555 146.837L711.011 144.89L711.467 142.943C708.865 142.334 707.021 141.16 705.765 139.502L704.171 140.71ZM711.011 144.89L710.595 146.846C713.823 147.533 717.551 147.654 721.743 147.261L721.556 145.27L721.369 143.279C717.454 143.646 714.152 143.513 711.427 142.934L711.011 144.89ZM721.556 145.27L719.558 145.181L718.988 158.006L720.986 158.095L722.984 158.184L723.554 145.359L721.556 145.27ZM718.421 122.85L718.847 120.896C713.747 119.784 708.37 119.265 702.723 119.33L702.746 121.33L702.769 123.33C708.141 123.268 713.215 123.762 717.995 124.804L718.421 122.85ZM702.746 121.33L702.723 119.33C697.113 119.395 691.626 119.878 686.263 120.783L686.596 122.755L686.929 124.727C692.079 123.858 697.359 123.392 702.769 123.33L702.746 121.33ZM686.596 122.755L688.557 122.363L687.322 116.188L685.361 116.58L683.4 116.972L684.635 123.147L686.596 122.755ZM685.361 116.58L685.795 118.532C691.383 117.29 697.131 116.513 703.041 116.202L702.936 114.205L702.831 112.208C696.707 112.53 690.739 113.336 684.927 114.628L685.361 116.58ZM702.936 114.205L703.04 116.202C709.031 115.89 714.493 116.017 719.432 116.572L719.656 114.585L719.879 112.598C714.686 112.013 709.001 111.886 702.832 112.208L702.936 114.205ZM719.656 114.585L717.678 114.289L716.443 122.554L718.421 122.85L720.399 123.146L721.634 114.881L719.656 114.585ZM745.398 157.525L745.586 159.516L747.207 159.363L747.386 157.745L745.398 157.525ZM735.328 158.475L733.331 158.37L733.209 160.684L735.516 160.466L735.328 158.475ZM735.993 139.855L733.993 139.815V139.815L735.993 139.855ZM735.613 101.57L737.611 101.488L735.613 101.57ZM734.473 83.71L734.169 81.7333L732.315 82.0185L732.481 83.8871L734.473 83.71ZM748.058 81.62L750.057 81.5562L749.985 79.3L747.754 79.6433L748.058 81.62ZM748.058 118.67L746.059 118.611L746.059 118.62L748.058 118.67ZM745.398 157.525L745.21 155.534L735.14 156.484L735.328 158.475L735.516 160.466L745.586 159.516L745.398 157.525ZM735.328 158.475L737.325 158.58C737.643 152.54 737.865 146.312 737.993 139.895L735.993 139.855L733.993 139.815C733.867 146.192 733.646 152.376 733.331 158.37L735.328 158.475ZM735.993 139.855L737.993 139.895C738.12 133.478 738.151 127.03 738.088 120.55L736.088 120.57L734.088 120.59C734.151 127.03 734.12 133.439 733.993 139.815L735.993 139.855ZM736.088 120.57L738.088 120.55C738.024 114.071 737.865 107.717 737.611 101.488L735.613 101.57L733.615 101.652C733.867 107.837 734.025 114.149 734.088 120.59L736.088 120.57ZM735.613 101.57L737.611 101.488C737.357 95.2526 736.975 89.2673 736.465 83.5329L734.473 83.71L732.481 83.8871C732.984 89.5527 733.362 95.4741 733.615 101.652L735.613 101.57ZM734.473 83.71L734.777 85.6867L748.362 83.5967L748.058 81.62L747.754 79.6433L734.169 81.7333L734.473 83.71ZM748.058 81.62L746.059 81.6838C746.438 93.5465 746.438 105.855 746.059 118.611L748.058 118.67L750.057 118.729C750.438 105.898 750.438 93.5068 750.057 81.5562L748.058 81.62ZM748.058 118.67L746.059 118.62C745.743 131.291 744.861 144.186 743.41 157.305L745.398 157.525L747.386 157.745C748.848 144.517 749.739 131.509 750.057 118.72L748.058 118.67ZM762.999 179.755L761.164 178.96L760.328 180.889L762.297 181.628L762.999 179.755ZM767.939 168.355L769.118 166.74L767.098 165.265L766.104 167.56L767.939 168.355ZM779.244 174.815L779.992 172.96L779.984 172.957L779.975 172.953L779.244 174.815ZM788.934 176.335L788.633 174.358L788.626 174.359L788.934 176.335ZM796.154 171.775L797.768 172.956V172.956L796.154 171.775ZM800.049 160.375L802.03 160.651L802.031 160.645L800.049 160.375ZM800.809 152.585L798.815 152.428L798.813 152.454L798.812 152.48L800.809 152.585ZM800.999 145.365H798.999V145.391L799 145.418L800.999 145.365ZM800.809 137.385L802.807 137.296V137.296L800.809 137.385ZM800.334 127.79L798.337 127.895L798.337 127.897L800.334 127.79ZM799.764 115.25L799.289 113.307L797.7 113.695L797.766 115.33L799.764 115.25ZM812.209 112.21L814.208 112.144L814.127 109.683L811.734 110.267L812.209 112.21ZM812.399 129.5L814.399 129.522V129.522L812.399 129.5ZM811.734 146.22L813.729 146.362L813.729 146.361L811.734 146.22ZM809.929 161.04L807.961 160.685L807.958 160.698L809.929 161.04ZM804.134 175.765L802.551 174.543L802.544 174.552L802.537 174.561L804.134 175.765ZM793.874 183.175L793.259 181.272L793.25 181.275L793.874 183.175ZM779.909 184.125L780.172 182.142L780.161 182.141L780.151 182.14L779.909 184.125ZM772.689 156.29L771.409 157.826L771.421 157.837L771.434 157.848L772.689 156.29ZM767.274 148.785L765.422 149.541L765.429 149.557L765.436 149.573L767.274 148.785ZM764.614 138.335L762.627 138.563L762.629 138.579L762.631 138.595L764.614 138.335ZM764.139 126.46L766.138 126.522V126.522L764.139 126.46ZM765.089 114.68L765.032 112.681L763.335 112.729L763.107 114.411L765.089 114.68ZM778.389 114.3L780.341 114.737L780.903 112.227L778.332 112.301L778.389 114.3ZM776.489 125.225L778.473 125.473L778.474 125.469L776.489 125.225ZM776.869 144.035L774.918 144.474L774.924 144.503L774.932 144.532L776.869 144.035ZM779.624 149.925L781.166 148.651V148.651L779.624 149.925ZM789.694 149.26L791.18 150.598V150.598L789.694 149.26ZM794.349 141.47L796.191 142.249L796.196 142.237L794.349 141.47ZM797.769 129.785L795.812 129.372L795.81 129.382L795.808 129.393L797.769 129.785ZM799.764 115.25L801.619 114.502L797.769 115.104L799.764 115.25ZM804.704 127.505L806.702 127.602L806.723 127.164L806.559 126.757L804.704 127.505ZM803.374 135.77L805.306 136.285L805.309 136.275L803.374 135.77ZM800.239 144.225L798.434 143.364L798.426 143.38L798.418 143.397L800.239 144.225ZM795.584 151.73L797.124 153.006V153.006L795.584 151.73ZM789.219 157.05L788.252 155.3L788.242 155.305L788.232 155.311L789.219 157.05ZM762.999 179.755L764.834 180.55L769.774 169.15L767.939 168.355L766.104 167.56L761.164 178.96L762.999 179.755ZM767.939 168.355L766.76 169.97C770.849 172.956 774.768 175.205 778.513 176.676L779.244 174.815L779.975 172.953C776.627 171.638 773.009 169.58 769.118 166.74L767.939 168.355ZM779.244 174.815L778.496 176.67C782.327 178.216 785.931 178.826 789.241 178.311L788.934 176.335L788.626 174.359C786.237 174.731 783.381 174.328 779.992 172.96L779.244 174.815ZM788.934 176.335L789.235 178.312C792.725 177.781 795.585 175.939 797.768 172.956L796.154 171.775L794.54 170.594C792.922 172.805 790.969 174.002 788.633 174.358L788.934 176.335ZM796.154 171.775L797.768 172.956C799.944 169.983 801.311 165.813 802.03 160.651L800.049 160.375L798.068 160.099C797.393 164.944 796.164 168.374 794.54 170.594L796.154 171.775ZM800.049 160.375L802.031 160.645C802.417 157.813 802.676 155.16 802.806 152.69L800.809 152.585L798.812 152.48C798.688 154.823 798.441 157.364 798.067 160.105L800.049 160.375ZM800.809 152.585L802.803 152.742C802.998 150.266 803.063 147.789 802.998 145.312L800.999 145.365L799 145.418C799.061 147.754 799 150.091 798.815 152.428L800.809 152.585ZM800.999 145.365H802.999C802.999 142.861 802.935 140.171 802.807 137.296L800.809 137.385L798.811 137.474C798.936 140.299 798.999 142.929 798.999 145.365H800.999ZM800.809 137.385L802.807 137.296C802.68 134.439 802.521 131.234 802.331 127.683L800.334 127.79L798.337 127.897C798.527 131.439 798.685 134.631 798.811 137.474L800.809 137.385ZM800.334 127.79L802.331 127.685C802.142 124.085 801.952 119.914 801.762 115.17L799.764 115.25L797.766 115.33C797.956 120.086 798.146 124.275 798.337 127.895L800.334 127.79ZM799.764 115.25L800.239 117.193L812.683 114.153L812.209 112.21L811.734 110.267L799.289 113.307L799.764 115.25ZM812.209 112.21L810.21 112.276C810.399 118.01 810.462 123.744 810.399 129.478L812.399 129.5L814.399 129.522C814.462 123.729 814.399 117.937 814.208 112.144L812.209 112.21ZM812.399 129.5L810.399 129.478C810.336 135.204 810.116 140.738 809.739 146.079L811.734 146.22L813.729 146.361C814.112 140.935 814.335 135.322 814.399 129.522L812.399 129.5ZM811.734 146.22L809.739 146.078C809.363 151.337 808.77 156.205 807.961 160.685L809.929 161.04L811.897 161.395C812.735 156.755 813.344 151.743 813.729 146.362L811.734 146.22ZM809.929 161.04L807.958 160.698C806.917 166.7 805.077 171.27 802.551 174.543L804.134 175.765L805.717 176.987C808.764 173.04 810.787 167.793 811.899 161.382L809.929 161.04ZM804.134 175.765L802.537 174.561C800.05 177.858 796.966 180.074 793.259 181.272L793.874 183.175L794.489 185.078C799.015 183.616 802.771 180.892 805.731 176.969L804.134 175.765ZM793.874 183.175L793.25 181.275C789.543 182.491 785.201 182.809 780.172 182.142L779.909 184.125L779.646 186.108C785.13 186.834 790.098 186.519 794.497 185.075L793.874 183.175ZM779.909 184.125L780.151 182.14C775.147 181.53 769.667 180.119 763.701 177.882L762.999 179.755L762.297 181.628C768.491 183.951 774.284 185.454 779.667 186.11L779.909 184.125ZM781.429 159.045V157.045C778.239 157.045 775.797 156.226 773.944 154.732L772.689 156.29L771.434 157.848C774.14 160.027 777.526 161.045 781.429 161.045V159.045ZM772.689 156.29L773.969 154.754C771.963 153.082 770.335 150.851 769.112 147.997L767.274 148.785L765.436 149.573C766.873 152.926 768.855 155.698 771.409 157.826L772.689 156.29ZM767.274 148.785L769.126 148.029C767.933 145.108 767.085 141.795 766.597 138.075L764.614 138.335L762.631 138.595C763.156 142.602 764.081 146.255 765.422 149.541L767.274 148.785ZM764.614 138.335L766.601 138.107C766.169 134.344 766.014 130.483 766.138 126.522L764.139 126.46L762.14 126.398C762.01 130.544 762.172 134.599 762.627 138.563L764.614 138.335ZM764.139 126.46L766.138 126.522C766.263 122.468 766.574 118.611 767.071 114.949L765.089 114.68L763.107 114.411C762.59 118.223 762.268 122.219 762.14 126.398L764.139 126.46ZM765.089 114.68L765.146 116.679L778.446 116.299L778.389 114.3L778.332 112.301L765.032 112.681L765.089 114.68ZM778.389 114.3L776.437 113.863C775.6 117.598 774.955 121.304 774.504 124.981L776.489 125.225L778.474 125.469C778.909 121.926 779.531 118.349 780.341 114.737L778.389 114.3ZM776.489 125.225L774.504 124.977C774.05 128.609 773.854 132.094 773.919 135.429L775.919 135.39L777.919 135.351C777.857 132.226 778.041 128.934 778.473 125.473L776.489 125.225ZM775.919 135.39L773.919 135.429C773.985 138.763 774.312 141.782 774.918 144.474L776.869 144.035L778.82 143.596C778.286 141.221 777.98 138.477 777.919 135.351L775.919 135.39ZM776.869 144.035L774.932 144.532C775.614 147.192 776.638 149.451 778.082 151.199L779.624 149.925L781.166 148.651C780.203 147.486 779.391 145.818 778.806 143.538L776.869 144.035ZM779.624 149.925L778.082 151.199C779.653 153.1 781.731 154.11 784.184 154.11V152.11V150.11C782.963 150.11 782.002 149.663 781.166 148.651L779.624 149.925ZM784.184 152.11V154.11C786.873 154.11 789.213 152.785 791.18 150.598L789.694 149.26L788.207 147.922C786.755 149.535 785.421 150.11 784.184 150.11V152.11ZM789.694 149.26L791.18 150.598C793.085 148.481 794.743 145.672 796.191 142.249L794.349 141.47L792.507 140.691C791.168 143.855 789.722 146.239 788.207 147.922L789.694 149.26ZM794.349 141.47L796.196 142.237C797.65 138.734 798.824 134.709 799.73 130.177L797.769 129.785L795.808 129.393C794.941 133.727 793.835 137.492 792.502 140.703L794.349 141.47ZM797.769 129.785L799.726 130.198C800.697 125.603 801.373 120.668 801.759 115.396L799.764 115.25L797.769 115.104C797.395 120.219 796.741 124.974 795.812 129.372L797.769 129.785ZM799.764 115.25L797.909 115.998L802.849 128.253L804.704 127.505L806.559 126.757L801.619 114.502L799.764 115.25ZM804.704 127.505L802.706 127.408C802.587 129.847 802.169 132.465 801.439 135.265L803.374 135.77L805.309 136.275C806.099 133.249 806.567 130.356 806.702 127.602L804.704 127.505ZM803.374 135.77L801.441 135.255C800.715 137.98 799.713 140.683 798.434 143.364L800.239 144.225L802.044 145.086C803.424 142.194 804.513 139.26 805.306 136.285L803.374 135.77ZM800.239 144.225L798.418 143.397C797.22 146.033 795.761 148.382 794.044 150.454L795.584 151.73L797.124 153.006C799.081 150.645 800.724 147.99 802.06 145.053L800.239 144.225ZM795.584 151.73L794.044 150.454C792.359 152.487 790.429 154.096 788.252 155.3L789.219 157.05L790.186 158.8C792.822 157.344 795.135 155.406 797.124 153.006L795.584 151.73ZM789.219 157.05L788.232 155.311C786.207 156.46 783.954 157.045 781.429 157.045V159.045V161.045C784.604 161.045 787.544 160.3 790.206 158.789L789.219 157.05Z" fill="#2C794D"/>
<path d="M228.932 24.0069C220.956 35.76 228.878 47.5131 228.931 47.5919C229.142 47.3799 229.773 45.9076 229.773 45.9076C236.091 28.2186 244.514 24.0069 244.514 24.0069C235.038 37.4843 233.774 52.0146 233.774 52.0146C252.516 47.5923 253.99 33.9043 253.99 33.9043C256.939 22.3222 252.516 9.47656 252.516 9.47656L241.987 14.32C232.3 18.9529 228.932 24.0069 228.932 24.0069Z" fill="#ABC442"/>
<path d="M57.9346 118.771C38.982 142.778 57.724 160.046 57.724 160.046H59.1975C121.53 154.57 170.596 120.455 170.596 120.455C163.226 112.032 159.436 109.926 159.436 109.926C151.854 104.872 145.537 93.0794 145.537 93.0794C136.692 72.6535 116.266 72.6535 116.266 72.6535C92.8909 71.1794 83.8358 89.079 83.8358 89.079C78.9924 101.714 66.7785 110.769 66.7785 110.769L57.9346 118.771Z" fill="#2C794D"/>
<path d="M22.7663 110.769C24.0298 107.399 21.0817 109.294 21.0817 109.294L16.8692 113.295C9.4987 120.244 5.70923 127.193 5.70923 127.193C-7.13653 148.042 5.70923 159.202 5.70923 159.202C20.8712 172.469 49.3 170.784 49.3 170.784C72.2537 170.995 98.3662 164.046 98.3662 164.046C117.085 158.781 135.218 166.362 135.218 166.362C159.225 174.996 170.596 160.044 170.596 160.044C182.389 148.041 176.493 128.667 176.493 128.667C213.556 104.45 223.032 85.4976 223.032 85.4976C233.982 67.3873 229.981 58.5428 229.981 58.5428C225.77 45.0654 208.081 40.8554 208.081 40.8554C195.656 37.6951 185.548 38.7487 185.548 38.7487C180.705 39.8016 185.337 41.0651 185.337 41.0651L192.497 41.4863C219.242 43.8027 223.453 57.7012 223.453 57.7012C229.771 71.3892 213.556 88.8677 213.556 88.8677C197.13 110.768 160.699 130.985 160.699 130.985C113.949 158.782 61.514 164.046 61.514 164.046C42.9825 166.152 29.2945 163.625 29.2945 163.625C8.23611 160.466 5.70923 148.042 5.70923 148.042C1.70813 135.828 13.7114 120.666 13.7114 120.666C15.3726 117.928 22.7663 110.769 22.7663 110.769Z" fill="#2C794D"/>
<ellipse cx="46.7698" cy="80.307" rx="20.3008" ry="27.4815" transform="rotate(-25.3549 46.7698 80.307)" fill="#2C794D"/>
<ellipse cx="180.913" cy="80.4365" rx="20.3008" ry="27.4815" transform="rotate(27.3505 180.913 80.4365)" fill="#2C794D"/>
<ellipse cx="143.638" cy="34.948" rx="23.2423" ry="31.85" transform="rotate(8.5389 143.638 34.948)" fill="#2C794D"/>
<ellipse cx="84.2823" cy="35.1601" rx="23.2423" ry="31.85" transform="rotate(-9.20951 84.2823 35.1601)" fill="#2C794D"/>
</svg>
